<svg xmlns="http://www.w3.org/2000/svg" version="1.1" xmlns:xlink="http://www.w3.org/1999/xlink" width="1000" height="1000"><metadata><rdf:RDF xmlns:rdf="http://www.w3.org/1999/02/22-rdf-syntax-ns#" xmlns:dc="http://purl.org/dc/elements/1.1/"><rdf:Description><dc:creator>RealFaviconGenerator</dc:creator><dc:source>https://realfavicongenerator.net</dc:source></rdf:Description></rdf:RDF></metadata><style>
    #light-icon {
      display: inline;
    }
    #dark-icon {
      display: none;
    }

    @media (prefers-color-scheme: dark) {
      #light-icon {
        display: none;
      }
      #dark-icon {
        display: inline;
      }
    }
  </style><g id="light-icon"><svg xmlns="http://www.w3.org/2000/svg" version="1.1" xmlns:xlink="http://www.w3.org/1999/xlink" width="1000" height="1000"><g><g transform="matrix(2.2222222222222223,0,0,2.2222222222222223,0,0)"><svg xmlns="http://www.w3.org/2000/svg" id="Layer_1" data-name="Layer 1" viewBox="0 0 450 450" width="450" height="450"><defs>
    <style>
      .cls-1 {
        fill: #2d46b9;
      }
    </style>
  </defs><path class="cls-1" d="M437.8,209.91c-1.6-4.94-6.67-8.56-14.68-10.94-.43-.13-.89-.25-1.34-.37-.63-.17-1.27-.34-1.93-.5-.44-.1-.9-.19-1.35-.29-.73-.16-1.46-.31-2.22-.45-.42-.08-.86-.14-1.28-.21-.84-.14-1.68-.28-2.56-.4-.37-.05-.76-.09-1.13-.14-.98-.12-1.96-.25-2.99-.35-.26-.03-.54-.05-.81-.07-1.17-.11-2.35-.21-3.58-.3-.03,0-.07,0-.11,0-4.4-.29-9.16-.41-14.27-.36,0,0,0,0,0,0-37.82.39-94.46,10.12-158.46,27.92,0,.01,0,.03,0,.04,0,14.99-12.15,27.14-27.14,27.14s-27.14-12.15-27.14-27.14,12.15-27.14,27.14-27.14c7.49,0,14.28,3.04,19.19,7.95,35.1-11.03,104.79-30.29,161.86-29.77-22.12-80.47-95.75-139.6-183.25-139.6C96.77,34.92,11.66,120.02,11.66,225s85.1,190.08,190.08,190.08c92.29,0,169.21-65.78,186.45-153,34.62-20.81,53.66-39.62,49.6-52.17Z"></path></svg></g></g></svg></g><g id="dark-icon"><svg xmlns="http://www.w3.org/2000/svg" version="1.1" xmlns:xlink="http://www.w3.org/1999/xlink" width="1000" height="1000"><g><g transform="matrix(2.2222222222222223,0,0,2.2222222222222223,0,0)"><svg xmlns="http://www.w3.org/2000/svg" id="Layer_1" data-name="Layer 1" viewBox="0 0 450 450" width="450" height="450"><defs>
    <style>
      .cls-1 {
        fill: #ff933b;
      }
    </style>
  </defs><path class="cls-1" d="M437.8,209.91c-1.6-4.94-6.67-8.56-14.68-10.94-.43-.13-.89-.25-1.34-.37-.63-.17-1.27-.34-1.93-.5-.44-.1-.9-.19-1.35-.29-.73-.16-1.46-.31-2.22-.45-.42-.08-.86-.14-1.28-.21-.84-.14-1.68-.28-2.56-.4-.37-.05-.76-.09-1.13-.14-.98-.12-1.96-.25-2.99-.35-.26-.03-.54-.05-.81-.07-1.17-.11-2.35-.21-3.58-.3-.03,0-.07,0-.11,0-4.4-.29-9.16-.41-14.27-.36,0,0,0,0,0,0-37.82.39-94.46,10.12-158.46,27.92,0,.01,0,.03,0,.04,0,14.99-12.15,27.14-27.14,27.14s-27.14-12.15-27.14-27.14,12.15-27.14,27.14-27.14c7.49,0,14.28,3.04,19.19,7.95,35.1-11.03,104.79-30.29,161.86-29.77-22.12-80.47-95.75-139.6-183.25-139.6C96.77,34.92,11.66,120.02,11.66,225s85.1,190.08,190.08,190.08c92.29,0,169.21-65.78,186.45-153,34.62-20.81,53.66-39.62,49.6-52.17Z"></path></svg></g></g></svg></g></svg>