<?xml version="1.0" standalone="no"?>
<!DOCTYPE svg PUBLIC "-//W3C//DTD SVG 20010904//EN"
 "http://www.w3.org/TR/2001/REC-SVG-20010904/DTD/svg10.dtd">
<svg version="1.0" xmlns="http://www.w3.org/2000/svg"
 width="1024.000000pt" height="1024.000000pt" viewBox="0 0 1024.000000 1024.000000"
 preserveAspectRatio="xMidYMid meet">
<metadata>
Created by potrace 1.14, written by Peter Selinger 2001-2017
</metadata>
<g transform="translate(0.000000,1024.000000) scale(0.100000,-0.100000)"
fill="#000000" stroke="none">
<path d="M2910 8169 c-85 -8 -134 -26 -202 -72 -79 -54 -151 -147 -177 -230
-19 -61 -20 -102 -20 -2269 l-1 -2208 42 -1 c24 0 1197 0 2608 -1 l2565 0 3
2198 c3 2457 8 2265 -68 2382 -42 65 -86 107 -152 145 -103 61 58 57 -2345 60
-1209 1 -2223 -1 -2253 -4z m3319 -1218 c15 -11 56 -50 90 -88 35 -37 119
-124 186 -194 153 -157 170 -187 139 -249 -10 -22 -490 -499 -1162 -1158 -97
-96 -290 -286 -429 -423 -172 -170 -259 -249 -275 -250 -69 -5 -92 7 -173 88
-410 411 -984 1001 -997 1026 -38 69 -21 107 101 226 332 326 333 327 401 321
38 -3 63 -26 360 -324 151 -151 278 -276 282 -276 4 0 203 195 443 433 728
721 869 859 899 877 36 23 96 19 135 -9z"/>
<path d="M1109 4244 c-148 -34 -266 -144 -319 -298 -19 -56 -20 -85 -20 -780
1 -769 -1 -747 49 -844 53 -102 149 -184 266 -225 39 -13 7964 -18 8038 -5
151 28 296 167 332 320 21 89 22 1435 1 1515 -38 144 -146 257 -294 310 -41
15 -105 17 -507 19 -253 2 -467 1 -475 -2 -13 -3 -15 -59 -14 -429 0 -233 3
-427 7 -431 4 -4 78 -8 164 -9 211 -3 201 -1 234 -34 l29 -29 0 -147 c0 -169
-9 -196 -69 -213 -51 -15 -6772 -15 -6822 0 -60 17 -69 44 -69 211 0 212 4
215 267 213 90 -1 163 1 164 4 1 3 2 199 2 436 l2 431 -455 0 c-336 0 -470 -3
-511 -13z"/>
</g>
</svg>
