<?xml version="1.0" encoding="UTF-8"?>
<svg id="Layer_1" data-name="Layer 1" xmlns="http://www.w3.org/2000/svg" viewBox="0 0 1000 249.08">
  <defs>
    <style>
      .cls-1 {
        fill: #f8f9ff;
      }
    </style>
  </defs>
  <path class="cls-1" d="M252.13,118.23c-.87-2.7-3.65-4.68-8.02-5.98-.24-.07-.49-.14-.73-.2-.35-.09-.69-.19-1.06-.27-.24-.06-.49-.11-.74-.16-.4-.08-.8-.17-1.21-.25-.23-.04-.47-.08-.7-.12-.46-.08-.92-.15-1.4-.22-.2-.03-.41-.05-.62-.08-.54-.07-1.07-.14-1.63-.19-.14-.01-.3-.02-.44-.04-.64-.06-1.28-.12-1.96-.16-.02,0-.04,0-.06,0-2.4-.16-5.01-.22-7.8-.19,0,0,0,0,0,0-20.67.21-51.63,5.53-86.6,15.26,0,0,0,.01,0,.02,0,8.19-6.64,14.83-14.83,14.83s-14.83-6.64-14.83-14.83,6.64-14.83,14.83-14.83c4.1,0,7.8,1.66,10.49,4.34,19.18-6.03,57.27-16.56,88.46-16.27-12.09-43.98-52.33-76.3-100.15-76.3-57.37,0-103.89,46.51-103.89,103.89s46.51,103.89,103.89,103.89c50.44,0,92.48-35.95,101.9-83.62,18.92-11.37,29.33-21.65,27.11-28.51Z"/>
  <g>
    <path class="cls-1" d="M345.76,172.39c-15.53,0-27.42-3.95-35.65-11.86-8.24-7.91-12.36-19.63-12.36-35.19s4.12-27.17,12.36-35.12c8.24-7.95,20.12-11.88,35.65-11.79l42.36.26v16.59h-41.07c-10.2,0-17.77,2.38-22.71,7.13-4.94,4.75-7.41,12.4-7.41,22.94s2.47,18.21,7.41,23c4.94,4.79,12.51,7.19,22.71,7.19h42.24v16.85h-43.54Z"/>
    <path class="cls-1" d="M397.53,141.41v-14.9h36.01v14.9h-36.01Z"/>
    <path class="cls-1" d="M443.78,172.39v-16.85l67.66.13c3.45,0,6.1-.88,7.94-2.66,1.84-1.77,2.77-4.64,2.77-8.62s-.92-6.85-2.77-8.62c-1.84-1.77-4.49-2.66-7.94-2.66h-42.13c-8.71,0-15.47-2.31-20.3-6.93-4.82-4.62-7.24-11.42-7.24-20.41s2.41-15.79,7.24-20.41c4.82-4.62,11.59-6.93,20.3-6.93h66.13v16.85l-64.13-.13c-3.37,0-6,.84-7.88,2.53-1.88,1.68-2.82,4.39-2.82,8.1s.94,6.42,2.82,8.1c1.88,1.68,4.51,2.53,7.88,2.53h42.12c8.71,0,15.47,2.36,20.3,7.06,4.83,4.71,7.24,11.69,7.24,20.93s-2.41,16.11-7.24,20.86c-4.82,4.75-11.59,7.13-20.3,7.13h-69.66Z"/>
    <path class="cls-1" d="M596.04,172.39c-15.53,0-27.42-3.95-35.65-11.86-8.24-7.91-12.36-19.63-12.36-35.19s4.12-27.17,12.36-35.12c8.24-7.95,20.12-11.88,35.65-11.79l42.36.26v16.59h-41.07c-10.2,0-17.77,2.38-22.71,7.13-4.94,4.75-7.41,12.4-7.41,22.94s2.47,18.21,7.41,23c4.94,4.79,12.51,7.19,22.71,7.19h42.24v16.85h-43.54Z"/>
    <path class="cls-1" d="M749.13,90.29c-8.24-7.91-20.12-11.86-35.65-11.86h-21.18c-15.53,0-27.42,3.95-35.65,11.86-8.24,7.91-12.36,19.59-12.36,35.06s4.12,27.28,12.36,35.19c8.24,7.91,19.85,11.86,34.83,11.86h22.59c15.14,0,26.83-3.95,35.06-11.86,8.24-7.91,12.36-19.63,12.36-35.19s-4.12-27.15-12.36-35.06ZM741.71,133.77c-1.26,7.6-4.29,13.13-9.12,16.59-4.83,3.46-11.63,5.18-20.42,5.18h-18.24c-8.94,0-15.85-1.73-20.71-5.18-4.86-3.45-7.92-8.98-9.18-16.59-1.35-7.67,0-16.85,0-16.85,1.25-7.52,4.31-13,9.18-16.46,4.86-3.45,11.65-5.18,20.36-5.18h18.59c8.71,0,15.49,1.73,20.36,5.18,4.86,3.46,7.92,8.94,9.18,16.46,0,0,.86,8.51,0,16.85Z"/>
    <path class="cls-1" d="M773.25,171.74v-92.66h70.48c8.71,0,15.47,2.42,20.3,7.26,4.82,4.84,7.24,12.18,7.24,22.03s-2.41,17.19-7.24,22.03c-4.83,4.84-11.59,7.26-20.3,7.26h-51.66v34.08h-18.83ZM841.5,95.93h-49.42v24.75l49.42.13c3.45,0,6.1-.95,7.94-2.85,1.84-1.9,2.77-5.1,2.77-9.59s-.92-7.8-2.77-9.65c-1.84-1.86-4.49-2.79-7.94-2.79Z"/>
    <path class="cls-1" d="M883.03,171.74v-92.66h92.25v16.85h-73.43v20.48h66.6v16.85h-66.6v21.64h73.43v16.85h-92.25Z"/>
  </g>
</svg>