<svg xmlns="http://www.w3.org/2000/svg" viewBox="0 0 352 288"><defs><style>.a{fill:#fefefe}.b{fill:#2f5173}.c{fill:#406389}.d{fill:#526d83}.e{fill:#7e90a2}.f{fill:#264463}.g{fill:#36587b}.h{fill:#c1551d}.i{fill:#b54b1a}.j{fill:#b04618}.k{fill:#2a4969}.l{fill:#1f3c5a}.m{fill:#ab4015}.n{fill:#f1d8b4}.o{fill:#cc5a1c}.p{fill:#d98044}.q{fill:#d76520}.r{fill:#ebbc89}.s{fill:#698097}.t{fill:#e17d68}.u{fill:#c0cbd1}.v{fill:#dee1e3}.w{fill:#f9f7f5}.x{fill:#dba386}.y{fill:#fcfcfc}.z{fill:#8ca2bb}.aa{fill:#fdfaf9}.ab{fill:#fdfcfc}.ac{fill:#fdfdfd}</style></defs><path d="M284.4 284.7H2.9q0-140.1-.1-280.2c0-1 .3-1.2 1.3-1.2h343.3c1 0 1.3.2 1.3 1.2q-.1 139.5 0 279c0 1-.3 1.2-1.3 1.2h-51.2c-1.1-.7-1.8-1.9-3.1-2.3a2.5 2.5 0 0 0-1.6-.6h-2c-2.3-.1-3.8 1.3-5.1 2.9Z" class="a"/><path d="M289.3 281.5a5.3 5.3 0 0 1 2.5.1l1.5.5a4.7 4.7 0 0 1 2.9 2.6h-4.7c-.5-.4-.2-1.3-.8-1.6a3.1 3.1 0 0 0-1.9 0 1.7 1.7 0 0 1-1.4-.2c-.4-.7.2-.8.6-1.1s.9 0 1.3-.3Z" class="b"/><path d="M291 282.8c1 .4.3 1.3.5 1.9h-4.9c.6-1.3 1.9-1.6 3.2-1.9a2.4 2.4 0 0 1 1.2 0Z" class="c"/><path d="M289.3 281.5c0 .4-.4.4-.8.5s-1 .1-1.1.8-1 1.4-1.7 1.9h-1.3a5.7 5.7 0 0 1 4.9-3.2Z" class="d"/><path d="M285.7 284.7a7.7 7.7 0 0 1 1.7-1.9c1.2.2 2.4-.7 3.6 0a8.7 8.7 0 0 0-4.4 1.9Z" class="e"/><path d="M163.5 242.4c.2 1.5-.5 2.9-.7 4.3s.1.4-.2.6a15.6 15.6 0 0 1-7.2 8.2 16.4 16.4 0 0 1-16.2 0c-3.8-1.9-5.9-5.3-7.4-9.1-.6-.4-.4-1-.4-1.5a1.3 1.3 0 0 0-.2-1.2 1.4 1.4 0 0 1 0-.9 1.9 1.9 0 0 0-.1-1.3 2.7 2.7 0 0 1 .2-1.3 6.1 6.1 0 0 0 .7-1.4c.4-.7.8-.9 1.5-.2a1.9 1.9 0 0 1 .1.8 18.3 18.3 0 0 0-.2 3.4l13.3-2.6c.8.1 1.1.6 1.3 1.3s1 1.8 2.3 2.1a22.9 22.9 0 0 0 6.9.4 7.1 7.1 0 0 0 3.3-1 3.8 3.8 0 0 0 1.4-3.8c-.2-1.1-.5-2.2.5-3.1s.9.8 1.2 1.4a2.3 2.3 0 0 1-.2 1.1c-.5 1.2.4 2.5.1 3.8Z" class="f"/><path d="M176.1 96c3.6-1 7.2-1.6 10.8-.5a4.2 4.2 0 0 1 1.8.8c-.5.5-1 .1-1.5 0a.8.8 0 0 0-.8.3c-.2.3 0 .6.3.8l.9.5a8.6 8.6 0 0 1 5.5 5.9 7.4 7.4 0 0 0 1.6 2.7 10.1 10.1 0 0 1-.7 3 51.6 51.6 0 0 0-7.9-.4c-.9 0-1.9.4-2.9.1s-.4-1.2-.1-1.7c1.2-2.7 1.3-5.6 1.7-8.4.1-.7.1-1.4-.9-1.4-5.6-.7-10.1 1-13 6.1-1 1.4-1.2 3.1-1.7 4.3a16.2 16.2 0 0 1 2.1-3.8c.8-.6 1.2-1.5 2.2-1.9a3.5 3.5 0 0 1 3 .1 1.7 1.7 0 0 1 1 1 11.5 11.5 0 0 0 3.7 5 .8.8 0 0 1 .3.9c-.2.6-.8.7-1.4.8a68.5 68.5 0 0 0-11.1 2.4c-.8.3-1.1-.2-1.1-.9s.3-1-.2-1.6-.4 1-.5 1.5.1 1.3-.6 1.6-.7-.7-.7-1.2a16.5 16.5 0 0 1 3.4-10.9l3-3.4.7-.4a6.1 6.1 0 0 0 2.2-1.3.8.8 0 0 1 .9 0Z" class="g"/><path d="M216.7 51c2.5-5 5.5-9.6 8.2-14.4s5.6-9.8 8.4-14.7c.4-.8.9-1.5 1.4-2.3s.3-1-.5-1.3a10.9 10.9 0 0 1-7-6.6 6.9 6.9 0 0 1-.7-3.5 10.7 10.7 0 0 1 2.5.3 8.6 8.6 0 0 0 2.4 6.3 7.7 7.7 0 0 0 7.5 1.9 21.2 21.2 0 0 0 6.2-3.1c-2.2.4-4.1.2-5.6-1.4a6 6 0 0 1-.9-1.3 3.1 3.1 0 0 0-2.8-2.2l-2.6-.5c-.4-.1-1 0-.8-.8a2.5 2.5 0 0 1 1.4-.6 38.4 38.4 0 0 1 10.7-.9c1.7.1 1.7.1 2-1.7a1.4 1.4 0 0 1 .2-.6c2.2-.1 2.2-.1 2.5 2.1s-.3 2.4.3 3.6.1.5 0 .8l-.2.3-.2.4c-1.5 2.9-1.4 2.9.9 5.3 4.8 4.9 9.9 9.5 14.7 14.4a1.2 1.2 0 0 1-.5 1.5c-.7 0-1-.4-1.4-.8-4.7-4.9-9.7-9.5-14.5-14.3a.8.8 0 0 1-.4-.4c-1.2-1.1-1.2-1.1-2.5 0a10.2 10.2 0 0 1-5 2.4l-1.4.3h-1.3a1.7 1.7 0 0 0-1.8 1C234 23.6 232 27 230 30.4s-4.3 7.5-6.5 11.3-3.8 6.1-5.2 9.5c-.5.4-1 .1-1.5 0a.4.4 0 0 1-.1-.2ZM231.9 212.2a3.4 3.4 0 0 0-2.2-.3 13.7 13.7 0 0 1-9.6-3.8 3.1 3.1 0 0 1-1.5-1 15.2 15.2 0 0 1-2.4-4.3l-.4-.9a8.1 8.1 0 0 1-.5-3.1c.4-.9 1-1.3 2-.6s.9 0 1.2.3c.3 3.7 2.1 6.7 4.4 9.5a7.7 7.7 0 0 0 8.1 2.6c1.6-.3 3.1-1.3 4.8-1.5a2.7 2.7 0 0 0 1.6-.6c-.2-.4-1.1-.2-1-.8a1.9 1.9 0 0 1 .9-1.2 9.1 9.1 0 0 0 2.4-2.4h-2.2a9.1 9.1 0 0 1-3.3-.3 4.3 4.3 0 0 1-3.5-3 2.8 2.8 0 0 0-2-1.8c-2.8-1-5.5-.3-8.2-.3-.5 0-1 .3-1.3-.4s.6-.8 1.2-.9c5.7-1.1 11.4-2.8 17.4-2.3h2.3c.7.1 1.1 0 1.3-.7s.5-2.4 2.1-2.3h.4l.4.2.3.2c.1.2.2.3.2.5a1.9 1.9 0 0 0 .2.7.4.4 0 0 0 .1.3 1.9 1.9 0 0 1-.1.8 41 41 0 0 1-.2 6.1.8.8 0 0 1-.3.8c-1.1 1.9-2 4-3.7 5.6a15.4 15.4 0 0 1-6.1 3.7 2.5 2.5 0 0 0-1.2.8 1.4 1.4 0 0 1-1.6.4Z" class="h"/><path d="M314.4 219.3a13.2 13.2 0 0 1 5.4 5.8 11.7 11.7 0 0 1 .5 1.1.8.8 0 0 1 .3.8v1.4a1.9 1.9 0 0 1 .2.8v.8c.8 1.3-.3 2.5-.3 3.7l-.2.5c0 .1-.1.2-.1.3 0 2-1.2 3.5-2.2 5l-.9 1.2c-.2.4-.2 1-.9 1.1a23.9 23.9 0 0 1-7.1 3.1c-6.7 1.2-14.2-3.5-15.3-9.9a.8.8 0 0 0-.2-.5 9.9 9.9 0 0 0-.2-1.7c.6-.9 1.3-.5 2-.1a25 25 0 0 1 1.5 3.8c.6 2.2 2.2 3.5 3.8 4.9s.6.3.9.6a5.1 5.1 0 0 0 6.6.9c2.3-1.3 4.8-2.2 6.9-4 .3-.3.7-.6.6-1s-.8-.3-1.1-.3a12.5 12.5 0 0 1-5.1-1 3.1 3.1 0 0 1-1.8-1.9 13.4 13.4 0 0 0-.7-1.8 1.7 1.7 0 0 0-1.6-1.3c-.6 0-1.3.1-1.6-.7s.9-.9 1.5-1.1l1.9-.3a37.2 37.2 0 0 1 8.8-.3c1.1.1 1.2-.2 1.1-1.2-.2-2.7-1.9-4.6-3.6-6.6l-.8-.6c-.4-.4-.9-.9-.6-1.5s1-.2 1.5-.3h.2Z" class="i"/><path d="M291 171a2.2 2.2 0 0 1-1.4-.1h-.4a5.7 5.7 0 0 1-1.8-.3h-.3l-.7-.3-1.4-.5a21.3 21.3 0 0 1-4.7-4.3 2.2 2.2 0 0 1-.3-1.4 26.1 26.1 0 0 0-.6-2.7 1.3 1.3 0 0 1 .6-1.5 9.9 9.9 0 0 1 4.7-1.7l.9-.3h1a14.2 14.2 0 0 0 2.9.2c1.5.1 2.9.6 3.5 2.2s2.4 3.1 5.7 3.2a8.3 8.3 0 0 1 2.2.1c.5 0 1 0 1.2.6s-.2 1-.6 1.3a19 19 0 0 1-3.7 2.6 3.3 3.3 0 0 0-1.7 1.8c-.3 1.1-1.4 1-2.1 1.3a1.4 1.4 0 0 1-1.1.1Z" class="j"/><path d="M313.8 219c-.3.7-.9.1-1.3.2a1.9 1.9 0 0 0 .9 1.6 11.2 11.2 0 0 1 4.4 8c.1.6.1 1.1-.7 1a35 35 0 0 0-9.7 0 .8.8 0 0 1-.1-.8c1.1-2.2 1.1-4.7 1.8-7.1.2-.7.4-1.4-.5-1.8-3.3-.9-6.4-.5-9 1.8a9.7 9.7 0 0 0-3.2 4.7 26.7 26.7 0 0 1-.9 2.6 14.3 14.3 0 0 1 3.8-5.6 1.6 1.6 0 0 1 1.2-.7 2.7 2.7 0 0 1 1.1 1 41.4 41.4 0 0 0 3.8 5.5c.2.2.4.4.1.7s-1.2.1-1.4.8l-.8.4a21.3 21.3 0 0 0-6.6 1.6 1.1 1.1 0 0 1-1.1-.1c-.6.1-1.3-.5-2 0a12.9 12.9 0 0 1 3.2-10.8 14.1 14.1 0 0 1 16.5-3.4Z" class="h"/><path d="M289.4 40.4a15.6 15.6 0 0 1-4.5 6.8l-.8 1-1.2.4-.8.2h-.3a23.5 23.5 0 0 1-3.5 1.1l-.8-.2a.6.6 0 0 1-.1-.4c.2-1 1.1-1.2 1.9-1.3s3.5-2 4.8-3.6.3-.7-.3-.8a15.5 15.5 0 0 1-3.6-1.3 5 5 0 0 1-3.2-2.8 2.4 2.4 0 0 0-1.7-1.2 15.4 15.4 0 0 0-4.3-.5c-.6 0-1.4.1-1.3-1s1.2-.6 1.8-.7a25.7 25.7 0 0 0 3.8-.8l1.8-.4a24.5 24.5 0 0 1 8.1 0c.6.2 1.3.7.9-.7a31.6 31.6 0 0 1-.3-3.2c-.1-1 .6-1.5 1.3-1s1.9 1.1 1.8 2.5.3-.1.4.1h.1a15.3 15.3 0 0 1 .3 6.4v.5a1.5 1.5 0 0 1-.3.9Z" class="k"/><path d="M206.8 69.7a37.1 37.1 0 0 1-2.7-2.9 3.6 3.6 0 0 1-.8-1.9 6.6 6.6 0 0 1-.5-2.8c0-.4.3-1 .9-.6s1.1.1 1.6 0a51.9 51.9 0 0 1 6.4-1.3 2.8 2.8 0 0 1 2.3 2.1c.4 1.6 1.8 1.8 3.1 2.1a10.7 10.7 0 0 0 3.1 0c1.2-.1 1.4.2.9 1.2a6.5 6.5 0 0 1-3.5 3.4 1.3 1.3 0 0 0-.9.6 2.2 2.2 0 0 1-1.9 1.1c-.5 0-.7.5-1 .8a3.1 3.1 0 0 1-2.5 0c-.3-.2-.5-.5-.9-.5h-1.2a4.2 4.2 0 0 1-1.6-.4c-.4-.3-.7-.5-.8-.9Z" class="l"/><path d="M211.9 60.4c-2.5.7-5.2.8-7.6 2s-.5-.7-1-.7.3 2.2 0 3.2a6.3 6.3 0 0 1-.9-4 24.8 24.8 0 0 1 .3-2.7 1.6 1.6 0 0 1 .3-.9 12.9 12.9 0 0 1 3.9-4.8 10.7 10.7 0 0 1 9.8-1.5h-.1a1.4 1.4 0 0 0 .9 1.4 10.6 10.6 0 0 1 3.8 4.8 3.8 3.8 0 0 1 .3 1.8c0 1-.5 1.5-1.6 1.3s-3.1 0-4.7-.1a3.7 3.7 0 0 1-1.8-.2c-.4-.5-.1-1 0-1.5s.5-2.9.8-4.4a1 1 0 0 0-.2-1.3 6.9 6.9 0 0 0-7.9 3c.9-.3 1.5-1.1 2.4-1.2 1.4 1.8 2.9 3.6 4.5 5.3-.2.6-.8.5-1.2.5Z" class="g"/><path d="M329.2 91.5a2.9 2.9 0 0 1 .4 1.6 11.4 11.4 0 0 0 0 3.2 10.9 10.9 0 0 1-12.7 9.3c-4.9-1-7.7-4-9-8.7-.1-.2-.2-.3-.2-.5l-.3-1a2.6 2.6 0 0 1 .2-1.5c1.3-.6 1.6-.4 1.7 1.3.5 0 1.1-.2 1.5.3-.8 2.1.3 3.7 1.5 5.3a9.7 9.7 0 0 0 6 3.8 1.5 1.5 0 0 0 1.3-.1 30 30 0 0 0 4.1-2.5c.2-.1.5-.2.4-.6s-.4-.2-.7-.3a4.4 4.4 0 0 1-3.6-2.2c-.9-1.9-2.5-2.5-4.4-2.7a5.8 5.8 0 0 1-1.4-.3c-.5-.2-.9-.5-.6-1.1a11.7 11.7 0 0 1 5.2-1.2c1.9 2 4.3 1.2 6.5.9a3.3 3.3 0 0 0 2.4-1.6 2.9 2.9 0 0 1 1.7-1.4Z" class="f"/><path d="M39 155.8c-1.3-2.8-.9-5.5.3-8.2s4.9-5.6 9.2-5.4a1.3 1.3 0 0 1 .2 1.2c-.6.8-1.3.5-2 .5-2.2.1-3.7 1.3-5.1 3.1 1-.2 1.3-1.3 2.2-1s1.8 2.3 2.9 3.2.7.9 1.3.7.5-.8.6-1.2.8-3.3 1-5l.4-.3c2.8.2 6.1 3.9 5.9 6.7a1.1 1.1 0 0 1-1 1.2h-1.3a15.1 15.1 0 0 0-7.3.5c-1.8.3-3.6.9-5.4 1.3s-1.7.7-1.5 2a.9.9 0 0 1-.4.7Z" class="g"/><path d="M294 170.9c1.1-.5 1.6-1.5 2.3-2.4s2.4-1.7 3.7-2.5 2-1.1 1.8-2-1.7-.5-2.6-.4a11.5 11.5 0 0 1-4.5-.7 3.2 3.2 0 0 1-1.8-2.3c-.6-1.9-2-2.4-3.8-2.5s-1.7.3-2.5-.2.6-.6.9-.7a32 32 0 0 0 3.3-.7 2.2 2.2 0 0 1 1.6-.2 4.3 4.3 0 0 1 1 .9c1.4 1.4 3 1.9 4.8.9s2.7-.5 4.1-.8a1.5 1.5 0 0 1 1.1.4 6.6 6.6 0 0 0 2.2 1.5 1.2 1.2 0 0 1 .2 1 1 1 0 0 1-.6 1 13.6 13.6 0 0 1-5 7.3 1.5 1.5 0 0 1-1.7 1.2 12.1 12.1 0 0 1-4.5 1.2Z" class="i"/><path d="m252.5 278.7-.3-.2c-.5-.6-.8-1.4-1.3-2a1.5 1.5 0 0 1-.4-1.1c0-2 .6-2.8 2.5-3s3.6-.9 5.4-.8a3 3 0 0 1 1.7 1.8c.6 1.6 1.6 2.8 3.5 2.8l1.3.2c.9.1 1 .5.7 1.4-.8 2.5-2.6 3.3-4.9 3.5a2 2 0 0 0-1.1.3 4.1 4.1 0 0 1-1.9 0c-.9-.4-1.9-.5-2.8-1s-.2 0-.2-.1-.6-.2-.8-.5Z" class="m"/><path d="M54.5 218.5c-2.8 1.6-5.8 2.2-8.9.9a2.9 2.9 0 0 1 2.7-.3c2.3.3 3.8-1 5.4-2.1s.7-.5.6-.9-.5-.5-.9-.6l-1.6-.3c-.8-.3-1.7-.7-1.9-1.6a39 39 0 0 0-1.9-3.5c.1-.6.6-.8 1-1.1h.8a13.3 13.3 0 0 1 4 .2 1.8 1.8 0 0 0 2-.7c.4-.7 0-1.4-.5-2l-1.2-1.6a4.4 4.4 0 0 0-3.3-2c-.6-.5-1.4-.3-2.1-.3a4.5 4.5 0 0 1-1.6-.3.8.8 0 0 1 .1-1.2 1.3 1.3 0 0 1 .8-.3 3.9 3.9 0 0 0 2.6 0l.4-.2h.7l.7.5.4.2.7.2.8.3 1 .8a9 9 0 0 1 2.8 3.6.8.8 0 0 0 .2.5c.2.2.4.3.5.6a1.9 1.9 0 0 1 .2.8 9 9 0 0 1-.8 6.8l-.3.5-.2.3a2 2 0 0 1-.4.8 11 11 0 0 0-1.5 1.6l-.6.4Z" class="k"/><path d="M60 117.2c0-.7.4-.9.9-1.1l29.7-11.9c7.5-3 14.9-5.9 22.3-9l18.4-7.4c7.9-3.1 15.7-6.4 23.6-9.6l2.2-.8c.3.1.4.3.5.6a.5.5 0 0 1-.2.4c-2.8 1.5-5.9 2.5-8.8 3.7l-13.2 5.3-13.1 5.3-13 5.2c-5.7 2.2-11.3 4.7-17 6.9-3.9 1.4-7.6 3.1-11.5 4.6l-16.1 6.5c-1.4.5-2.6 1.5-4.2 1.6s-.4-.1-.5-.3Z" class="n"/><path d="M48.2 210a8.8 8.8 0 0 1 1.8 3.3c.3 1.1 1.4 1.5 2.6 1.7s2.2-.1 2.3 1-1.2 1.4-1.9 2h-.1c-2 2-4.5 1.3-6.8 1.4h-.5a3.5 3.5 0 0 1-2.3-1.2c-.2-.1-.3-.5-.6-.4a4.3 4.3 0 0 1-1.2-1.1c.1-.4-.3-.4-.4-.6v-.2c-.4-1-.9-1.9-1.3-2.9v-.5c.4-.7 1.1-.9 1.8-1.3s3.9-1.1 5.9-1.5a1.1 1.1 0 0 1 .7.3Z" class="l"/><path d="M48.5 143.5v-1.3a.8.8 0 0 1 .8-.1h.9a1.6 1.6 0 0 1 1.3.4 1.2 1.2 0 0 0 .8.4 3.8 3.8 0 0 1 2.4 1.5 9.5 9.5 0 0 0 1.2 1.6c2.4 2.3 2.5 5.2 2 8.2a.8.8 0 0 0-.1.4 6 6 0 0 0-.6 1.1 10.8 10.8 0 0 1-4.4 4.8l-.7.2a3.9 3.9 0 0 1-1.4.8h-.5c-.3.1-.6.2-.9-.1h-1.9a6.4 6.4 0 0 1-4.2-1.3c.4-.5.8-.2 1.2-.1 2 .4 3.9.7 5.5-1.1s1.2-.7 1.8-1 1-.2 1.2-.8-.8-.3-1.2-.5a5.2 5.2 0 0 1-3.6-3.3 2.1 2.1 0 0 0-1-1.1c-.4-.2-1-.3-.8-1a11.7 11.7 0 0 1 6.9-.6c2.3.4 2.7.1 2.1-2.1a7.1 7.1 0 0 0-5.6-5.1c-.5.5-.9.6-1.2.1Z" class="k"/><path d="M46.3 151.5c.1.6.6.6 1.1.7s1.1.6 1.1 1.5 2.2 2.8 4 3.1 1-.3 1.1.4-.5.9-1 1a14.8 14.8 0 0 0-3.8 2.3c-1.2.9-2.8.5-4.3.2s-.8-.4-1.3-.3-3.5-2.4-4.2-4.6a1.7 1.7 0 0 0 0-1 1.2 1.2 0 0 1 .9-1.8c2.1-.4 4.1-1.4 6.4-1.5Z" class="l"/><path d="M69.1 254a7.6 7.6 0 0 1 3.6-8l1.4-.8a1.5 1.5 0 0 1 .7-.5h.6c.4.1.6-.1.9-.3h1.3c.4.1.8.4 1.2.3a1.6 1.6 0 0 1 1.2.3l.6.5a2.7 2.7 0 0 1 .8.7 31.2 31.2 0 0 1 1.8 4.2c.5 1.6 0 2-1.6 1.9a11.8 11.8 0 0 0-5.3.2 31.3 31.3 0 0 1-5.3 1.2c-.7-.4-1.2.7-1.9.3Z" class="o"/><path d="M321.8 176.9c-.1-1.2.7-2.1 1.2-3.1s2.8-4.9 2.3-8l-.6-4.4a1.1 1.1 0 0 1-.3-.8 107.1 107.1 0 0 1-1.4-11.2c-.1-.9-.4-.9-1-.6a53 53 0 0 0-4.7 2.8l-8.9 5c-.9.5-1.9 1-2.2 2.1s-.4.5-.7.3-.2-1.6-.1-2.5c3.8-2.2 7.6-4.4 11.5-6.5l2.3-1.5a38.4 38.4 0 0 1 3.5-1.8c0-.5-.1-1-.1-1.4-1-6.9-1.3-13.7-2.3-20.6a5 5 0 0 1 .1-2.7c.2-.3.5-.3.9-.3.4 3.7.7 7.5 1.3 11.1s.3 7.9 1.2 11.7c.1.6-.3 1.2.2 1.7s.8.9.6 1.6c.1 3.1.5 6.2.9 9.3a10.8 10.8 0 0 1 .1 3.1 1.5 1.5 0 0 0 .2 1.3 23.6 23.6 0 0 1 .7 4.4c1-1.2 1.1-3.2 2.6-4.3a.6.6 0 0 1 .6.1 31 31 0 0 1-2.8 5.8 3.7 3.7 0 0 0-.2 3.4c.4.6-.1 1.1-.1 1.7s.5 2.4-.1 3.7c-.8-1.7 0-3.5-1-5.4l-2.9 5.9a.6.6 0 0 1-.5.2Z" class="n"/><path d="M329.4 178.9c.7-.2.9.3 1.2.7 3.8 3.8 3.3 9.8-1 13.4a8.8 8.8 0 0 1-14.3-4.7 2.5 2.5 0 0 0 .1-.9c.1-1.6.2-1.7 1.8-1.1s.1.6-.1.8a1.5 1.5 0 0 0-.3 1.9c1.1 2.4 2.6 4.5 5.5 4.9a5.8 5.8 0 0 0 2.9-.6 6.8 6.8 0 0 1 2.4-.8 1.1 1.1 0 0 0 1.1-1.2c.1-.7-.6-.6-1.1-.7a3.5 3.5 0 0 1-3.1-2.5c-.3-.9-.7-1.8-1-2.8a.8.8 0 0 1 .2-.4 1.8 1.8 0 0 1 1-.2h5.2c1.5-.1 1.8-.6 1-1.8a17.7 17.7 0 0 0-1.6-2.2c-.4-.6-.7-1.2.1-1.8Z" class="i"/><path d="M266.6 105.7a70.9 70.9 0 0 0 3.8 7.2l7.2 12.8a4 4 0 0 0 2.1 2.3c.1.3-.1.6.2.9l.2.3.2.3c2.4 4.5 4.7 9 7.3 13.3a4.4 4.4 0 0 1 .8 2c-.1.7-.6.8-1.2.8-1.4-2.3-2.7-4.6-4-7s-3.4-5.8-4.9-8.8a4.9 4.9 0 0 0-2.7-2.2 1.8 1.8 0 0 0-.7-.5c-.8-.5-1.9-.2-2.5-1.2a.6.6 0 0 1 .1-.7c.6-.4 1.1 0 1.6.2a4 4 0 0 0 1.8.7c.3-.5-.1-.8-.3-1.1-3.2-6-6.6-12-10-17.9l-.6-.9-.3-.5c-1.7-3.6-3.8-7-5.6-10.5a20.8 20.8 0 0 1-2.4-4.7c.1-.7.4-1.2 1.3-1.1 1.6 3.1 3.4 6.1 5 9.3l1.8 3.2c.5 1 1.1 2 1.7 3a1.1 1.1 0 0 1 .1.8Z" class="d"/><path d="M318.7 93.9a18.6 18.6 0 0 0-5.2 1.1c-.8.7-1.7 1.2-2.8.5s-.6-.2-.9-.1-1.1.4-.9-.8-.7-.6-1.1-.7-.2-.9-.2-1.3.1-.6.1-.8l.3-1a2.7 2.7 0 0 0-.9-2.7 22.7 22.7 0 0 1-2.6-3.5l-.3-.6-.2-.2-.3-.3-.4-.5-.4-.5a.8.8 0 0 1-.4-.4c0-.2-.1-.3-.1-.4a.4.4 0 0 1-.1-.3l-.3-.3-.3-.4-.3-.3a.2.2 0 0 0-.2-.2 1 1 0 0 0-.4-.5 1.4 1.4 0 0 1-.2-.7c0-.3.1-.6.5-.6h.3l.6.4a2.4 2.4 0 0 1 .9 1.3l.2.3c0 .1.1.2.1.3l.3.3.2.2.3.4c0 .1.1.1.2.2l.2.2.3.5.3.3c.3.3.7.6.8 1a1.8 1.8 0 0 0 .5.7c.8.9 1.4 2 2.3 2.9s1 .8 1.7 0 .6-1.4 1.2-1.8a1 1 0 0 1 .9-.2l2.7-1.2c.3-.2.5-.4.9-.2a10.2 10.2 0 0 1 3.5-.2c.2.9-.5.7-1 .8a2.6 2.6 0 0 0-1.8.7 8.5 8.5 0 0 1-2.5 1.3 8.1 8.1 0 0 0-3.3 3.3c1.4-.6 2-2.1 3.5-2.2s.9 1.8 1.4 2.6a4.4 4.4 0 0 0 3.3 2.9c.2.1.2.2.2.3s-.4.2-.6.4Z" class="g"/><path d="m218.8 207 1.3 1.1a1.7 1.7 0 0 0-1.4.1l-16.2 8.9-20.4 11.2c-4.7 2.5-9.4 5.3-14.1 7.9l-4.4 2.4c-.1.1-.2.1-.3-.1v-.9a5 5 0 0 1 2.2-1.6c5.2-3 10.5-6 15.9-8.9l12.1-6.6.8-.5c4.8-2.3 9.2-5.1 13.8-7.5l9.2-5a4.4 4.4 0 0 1 1.5-.5Z" class="p"/><path d="M228.9 8.5a2.1 2.1 0 0 1-2.4-.3c-.4-1.4.2-2.8.5-4.1a.9.9 0 0 1 1-.6h18.7c.1.4.1.7.2 1.1s-.2 1.7-1.7 1.6a33.5 33.5 0 0 0-10 .7 6.4 6.4 0 0 0-2.7.7 4 4 0 0 1-3.6.9Z" class="q"/><path d="M259.6 281.6c.2-.7.7-.8 1.3-.7s2.4-.8 3.5-1.3-.1-1.1.4-1.5-.1-1.5-.8-1.5a4.2 4.2 0 0 1-4.1-2.6 6.1 6.1 0 0 0-1.3-2.2.3.3 0 0 1 0-.4 3.4 3.4 0 0 1 1.4-.5h4.9c1.3 0 1.7-.5 1.2-1.6a9.9 9.9 0 0 1-1-4.1 9.2 9.2 0 0 1 3.1 9.8 9 9 0 0 1-8.6 6.6ZM69.1 254c.6 0 .8-1.2 1.6-.6s-.2 1.9.3 2.9a4.9 4.9 0 0 0 3.1 3l2 .5c.7.2 1.3.3 1.8-.5s1.3-.6 1.9-1 .9-.8.1-1.3a7.6 7.6 0 0 1-3.7-4.7c1.7-1 3.6-.5 5.4-.4s1.6.1 1.2-1.2-1.1-3.1-1.7-4.7h.6l.4.5.2.3c.4.7 1.1 1.3 1.6 2l.2.3.6.7.3 1.2a1.7 1.7 0 0 1-.2 1.2v2.2a1.4 1.4 0 0 1-.2.6 7.7 7.7 0 0 1-7 5.8 8.1 8.1 0 0 1-7.8-4.3 5 5 0 0 1-.7-2.5Z" class="i"/><path d="m49 123.1-.5-.2a17.2 17.2 0 0 0-2.1-.7h-.1a13.7 13.7 0 0 0-2.3-1.9l-.2-.3a1.9 1.9 0 0 1-.5-1c-.6-1.6-.2-2.6 1.5-3.1s2.4-.5 3.6-.9a2 2 0 0 1 1.7-.1 8 8 0 0 0 4.5 4.5c.9.4.9 1 0 1.6a10.6 10.6 0 0 1-4.8 2.2 1.1 1.1 0 0 1-.8-.1Z" class="l"/><path d="M244.5 201.8a.8.8 0 0 1 .3-.8c3.4 1.1 6.6 2.8 9.9 4.2l16.1 7.2c4.9 2.3 9.8 4.6 14.8 6.7 2.6 1.1 5.1 2.6 7.9 3.6.4.1 1 .3.8.8s-.7.2-1 0c-2.7-1.4-5.6-2.4-8.4-3.6a130.3 130.3 0 0 0-12.1-5.3 52.9 52.9 0 0 1-5.4-2.5c-4.2-1.9-8.2-3.9-12.3-5.6s-7.1-3.3-10.6-4.7Z" class="n"/><path d="M196.5 258.1a105.2 105.2 0 0 0-10.8-3.6l-12.7-3.9c-1-.4-2.3-.2-3.2-1.2s-.1-.3.1-.4a80.1 80.1 0 0 1 8.4 2.3l13.2 4.1 21.6 6.6 11.9 3.5c.3.3.3.6 0 .8l-1.6-.4-.6-.3c-5.4-1.3-10.6-3.1-15.8-4.6-3.5-1-6.9-2.3-10.5-2.9Z" class="r"/><path d="M60 117.2h.1c3.3.7 6.1 2.5 9.1 3.7l16.4 7.1 7.1 3.2a9.1 9.1 0 0 1-1.4 4.2c-1.4-.5-2.7.1-4 .6s-4.7 1.3-7.2 2h-.6a.7.7 0 0 1-.2-.6c.1-.6.6-.7 1.1-.9 2.8-.7 5.2-2.4 8.2-2.6h.4c.5-.4 1.4-.5 1.4-1.2s-.8-.9-1.4-1.1l-20.2-8.9c-3.4-1.5-6.8-3.1-10.3-4.5a2.6 2.6 0 0 1-1.1-.7.8.8 0 0 1 .1-.8Z" class="e"/><path d="M279.5 129c-.5-.4-.2-.7.2-1 3.8 1.3 7.5 2.9 11.3 4.5 5.3 2.3 10.8 4.4 16.1 6.9h.6a2.5 2.5 0 0 1 1.2.1c4.3 1.6 8.5 3.6 12.8 5.2.4.1 1 .3 1.1.9s.4.7.3 1.2-1 .1-1.4-.1c-3.9-1.8-8-3.3-11.9-5.1l-2.3-.6-1.4-.8-12.8-5.2c-4-1.8-8.2-3.3-12.3-5.1a2.7 2.7 0 0 1-1-.6Z" class="s"/><path d="m289.3 32.7-.6.4c-.2.1-.4.5-.6.2s-.1-.5.2-.6.5-.7.1-1l-1.1-1.1a.7.7 0 0 0-.9-.3.5.5 0 0 0-.3.9c.5 1.1 0 2.4.7 3.5a1.1 1.1 0 0 1-.1.8.8.8 0 0 1-1.2-.1c-.8-1.9-2-3.6-2.8-5.5s-1.6-3.2-3.6-3.6l-.8-.2a16.3 16.3 0 0 0-4.4-.1c-.5-.1-.9.1-1.4-.1s.6-1.6 1.4-1.9a10.6 10.6 0 0 1 4.7-.3h.8a6.6 6.6 0 0 1 2 .6 12.2 12.2 0 0 1 7.9 8.4Z" class="b"/><path d="M57.5 116.5v.6a5.3 5.3 0 0 1-1.2 3 8.1 8.1 0 0 1-6.1 3.4c-.2-.1-.4-.2-.4-.4s3-1 4.2-2.1 1-.4 1-1-.7-.2-1.1-.4-3.6-2.1-3.8-4.5l.3-.3a8.1 8.1 0 0 1 2.2-.1 1.9 1.9 0 0 0 1.8-1c.4-.7-.1-1.2-.5-1.7a3.6 3.6 0 0 0-2.4-1.6l-.4-.2a.5.5 0 0 1-.4-.2l-.2-.3c-.1-.4-.2-.7.2-1a6.9 6.9 0 0 1 6.5 6.3c.1.5-.1 1.1.3 1.5ZM316.5 85.4c0-1.1.8-1 1.5-1.1s1.2.3 1.5-.5h1.1l.8.3h.6l.5.2a10 10 0 0 1 6.7 7.1c-1.5 1.6-2.6 3.9-5.4 3.5l-.9.2c-1.6.2-3.2.2-4.2-1.3a.5.5 0 0 1 .5-.3c.6-.5 1.2-.3 1.9-.3h3.7c1.1 0 1.7-.9 1.1-1.8a15.3 15.3 0 0 0-2.6-4 3.9 3.9 0 0 0-2.7-1.5h-1.1c-1-.2-2.1.2-3-.5Z" class="k"/><path d="M320.4 227.1a2.8 2.8 0 0 0-.1-.9 115.4 115.4 0 0 0 9.6-7.3l14.7-11.3a23.6 23.6 0 0 1 3.6-2.6c.5.9-.3 1.3-.8 1.7-2.8 2.3-5.7 4.5-8.6 6.7s-8.3 6.5-12.5 9.6l-5.5 4.1Z" class="s"/><path d="M241 234.2c-2.2-.3-4.3-.8-5-3.2a1.5 1.5 0 0 1 .2-1.9 7.6 7.6 0 0 1 3.3-.8 12.4 12.4 0 0 0 4.3-.5c.9-.4 1.5.1 1.5 1.1a4.3 4.3 0 0 1-.5 2.5 1.1 1.1 0 0 1-.5.9l-.3.2c-.3.2-.2.5-.3.7s-.1.4-.3.5a7.5 7.5 0 0 0-1.3.6.7.7 0 0 1-1.1-.1Z" class="j"/><path d="M265.1 265.2c1 1.3.5 3.1 1.6 4.5s-.5 1.6-1.5 1.6h-5.3a2.1 2.1 0 0 1-.2-1.7c.1-1 .5-1.9.6-2.9s.4-1.1-.1-1.6-1 0-1.4-.3-1.2-.8-.6-1.7a9.1 9.1 0 0 1 4.8.8 2.9 2.9 0 0 0 1.2.7h.1a.5.5 0 0 0 .4.2h-.1c.1.2.2.3.4.3Z" class="o"/><path d="m266.6 105.7-.3-.4c.2-.8.9-.8 1.5-.9l27-6.4 10.7-2.6a4 4 0 0 1 1.9-.1l.3.3a.6.6 0 0 1 .1.7c-.1.2-.2.3-.3 0l-15.7 3.7-21.8 5.2a9.7 9.7 0 0 1-3.4.5Z" class="t"/><path d="M240.1 272.1v-1.7c0-.3 0-.6.4-.7 2.2-2.5 5.5-2.2 6.6.5a3.6 3.6 0 0 1-2 4.4 3.4 3.4 0 0 1-4.7-1.9c-.1-.2-.3-.4-.3-.6Z" class="h"/><path d="M312.4 85.4a.9.9 0 0 1-.7.3c-.9.1-1.1-.6-1.4-1.1l-6.2-8.5L291.7 59l-7.2-9.9a2.2 2.2 0 0 1-.5-1.2 1.6 1.6 0 0 1 .9-.7 1.3 1.3 0 0 0 .3 1c3.7 5 7.4 9.9 11 14.9l11 15.1Z" class="u"/><path d="M316.4 241.8c.3-.4.3-.9.9-1.1a1.6 1.6 0 0 0 .6 1.3l10.9 9.3 11.5 9.9 7.7 7c.4.4.5.9.2 1.2s-.6-.2-.9-.4l-15.5-13.9c-3.4-3-6.7-6.1-10.3-8.9a53.7 53.7 0 0 0-5.1-4.4Z" class="n"/><path d="M161.4 43.8H160a.7.7 0 0 1-.6-.1c-2.4-.8-3.2-1.9-3.1-4.2a4.2 4.2 0 0 1 3.4-4.1 3.9 3.9 0 0 1 4.5 1.7 7 7 0 0 1 .7 3.8c0 .3.1.7-.4.7a6.3 6.3 0 0 1-2.3 2c-.3.2-.5.6-.8.2Z" class="g"/><path d="m206.8 69.7.6.4c.4.5.1.9-.1 1.3-4.8 7.7-9.5 15.5-14.4 23.2a11.6 11.6 0 0 1-1.8 2.7 1.2 1.2 0 0 1-1.2-.3c-.1-.2-.1-.3 0-.4l16-25.7a9.4 9.4 0 0 1 .9-1.2Z" class="o"/><path d="M48.2 210a20.3 20.3 0 0 0-8.6 2.5 8.1 8.1 0 0 1 0-3.8v-.7a10.4 10.4 0 0 0 .6-1.6c-.1-.4.2-.6.4-.9a.9.9 0 0 1 1.2 0c.3.6.7.4 1.2.1s.8-1 1.5-1 1.6 1.1 2.2 1.8a28.8 28.8 0 0 1 2.2 2.7c0 .5-.5.6-.7.9Z" class="g"/><path d="M329.4 178.9a1.2 1.2 0 0 0 .2 1.6 18.5 18.5 0 0 1 1.9 2.7c.7 1 .3 1.8-1 1.8h-5.8c-.6-1 0-2.1.2-3.1s.4-1.6.5-2.4.1-.9-.6-1a3.2 3.2 0 0 1-1.7-.2 1.4 1.4 0 0 1-.3-1.1l.3-.4a2.9 2.9 0 0 1 1.6.1 10.8 10.8 0 0 1 3.5 1h.1l.3.3h.3l.2.3Z" class="o"/><path d="m190 96.8.8.4a.8.8 0 0 1 .7 0 17.9 17.9 0 0 1 6.2 7.9 1.1 1.1 0 0 1 0 .8c-1 .5-2.2.1-3.2.6s-1.2-1-1.4-1.8a9.7 9.7 0 0 0-4-5.7c-.8-.6-1.7-.6-2.4-1.1s-1.1-.6-.7-1.6 1-.3 1.5-.2.7.3 1.2.2h.1c.2.6.6.7 1.2.5Z" class="b"/><path d="M164.5 41.6a.7.7 0 0 1 .4-.7c2.1.1 3.8 1.3 5.7 2.1l13.4 5.9 17.1 7.9a3.2 3.2 0 0 0 1.9.5c0 .4.1.7-.3.9a80.2 80.2 0 0 1-8.5-3.6l-7.7-3.5q-7.8-3.6-15.6-6.9c-2.1-1-4.1-2.2-6.4-2.6Z" class="u"/><path d="M254.3 264.7a3.6 3.6 0 0 0-.6-2.3c-3.7-8.4-7.7-16.6-11.2-25a1.9 1.9 0 0 1-.5-1l-.2-.3v-.5c.8-.4 1.1.3 1.4.8s.5 1.6 1.2 2.1c3.4 8 7.2 15.9 10.7 23.9l.8 1.4a1.3 1.3 0 0 1-1.6.9Z" class="p"/><path d="M258.6 271.5v.3l-5.9 1c-1.2.2-1.9.7-1.9 2.1s-.1.4-.3.5c-1.1-2.4-.6-4.6.4-6.9.1-.1.2-.2.2-.3a1.1 1.1 0 0 1 1.1-.1.8.8 0 0 1 .2.8c-.2.4-.6.7-.5 1.3s.1-.4.2-.6.8-1.6 1.8-1.9 2.7-.1 3.4 1.8 1.3 1.1 1.3 2Z" class="o"/><path d="M50.7 108.7v1a1.1 1.1 0 0 1-1.3.4 5.1 5.1 0 0 0-4 1.7c.3 0 .5-.3.8-.4s.6-.4 1-.2a1 1 0 0 1 .4 1c0 1.1 0 2.1 1 2.8a.5.5 0 0 1-.1.3 9.2 9.2 0 0 1-2.7.8c-2.6.5-2.9 1-2.1 3.4a1.1 1.1 0 0 0 .1.5c-3-3.7-.5-10.5 4.2-11.3.9-.1 1.8-.5 2.7 0Z" class="g"/><path d="M320.7 233.7c-.3-1.3.6-2.4.3-3.7a13.7 13.7 0 0 0 4.8 1.3l13.9 2.5c2.1.3 4.2 1 6.4 1.1a3 3 0 0 1 2.1 1.3c-7.2-1-14.3-2.7-21.4-3.8l-4.6-.8c-.7-.2-.9.1-1.1.7s.1 1.1-.4 1.4Z" class="t"/><path d="M260.8 263.2H258a.8.8 0 0 1-.8.1 36.4 36.4 0 0 1-3.2-6.2c-3-6.3-5.9-12.7-9-19a12.1 12.1 0 0 1-.5-1.4c-.3-1.2-1.2-2.1-1.2-3.3l.2-.4c.1-.1.2-.4.5-.3 3.3 7.3 6.7 14.6 10 21.8l3.4 6.9a1.8 1.8 0 0 0 2.2 1.3 1 1 0 0 1 1.2.5Z" class="r"/><path d="M316 84c-.3.1-.6.3-.9.2-.9-4-1.8-8.1-2.6-12.1-.5-2.2-.6-4.5-1.3-6.7s-1-5.3-1.7-7.9-1.2-5.6-1.8-8.4a9.7 9.7 0 0 1-.5-3.4c.1-.4.4-.4.7-.2.1 2.8 1 5.6 1.6 8.3 1.2 5.8 2.5 11.7 3.7 17.5.7 3.1 1.4 6.2 2 9.4.3 1.1.5 2.2.8 3.3Z" class="v"/><path d="M262.7 220a17.2 17.2 0 0 1-4.2 2.3c-1.2.5-2.1 1.3-3.3 1.8s-.5.7-.3 1.2c1.1 2.3 2.7 4.3 3.8 6.5s3.1 4.7 4.1 7.5a28.6 28.6 0 0 1-2.9-4.2l-5-8.6h-.1c-.3-1.2-2.1-1-2-2.8s-1-2.3-1.7-3.3c-2.2-3.8-4.6-7.6-6.9-11.3l-.3-.5c-.1-.3-.4-.6.1-.8s.4.2.6.4 1.8 3 2.8 4.5c2 3.5 4.1 7 6.2 10.5.4.8.9.8 1.6.3s4.6-2.2 6.7-3.6c.2-.3.4-.3.8.1Z" class="w"/><path d="m307.9 45.5-.7.2c-1.2-.4-2.5-.4-3-1.8a2.9 2.9 0 0 1 1.3-4 3.2 3.2 0 0 1 4.1 1.2 3.1 3.1 0 0 1-1.2 4.1Z" class="k"/><path d="M157.5 78.3V78a2.2 2.2 0 0 1 1.9-2.1 18.4 18.4 0 0 1 6.2-.1h.1a1.9 1.9 0 0 1 0 1.5c0 .1 0 .2-.1.2a.9.9 0 0 0-.1.5c0 .1-.1.2-.1.3a6.5 6.5 0 0 0-.4 1.3 2.3 2.3 0 0 1-1.1 1.1l-1.6.4c-2.5.2-4.1-.7-4.8-2.8Z" class="i"/><path d="M124.2 247.1a64.8 64.8 0 0 0-7.7.7l-13.2 1.6a25.8 25.8 0 0 1-3.9.4c-.5-.3-.4-.7-.2-1.1a39 39 0 0 1 6.7-1.1c5.1-.5 10.2-1.3 15.2-1.9a8.9 8.9 0 0 1 2.8-.1 1.1 1.1 0 0 1 .3 1.5Z" class="p"/><path d="M245 194.9a2 2 0 0 1-.2-1.1l5.6-3.4 16.9-10.3 2.5-1.4a1.2 1.2 0 0 1 1.4 0 .2.2 0 0 1 0 .3c-8.6 5.5-17.3 10.8-26.2 15.9Z" class="r"/><path d="m23.2 187.7 19.3-3.2c1.4-.2 2.2-.7 2.1-2.2s-.1-.8.6-.8c0 2.5 0 2.5 2.4 2l2.5-.4a1.3 1.3 0 0 1 .8-.3c.3.1.6.2.7.5a1.4 1.4 0 0 1-.7.8l-.8.2h-.4a32.7 32.7 0 0 0-4.5 1 .8.8 0 0 1-.8-.3l-10.5 1.8-10.7 1.7c-.3-.3-.3-.5 0-.8Z" class="e"/><path d="M74.8 245a.8.8 0 0 1-.7.2l-6.6-9-13-17.7c.1-.2.2-.3.4-.2s.8.1 1.1.4l16.9 23.1a10.1 10.1 0 0 0 1.3 1.6c.4.5 1 .9.6 1.6Z" class="t"/><path d="M32 109.8a1.2 1.2 0 0 1 .6.8c.8 1.9.6 2.7-.7 3.9a2.2 2.2 0 0 1-3.2.3l-1.8-1.3a1.7 1.7 0 0 1-.3-2.5 6 6 0 0 1 3.5-2.2c.9-.2 1.4.5 1.9 1Z" class="u"/><path d="M298 206.3c-.3-1-.5-2-.8-3.1s-.6-1.4-1.8-.7l-6.7 3.7a.7.7 0 0 1 .5-1 55.4 55.4 0 0 1 6.4-3.3 1.5 1.5 0 0 0 1-2.1 3.3 3.3 0 0 1 0-1.7c.2.1.3.1.3.2.4 2.5.3 2.3 2.7 1.2s3.4-2.5 4.7-5c-.2 2.4.8 1.8 1.8 1.4a63.3 63.3 0 0 0 6.8-3.6c.4-.2.7-.5.9-.1s-.3.5-.6.7c-2.7 1.6-5.6 2.9-8.4 4.4s-3.7 2.2-5.7 3.2-1.7 2.1-1 3.7a2.2 2.2 0 0 1-.1 2.1Z" class="w"/><path d="M165.7 75.8a9.3 9.3 0 0 1-3.7.2 4.1 4.1 0 0 0-4.4 2l-.5-.6c0-.3.1-.5.1-.8a1.5 1.5 0 0 1 .2-.9 2.3 2.3 0 0 1 1-2.1c.2-.3.4-.6.8-.6l1-.4.7-.2a3.3 3.3 0 0 1 1.4 0l.8.2c1.5.5 2.6 1.3 2.6 3.2Z" class="q"/><path d="m244.8 231.4.3-2.4c0-.9-.4-1.3-1.3-.9a5.9 5.9 0 0 1-3.2.6 20.3 20.3 0 0 0-4.3.6c-.2-1.3.7-2.6 2.3-3.3a3.7 3.7 0 0 0 2.1-1.6 4.7 4.7 0 0 1 4.1 7Z" class="h"/><path d="m249.2 10.1.3-.8c2.2 1 3.9 2.7 5.7 4.1 4.4 3.2 8.6 6.5 12.9 9.8a5.8 5.8 0 0 1 1.7 1.8c-.1.7-.6.5-1 .5l-8.8-6.9c-3.3-2.4-6.6-5-9.8-7.5-.4-.3-.8-.5-1-1Z" class="t"/><path d="M317.3 186.4c-1.3-.4-1.9.1-1.6 1.5a.4.4 0 0 1-.4.4 13 13 0 0 1 .1-5.2c.6-.5 1.1-.7 1.3.3v.4c.2-.2.2-.4.3-.6a2.9 2.9 0 0 1 1.5-1.6 1.9 1.9 0 0 1 2.2.2c1 1.1 1.9 2.2 2.9 3.2v.3c-2 .7-4 1.5-6.3 1.1Z" class="o"/><path d="M240.7 224.4c.2 1.3-.9 1.5-1.8 1.8a4.3 4.3 0 0 0-2.6 3.1c-.4.5-.2 1.1-.3 1.7a4.5 4.5 0 0 1 .7-5.2 1.8 1.8 0 0 0 .1-2.2l-4.8-10.8c.1-.3.2-.4.6-.3a3.2 3.2 0 0 1 1 1.3c1.4 3.1 3 6.1 4.4 9.3.2.3.3.6.7.3h.4a1.5 1.5 0 0 0 1.6 1Z" class="p"/><path d="M99.3 248.9c0 .3.1.6.1.9-1 3.3-4.6 3.1-6.2.8-.5-.2-.5-.6-.5-1a1.9 1.9 0 0 1 .5-1 24.8 24.8 0 0 0 3.7-1.7 1.5 1.5 0 0 1 2 .4 1.3 1.3 0 0 1 .4 1.6Z" class="k"/><path d="M65.3 252.4a2.7 2.7 0 0 1 2.6 2.7 2.8 2.8 0 0 1-2.8 2.6 2.7 2.7 0 0 1-2.6-2.7 2.6 2.6 0 0 1 2.8-2.6Z" class="b"/><path d="M339.1 86.1a2.3 2.3 0 0 1 2.5 2.5 2.4 2.4 0 0 1-2.5 2.6 2.7 2.7 0 0 1-2.7-2.6c0-1.6 1-2.5 2.7-2.5Z" class="k"/><path d="M124.2 247.1a2.2 2.2 0 0 1-.2-1.4 1.8 1.8 0 0 1 2.1-1.9 43.6 43.6 0 0 0 5.1.3c.3.2.4.3.4.6a9.9 9.9 0 0 0 .2 1.7c-1.7.1-3.2 1-4.7 1.6a1.9 1.9 0 0 1-1.8-.1l-.3-.2c-.4 0-.6-.3-.8-.6Z" class="h"/><path d="M27.7 200.4a2.6 2.6 0 0 1-2.7 2.4 2.7 2.7 0 0 1-2.5-2.4 2.8 2.8 0 0 1 2.6-2.5 2.6 2.6 0 0 1 2.6 2.5Z" class="b"/><path d="M273.6 5.9a8.4 8.4 0 0 1-3.2-2.2h11.4a5.8 5.8 0 0 1-3.2 2.1l-.5.3h-.6c-.2 0-.4.3-.7.2h-.2c-1.1.6-2-.2-3-.4Z" class="f"/><path d="m161.4 43.8.8-.2c-.3 3.7.9 7.1 1.2 10.7.1 2 .5 4 .6 6s.8 4.9.9 7.4c0 .4.3 1.3-.3 1.3s-.4-.9-.5-1.4l-.9-7.6c-.3-2.8-.9-5.7-1-8.6s-1.1-5-.8-7.6Z" class="v"/><path d="m321.3 121.7-.7.2c-.5.4-1 .1-1.6 0l-.3-.3a7.7 7.7 0 0 1-.7-1.6q-.6-1.8 1.8-3c.5-.5 1-.1 1.4.2 1.9 1.3 1.9 2.6.1 4.5Z" class="q"/><path d="m298.5 169.7 1.7-1.2a1.6 1.6 0 0 0 .7 1.3c3.4 2.3 6.9 4.6 10.2 7a14.4 14.4 0 0 1 3.2 2.3c.2.2.4.5.2.8s-.5 0-.8-.1c-2.1-1.2-3.9-2.8-5.9-4.2l-7.7-5.3c-.5-.3-1.1-.3-1.6-.6ZM345.1 130.7a15.8 15.8 0 0 1-1.8 4.6c-2 3.4-3.5 7-5.4 10.4l-2 3.9c-.2.3-.3.7-.7.5s-.1-.6 0-.8c1.1-2.3 2.3-4.5 3.4-6.7l5.3-10.6a2.9 2.9 0 0 1 1.2-1.3ZM318.7 121.6h.3c.5.9 0 1.8-.4 2.6l-2.7 7.4a8.8 8.8 0 0 1-2 3 60.3 60.3 0 0 0-4.2 4.5 1.3 1.3 0 0 1-1 .6c-.3-.1-.7.1-1-.3 2.1-2.2 4.3-4.4 6.2-6.8s1.6-3.5 2.4-5.3a26.3 26.3 0 0 1 2.4-5.7Z" class="n"/><path d="M324.7 160.5v.9c-5.5.2-11-.4-16.6-.3h-2.9l.4-.9a2.5 2.5 0 0 1 1.7-.4c5.3 0 10.7-.1 16.1.3a1.9 1.9 0 0 1 1.3.4Z" class="x"/><path d="M176.1 96c-.2.2-.4.3-.6.2s-1.9-2.5-2.7-3.9L165.3 79a.9.9 0 0 1 .2-1q.1-.3.3 0a27.8 27.8 0 0 1 2.8 4.7l7.3 12.8Z" class="r"/><path d="m49.8 123.1.3.2a1.5 1.5 0 0 1 .3 1.3c-.1 5.2-.4 10.5-.4 15.7 0 .7.1 1.3-.5 1.8h-1a13.6 13.6 0 0 0 .2-2c.1-4.8.3-9.6.3-14.4 0-.8.7-1.7 0-2.6Z" class="x"/><path d="M14.4 241.6a1.9 1.9 0 0 1-.5-2.7c.3-.7.6-1.5 1.7-1.4s2.6-.1 3.4 1.3a5.8 5.8 0 0 1 .5 1.4c.4 1.1-.1 1.9-1.3 2.2s-2.8.6-3.8-.8c.6-.5 1.4-.3 2.1-.3s1.3 0 1.4-.7-.5-1-1-1.3a1.3 1.3 0 0 0-1.7.3c-.5.6-.3 1.4-.8 2ZM32 109.8c-.8.1-1.1-1.2-2.1-.6s-2.4.9-3.1 2-.5 1.5.4 2l1.2.9a2.2 2.2 0 0 0 2.9.6 2.7 2.7 0 0 0 1.3-3.4v-.7a2.2 2.2 0 0 1 .4 3c-.9 1.5-2.4 2.3-3.6 1.9a14.3 14.3 0 0 1-2.2-.8 3.2 3.2 0 0 1-1.3-3.2 3.5 3.5 0 0 1 3.1-3.2 3.3 3.3 0 0 1 2.8 1c.1.1.1.3.2.5Z" class="v"/><path d="M30.2 149.6a2 2 0 0 1 1.9 2 2.2 2.2 0 0 1-2.2 2 2 2 0 0 1-1.9-2.1 2.1 2.1 0 0 1 2.2-1.9Z" class="b"/><path d="M169.9 249v.4l-.5-.2-.9.3c-1.1.8-2 .8-2.7-.4a3.3 3.3 0 0 0-3.1-1.8c.1-.2.1-.4.2-.6s2.7.7 4.1-.2 1.7.3 2.1 1.2.2 1 .8 1.3Z" class="p"/><path d="M44.4 185h.7c.7.6.5 1.5.5 2.2-.5 4.4-.2 8.9-.3 13.3a2.7 2.7 0 0 1 0 .9 1.1 1.1 0 0 1-1.5.2c.4-5.5.1-11.1.6-16.6Z" class="u"/><path d="M240.5 269.7c0 .3 0 .6-.4.7-2.3.2-4.3-1-6.4-1.5s-5.8-1.7-8.7-2.6v-.8l7.1 2c2.8.8 5.5 1.9 8.4 2.2Z" class="n"/><path d="M344 118.9a2 2 0 0 1-2 2 2.1 2.1 0 0 1-2.1-1.9 2.3 2.3 0 0 1 2-2.1 2.2 2.2 0 0 1 2.1 2Z" class="p"/><path d="m317.3 183.4-.2.5c-.1.3-.1.8-.6.7s-.2-.6-.1-.9-.6-.5-1-.6c.7-3.5 3.5-4.9 6.4-6.2h.3c.3 0 .7-.2 1 .1v1c-1.1.8-2.4.9-3.4 1.6a4.5 4.5 0 0 0-2.4 3.8Z" class="q"/><path d="M284.5 9.7a1.9 1.9 0 0 1-1.7 1.9 2 2 0 0 1-2.2-1.8 2 2 0 0 1 1.8-2 1.9 1.9 0 0 1 2.1 1.9Z" class="b"/><path d="M268.9 25.3a.9.9 0 0 0 .9-.3 33.8 33.8 0 0 1 5.4-1.7 5.1 5.1 0 0 1 3.4.4c-1 .4-2 .1-3 .2s-2.8.8-3.1 2.1a5 5 0 0 1-2.7 1.4c-.7-.3-1.7.8-2.3-.3s.6-1.4 1.4-1.8Z" class="d"/><path d="M159.2 73c-.2.3-.4.6-.8.6a12.8 12.8 0 0 0-2.4-3.2c-2-2.5-4.1-4.8-6.2-7.2a9.4 9.4 0 0 1-.3-.9.6.6 0 0 1 .5-.8c0 1.5 1.2 2.2 2 3.2l6.9 7.8Z" class="r"/><path d="M336.2 161c3.7-.3 7.4.3 11.1.3.4 0 .9 0 .9.5s-.6.4-.9.4a103.2 103.2 0 0 1-11.1-.6.6.6 0 0 1 0-.6Z" class="x"/><path d="M150 61.5a1 1 0 0 0-.5.8 2 2 0 0 1-1.3.2 1.8 1.8 0 0 1-1.9-1.6 1.9 1.9 0 0 1 1.8-1.9 1.8 1.8 0 0 1 1.9 1.6Z" class="h"/><path d="m338.2 152.3 3.8 1.4a47.2 47.2 0 0 1 5.6 2.4c.4.2.8.4.6.8s-.6.1-.9 0l-7.6-3.1c-.8-.2-.8-1.2-1.5-1.5Z" class="e"/><path d="M285.2 169.4a1.9 1.9 0 0 1 1.2.7l-9.9 6-1.5.7c-.2-.2-.4-.4-.3-.7s.7-.9 1.2-1.2c2.8-1.5 5.4-3.3 8.2-4.7Z" class="n"/><path d="M289.7 39c-.2-2.1.1-4.3-.3-6.4.9.9.7 2.1.8 3.2s0 2 2 2.4l7.8 1.6c.4.1.8.1.7.5s-.5.2-.8.1c-2.7-.4-5.4-1.2-8.2-1.5-.7 0-1.3-.7-2 .1Z" class="v"/><path d="M257.2 263.3h.8a2 2 0 0 1 .8 1.4c-.3.4-.8.3-1.2.4a7.9 7.9 0 0 0-4.5 2.6c-.2.3-.4.6-.8.5h-1.2a7.3 7.3 0 0 1 3.2-3.5l1.5-.8c.3-.6.8-.6 1.4-.6Z" class="q"/><path d="M34.3 143.5c-1.2 0-1.8-.6-1.8-1.7a1.6 1.6 0 0 1 1.8-1.8 1.7 1.7 0 0 1 1.7 1.9 1.6 1.6 0 0 1-1.7 1.6Z" class="x"/><path d="M43.8 201.6h1.4a1.7 1.7 0 0 1 2.2-.5l-.3 1.1a1.4 1.4 0 0 1-1.1.9 6.6 6.6 0 0 0-3.2 2.5c-.2.3-.4.7-.9.5s-.8-.3-1.2-.4a6.3 6.3 0 0 1 1.9-2.4c.5-.5 1.2-.9 1.2-1.7Z" class="c"/><path d="m92.9 249.6.3 1-6.4.9a3.4 3.4 0 0 0-2 .6c0-.4-.1-.9-.1-1.3s1.7-.7 2.6-.8l1.1-.2 3-.6c.6 0 1.1-.1 1.5.4Z" class="p"/><path d="M196.5 258.1c.1.5.7.7.8 1.2a2 2 0 0 1-1.3 2.3 2 2 0 0 1-2.2-1.6 1.9 1.9 0 0 1 1.7-1.9Z" class="x"/><path d="M238.7 223.5c0 .2.2.6-.1.7s-.5-.2-.7-.5c-1.5-3.2-3-6.4-4.6-9.5-.3-.7-.4-1.4-1.3-1.4s-.1-.4-.1-.6 1.1-.2 1.6-.3 1.3.7.4 1.4c1.6 2.8 2.8 5.8 4.3 8.6a2.4 2.4 0 0 1 .5 1.6Z" class="n"/><path d="m238.7 223.5-4-8c-.3-.7-1.2-1.3-.8-2.2s1 .8 1.3 1.4c1.3 2.5 2.5 5 3.7 7.6.2.3.1.8.2 1.2Z" class="x"/><path d="M336.2 161v.6h-7.1a4.7 4.7 0 0 1-3.5-.2c-.6-.2-.8-.5-.3-1s2.8-.2 4.2-.3a1.5 1.5 0 0 1 1.3.7h5.4Z" class="t"/><path d="m330.8 160.9-1.1-.3c-.4-.6 0-1 .2-1.5 1.1-2.7 2.6-5.2 3.8-7.9.3-.2.7-.5 1.1-.2h.1a.5.5 0 0 1 .1.6 50.1 50.1 0 0 0-3.4 6.5c-.4.9-1.1 1.7-.8 2.8Z" class="n"/><path d="M25.5 134.8c-1 .1-1.8-.2-2-1.3s1.2-1.9 1.7-2 2.1 1.6 2.1 2.2-1 1.1-1.8 1.1Z" class="w"/><path d="m45.2 181.5-.6.8v-10.6a.7.7 0 0 1 .5-.8c.3 0 .3.3.3.5 0 3.3 0 6.6-.1 9.9Z" class="u"/><path d="M243.3 233.5a11.7 11.7 0 0 1 1.5 3.2c-.5.6.2 1.6-.7 2s-.8-1.4-1.2-2.2-.5-.9-1.1-.9-.8-.8-.8-1.4 1.4-.8 2.3-.7Z" class="n"/><path d="M51 183h-.9v-11.7a.6.6 0 0 1 .7.1c.5 1.7.3 3.5.5 5.3a36.2 36.2 0 0 1 0 5.7c-.1.2-.1.5-.3.6Z" class="r"/><path d="M23.2 187.7v.8a1.8 1.8 0 0 1-1.4.8 1.5 1.5 0 0 1-1.6-.7 1.2 1.2 0 0 1 .3-1.6 1.3 1.3 0 0 1 1.6-.4c.5.3 1.1.4 1.1 1.1Z" class="t"/><path d="m273.6 5.9 3 .6c.1 2.3-.7 4.6-.4 7-.8 0-.8-.5-.8-.9a19.7 19.7 0 0 1 0-4.2c.3-1.3-.1-1.9-1.3-2.1s-.4-.2-.5-.4Z" class="u"/><path d="m321.2 117.2-1.4-.2c.2-2.4-.7-4.7-.5-7.1v-.9c0-.3-.1-.7.3-.7s.4.4.4.6a15.8 15.8 0 0 0 .3 3.8c.4 1.5 0 3.1.9 4.5Z" class="n"/><path d="M348.1 142.4c-2 3-3.8 6.2-6.5 8.7a56.3 56.3 0 0 1 6.5-8.7Z" class="v"/><path d="M324.5 147.3c-.3-.3-1.2-.3-.5-1.1l6.2 2.7c.3.3 0 .5-.2.7s-4.8-1.1-5.5-2.3Z" class="s"/><path d="M50.5 171.3h-.4c0-.7-.1-1.4-.1-2.1s-.2-.4-.2-.6v-2.9a4.4 4.4 0 0 1 .2-3.2h.5a2.2 2.2 0 0 1 .4 1.6 10.1 10.1 0 0 0 .1 3 .6.6 0 0 0 .1.4c0 .3.1.5.1.8a1.7 1.7 0 0 1 .3 1c0 .2 0 .3-.1.4s-.4.2-.4.5.1.5 0 .7a.4.4 0 0 1-.5.4Z" class="t"/><path d="M329.8 149.4a.5.5 0 0 0 .4-.5l4.6 1.7v.4l-1 .3a4.5 4.5 0 0 1-4-1.9Z" class="e"/><path d="M329.6 96.3a2.7 2.7 0 0 1 0-3.2 5.8 5.8 0 0 1 0 3.2Z" class="k"/><path d="M50.1 162.5c-.7 1 0 2.1-.4 3.2-.8-1.3-.2-2.7-.4-4.1l.8-.2a.8.8 0 0 1 0 1.1Z" class="r"/><path d="M163.3 238.5h.3c-.3 1.2.4 2.5-.1 3.8-.1-1.2-1-2.5-.2-3.8Z" class="k"/><path d="M39.7 213c.7.9 1.6 1.6 1.3 2.9a3.8 3.8 0 0 1-1.3-2.9Z" class="g"/><path d="M39.6 208.8v3.8a5 5 0 0 1 0-3.8Z" class="c"/><path d="M335 151.7a1.3 1.3 0 0 0-.1-.6c1-.1 1.4.8 1.9 1.4Z" class="e"/><path d="M44 120.3a2.6 2.6 0 0 1 2.3 1.9 3.7 3.7 0 0 1-2.3-1.9Z" class="k"/><path d="M328.2 177.9c-1.2-.3-2.5-.2-3.5-1a4.1 4.1 0 0 1 3.5 1Z" class="i"/><path d="M266.3 217.7a4 4 0 0 1-2.9 1.8 6 6 0 0 1 2.9-1.8ZM284.8 207.9a8.5 8.5 0 0 1 3-1.8 4.4 4.4 0 0 1-3 1.8Z" class="w"/><path d="M254.9 280.6c1 .2 2.1.1 2.8 1a4.8 4.8 0 0 1-2.8-1Z" class="i"/><path d="M264.2 241.5h-.3c-.3-.5-1-.7-.9-1.4l.3-.2a2.2 2.2 0 0 1 .9 1.6Z" class="w"/><path d="M46.4 122.2c.8 0 1.6-.2 2.1.7a2.7 2.7 0 0 1-2.1-.7Z" class="k"/><path d="M250.9 276.5a2.8 2.8 0 0 1 1.3 2 3.4 3.4 0 0 1-1.3-2Z" class="i"/><path d="M265.5 243.6c-.7-.1-.8-.7-1.2-1.4s1 .9 1.2 1.4Z" class="w"/><path d="M274.6 176.9a2.2 2.2 0 0 1-1.6.9l-.3-.3c.2-.9.8-1.1 1.6-.9Z" class="r"/><path d="M291 171a1.7 1.7 0 0 1 1.9 0 2.1 2.1 0 0 1-1.9 0Z" class="i"/><path d="M281.4 24.4a2.7 2.7 0 0 1-2-.6 2.8 2.8 0 0 1 2 .6Z" class="d"/><path d="M273 177.8c-.2.6-.8.7-1.2 1s-.5-.3-.5-.6.7-1 1.5-.7Z" class="r"/><path d="M252.5 278.7a1.6 1.6 0 0 1 1.4 1.3 2.3 2.3 0 0 1-1.4-1.3Z" class="i"/><path d="M267.3 217.6c.1-.7.5-.8 1.1-.9s-.7.8-1.1.9Z" class="w"/><path d="M125.3 247.9h1.8a1.1 1.1 0 0 1-1.8 0Z" class="p"/><path d="M304.4 194.7c.2-.7.3-1.2 1-1.4s-.3 1-1 1.4Z" class="w"/><path d="M40.3 206.5a1.4 1.4 0 0 1-.6 1.6 2.8 2.8 0 0 1 .6-1.6Z" class="c"/><path d="M165.8 77.2a3.8 3.8 0 0 1 0-1.5.9.9 0 0 1 0 1.5Z" class="r"/><path d="M293.3 282.1a1.4 1.4 0 0 1-1.5-.5 2.1 2.1 0 0 1 1.5.5Z" class="d"/><path d="M190 96.8c-.8.7-1.1.2-1.2-.5l1.1.3a.3.3 0 0 0 .1.2Z" class="g"/><path d="M335.2 161a.8.8 0 0 1-1.1 0 .7.7 0 0 1 1.1 0Z" class="x"/><path d="M264.2 264.6c-.5 0-1.1 0-1.2-.7a1.9 1.9 0 0 1 1.2.7Z" class="i"/><path d="M289.4 40.4a1 1 0 0 1 .2-.9c.4.5.3.7-.2.9Z" class="v"/><path d="M320.9 229.2a.6.6 0 0 1-.2-.8c.4.2.5.5.2.8ZM320.4 227.1h.4a2.4 2.4 0 0 1-.2.8c-.3-.2-.2-.5-.2-.8Z" class="t"/><path d="M157.4 75.7a.8.8 0 0 1-.2.9c-.4-.4-.3-.7.2-.9Z" class="n"/><path d="M321.4 84.1c-.4.3-.6.2-.8-.3a.8.8 0 0 1 .8.3Z" class="g"/><path d="M168.4 249.5c.3-.3.5-.6.9-.3s-.5.3-.9.3Z" class="r"/><path d="M41.1 216.1c.2 0 .5-.1.6.2s-.1.3-.2.4-.4-.4-.4-.6ZM42.7 217.8c.1-.2.2-.3.4-.2s.1.4.2.6a.5.5 0 0 1-.6-.4Z" class="k"/><path d="M253.9 280c.4 0 .8 0 .8.5a.7.7 0 0 1-.8-.5Z" class="i"/><path d="M222.8 265.6a.4.4 0 0 1 .6.3c-.3.2-.5 0-.6-.3Z" class="n"/><path d="M49.8 168.6c.3.2.3.4.2.6s-.5-.3-.2-.6Z" class="r"/><path d="M271.4 178.2c.1.2.1.4.4.6l-.6.2a1.1 1.1 0 0 0-.1-.5c0-.2.1-.4.3-.3Z" class="n"/><path d="M307.5 96.3h.3c0 .2.1.4.1.6s-.5-.3-.4-.6Z" class="v"/><path d="M323.1 177.1h-1l.5-.2h.5Z" class="i"/><path d="M84.5 254.9a.4.4 0 0 1 .2-.6c.3.3.1.4-.2.6Z" class="p"/><path d="M274.7 176.2a.6.6 0 0 1 .3.6h-.4l-.3-.2c0-.2.1-.4.4-.4Z" class="r"/><path d="M276.8 6.4c.2-.3.4-.3.7-.2s-.4.4-.7.2Z" class="u"/><path d="M322.5 84.4c-.3.3-.4.1-.5-.2a.4.4 0 0 1 .5.2Z" class="g"/><path d="M240.1 272.1a.6.6 0 0 1 .3.6c-.4-.1-.6-.2-.3-.6Z" class="n"/><path d="M159.4 43.7a.7.7 0 0 1 .6.1c-.3.5-.5.3-.6-.1Z" class="v"/><path d="M163.1 72.6a.5.5 0 0 1-.8-.2.5.5 0 0 1 .8.2ZM160.9 72.4c-.2.3-.4.4-.7.2a.4.4 0 0 1 .7-.2Z" class="r"/><path d="M278.1 6.1c.1-.3.3-.3.5-.3s-.2.6-.5.3Z" class="u"/><path d="M293.8 234.5c.4.1.6.2.2.5s-.2-.3-.2-.5ZM244 232.8l-.5.3c0-.4.1-.5.5-.5ZM244 232.5l.3-.2c.1.3-.2.2-.3.2Z" class="h"/><path d="M165.8 78h-.3c-.1-.2 0-.4.2-.6s.1.4.1.6Z" class="q"/><path d="M287.1 170.4Z" class="n"/><path d="M289.2 170.8Z" class="i"/><path d="m241.8 236.1.2.3Z" class="n"/><path d="M320.4 234.5c-.1-.2 0-.3.1-.3s-.1.2-.1.3Z" class="t"/><path d="m125 247.7.3.2Z" class="p"/><path d="m314.4 219.3-.4-.2Z" class="h"/><path d="m328.6 178.2-.3-.3ZM329.1 178.5l-.2-.3c.1 0 .3.1.2.3ZM264.7 264.9l-.4-.2ZM265 265.2l-.4-.3c.2 0 .4.1.4.3Z" class="i"/><path d="m251.1 268.2-.2.3c0-.1.1-.2.2-.3Z" class="q"/><path d="m193.7 220.7-13.9 7.7-14.9 8.4-1.6.8-.8-1.7c-.9-.6-.9-1.7-1.4-2.5a19 19 0 0 0-3.9-4.1 1 1 0 0 0-.4-.5l-.2-.2-.4-.2c-.1-.1-.2-.1-.2-.2h-.5l-.6-.4c-.2-.2-.3-.3-.5-.3l-.5-.2h-.6l-.5-.3a9.6 9.6 0 0 0-2.9-.8 2.8 2.8 0 0 1-1.9-.7 67.3 67.3 0 0 1 1-8.9c.9-6.3 1.9-12.5 2.6-18.9.1-1 .2-2 .4-3s.3-.6.3-1.1a11.3 11.3 0 0 1 .3-1.8.5.5 0 0 1 .2-.4l.8-.4h.6c3.1-.1 6 .6 9 .9a26.5 26.5 0 0 1 4.9.9l.8.2c6.1.1 12.1 1.1 18.2 1.8s14.1 1.8 21.1 2.5h.6c.4.1.8.4 1.2.3s3.7-.1 5.4.7a.8.8 0 0 1 .2.7c.1 1 .3 2 .5 3.1a1.5 1.5 0 0 0 .3.7 30.9 30.9 0 0 0 2.4 4.4c-.6.8-1.7 1-2.5 1.4-7.2 4-14.3 7.9-21.5 11.7l-.3.2c-.4-.2-.5 0-.8.2Z" class="a"/><path d="M131.3 244.4c-1.6 0-3.1.4-4.8-.2s-2.1.4-2.5 1.5a37.2 37.2 0 0 1-5.7.8l-18.6 2.4h-.4l-.6-1.5a1.8 1.8 0 0 1 .1-2c1.5-2.8 3.1-5.5 4.6-8.4s1.9-3.3 2.8-5a5.2 5.2 0 0 1 1.4-1.9 13.2 13.2 0 0 1 4.7 1c4.9 1.5 9.9 2.7 14.9 4.1l3.5 1.1a1.5 1.5 0 0 1 1.2.7 6.9 6.9 0 0 1-.4 3.2v3.6c.1.2 0 .4-.2.6Z" class="y"/><path d="M138.1 243.7c.9-.1 1.6.5 2.4.7s3.9-.3 5.7 1 1.1.5 1.4.9a15.8 15.8 0 0 0 8 4.6c.2.1.6 0 .6.3s-.2.5-.4.6c-2.5 1.5-4.8 3.4-7.6 4.2a6 6 0 0 1-4.9-.2l-1.7-.7a5.1 5.1 0 0 1-2.7-2.5c-.5-1.2-1.7-2.1-2.4-3.2a10.6 10.6 0 0 1-1.5-4.2.6.6 0 0 1 .5-.8Z" class="l"/><path d="M131.5 240.2c-.3-1.1.3-2.2.3-3.4a2.1 2.1 0 0 1 0-1.1 21 21 0 0 1 5.2-6.9 5.9 5.9 0 0 1 1.7-1c.7-.1 1-.8 1.6-1a18.9 18.9 0 0 1 6.6-1.7 1.4 1.4 0 0 1 1.1.3c1.7.3 3.5.3 5.1 1.2s-.5 1-1.1 1.5a32.3 32.3 0 0 1 4.3 2.9 12.6 12.6 0 0 1 3.5 5.3c.3 1 .1 2.2.6 3.2s-.3 1.2-1.2.9a2.2 2.2 0 0 0-1.4-.2c-3.3.3-6.6-.1-9.9.2-.1.1-.2 0-.3-.1a1.3 1.3 0 0 1-.1-.6c1.2-2.2 1.3-4.7 1.9-7s.8-2.7-.5-3.8a11.1 11.1 0 0 0-7.2.3 13.2 13.2 0 0 0-7.3 8.3c-.2.5-.1 1.2-1 1.1s-1.1-.3-1.2.7-.2.8-.7.9Z" class="g"/><path d="M147.6 240.2c3-.5 6-.1 9-.2.4-.1 1 .1 1.3-.2s1 .2 1.5.2.2.5.5.3a.5.5 0 0 0 .3-.7c-.9-1.8-.6-3.8-1.8-5.6a17.4 17.4 0 0 0-6.2-5.3c-.3-.2-1-.1-.9-.7s.6-.3.9-.4a1.3 1.3 0 0 0 .9-1l.5.2.5.2h.4l.6.5.7.3.3.3.5.2h.1c.2.2.3.4.6.5a14.4 14.4 0 0 1 5.2 7 8.2 8.2 0 0 0-.2 3.8 4.5 4.5 0 0 1-1.5 3.8 9.9 9.9 0 0 1-2.6.8 18 18 0 0 1-7.3-.2l-.9-.3c-1.6.1-2.2-.9-2.4-2.3s-.2-.9-.8-1-.1-.2 0-.4a.8.8 0 0 1 .8.2Z" class="k"/><path d="M146.8 240.2v.3c-2.8 1-5.8.9-8.6 1.7s-2.7 1.1-4.2.6-.2.7-.9.9c0-1.5-.4-2.9.3-4.3s.5.1.6-.2c.6-1.9 2-3.4 3-5.1a4.5 4.5 0 0 1 3.2-2.2 2.7 2.7 0 0 1 2.3 1.7 24.7 24.7 0 0 0 1.9 3.6 7.7 7.7 0 0 0 1.9 2.1c.4.2.8.4.5.9Z" class="g"/><path d="M137.2 234.3c-1.1 1.9-2.6 3.6-3.3 6l-.5-.9v-.8c.7-.2.5-.9.7-1.4a10.2 10.2 0 0 1 2.2-4.1c.5.3 1 .5.9 1.2Z" class="e"/><path d="M131.4 242.7a1.1 1.1 0 0 1 0-1.1.7.7 0 0 1 0 1.1ZM131.3 244.4l.2-.6c.6.2.5.5.1.9Z" class="g"/><path d="M157.5 78.3c1.2 1.5 2.6 2.9 4.9 2.3s1.3.5 1.6 1.2c1.9 3.9 4.2 7.6 6.2 11.5a39.6 39.6 0 0 1 2.5 4.5 14.3 14.3 0 0 1-2 2.3 16.2 16.2 0 0 0-4.4 11.3 12.2 12.2 0 0 0 .3 1.7c.5.6.4 1.4.6 2.2a1.9 1.9 0 0 0 .3.8 1.2 1.2 0 0 1 .1 1l-.3.3-.9.9c-4.7 4.7-9.5 9.3-14.1 14.2a57 57 0 0 0-4.2 4.3l-.2.3a1.6 1.6 0 0 0-.7.7 46.8 46.8 0 0 0-5.5 5.4c-4.1 3.7-7.9 7.7-11.8 11.6l-2.8 2.5a1.1 1.1 0 0 1-1.5.4c-2.7-2.6-5.6-4.8-8.4-7.2l-9.3-7.9a1.7 1.7 0 0 1-.8-1.3c.7-1.7 1.7-3.3 1.7-5.3a8.2 8.2 0 0 0-5.2-8.2c-2.3-1.4-6-.9-8.5 1.1a7.2 7.2 0 0 0-1.9 2l-.4.3h-.2a1.8 1.8 0 0 1-1.4-.2l-27.5-12-3.6-1.8c2-.2 3.6-1.4 5.5-2s6.1-2.5 9.1-3.7l16.7-6.8 13.8-5.5 18.1-7.2 23.6-9.7c3.3-1.3 6.6-2.5 9.9-4Z" class="a"/><path d="M167.4 117.2v-.9c0-.3-.3-.5-.4-.7a5.2 5.2 0 0 1-.3-2.5c.5-.6.2-1.2.2-1.8s-.1-1 .3-1.3.3-.8.8-.7.5.6.5 1.1-.6 1.5.1 1.9 1.2-.3 1.8-.5a83.5 83.5 0 0 1 9.7-2 1.7 1.7 0 0 0 1.4-.5.8.8 0 0 1 .8-.2 1 1 0 0 1 .5.4c.8 1.7 2.2 2.2 3.9 2.3a15.1 15.1 0 0 0 5.2-.2 3.8 3.8 0 0 0 2.5-2.3c-1.1-1.1 0-1.9.2-2.8s2-.7 3-.5a.7.7 0 0 1 .6.3c.1.3.1.6.2.9a21.6 21.6 0 0 1 .2 4.4v1.3c-.1.1-.1.2-.1.4a2.9 2.9 0 0 0-.2.9c0 .2-.1.4-.1.6a1.9 1.9 0 0 0-.2.7c-1.5 4.5-4.7 7.6-8.8 9.9a6.1 6.1 0 0 0-1.3.3h-.6c-.3.1-.5.4-.9.5a14.2 14.2 0 0 1-3.6.4H181a10.3 10.3 0 0 1-3.5-.6c-.6-.3-1.3-.3-1.8-.6a13.1 13.1 0 0 1-2.8-1.7c-.9-.8-2.1-1.4-2.7-2.5l-.2-.3-.4-.3a12.6 12.6 0 0 1-2-2.7 2.2 2.2 0 0 1-.2-.7Z" class="f"/><path d="M182.2 109.3h-.8a18.8 18.8 0 0 1-3.7-4.3l-.4-.6c-.8-1.9-1.4-2.2-3.4-1.8h-.5c0-.9.6-1.3 1.2-1.7a17.5 17.5 0 0 1 7.6-3.1c.6-.1 1.2 0 1.7-.5s1.4 0 1.3.9c-.4 3.1-.4 6.3-1.8 9.2a8.3 8.3 0 0 0-.4 1.5.8.8 0 0 1-.8.4Z" class="c"/><path d="M165.4 78.9a1.3 1.3 0 0 1 .7.6c2.9 5.7 6.1 11.2 9.4 16.7a4.2 4.2 0 0 1-2.4 1.4c-1.3-1.9-2.2-4-3.3-5.9s-3.7-6.6-5.4-9.9c-.3-.4-.7-.8-.4-1.4l.9-1.1c.2-.1.2-.4.5-.4Z" class="w"/><path d="M182.2 109.3c.2-.4.5-.3.8-.3a56.3 56.3 0 0 1 5.8-.3 16.9 16.9 0 0 1 5.5.6 3.1 3.1 0 0 1-2.2 2.7 18.4 18.4 0 0 1-7.4-.1c-1.4-.2-1.9-1.6-2.5-2.6Z" class="k"/><path d="M183.9 97.4c-.4.9-1.3.7-2 .9a14.1 14.1 0 0 0-8.5 4.4c-.8.4-1.1 1.4-1.9 1.7a1.5 1.5 0 0 1-.9-.6c2.3-5 7.9-7.3 13.3-6.4Z" class="z"/><path d="m164 80.4 7.7 14.1a9.6 9.6 0 0 1 1.4 3.1l-.4.2c-2.2-3.2-3.9-6.7-5.9-10.1s-2.2-4.2-3.2-6.3a1.5 1.5 0 0 0-1.2-.8c.5-.4 1.1-.1 1.6-.2Z" class="p"/><path d="M170.6 103.8a.8.8 0 0 1 .9.6l-2.5 4.7c.3-1.9.3-3.8 1.6-5.3Z" class="s"/><path d="M240.4 18.6a15.4 15.4 0 0 0 5-2.4c1.2-.8 2.1 0 3.1.5l8.4 8.1c2.1 2 4.2 3.9 6.1 6.1a5.4 5.4 0 0 1 .6 2.5 6.3 6.3 0 0 1-.4 2.7 2.1 2.1 0 0 0-.1 2.5l.3.6a1.3 1.3 0 0 1 .1.6 1.9 1.9 0 0 1-.1.8l-1.2 1.2-.5.2a1.8 1.8 0 0 0-.7.5c-.8.4-1.6 1-2.5.8s-.7.3-.9.6a3.6 3.6 0 0 1-2.2.9 1.4 1.4 0 0 0-.9.5 7 7 0 0 1-2.8 1.2 1 1 0 0 0-.8.4 4.2 4.2 0 0 1-2.4.9 1.5 1.5 0 0 0-1.4.6 5.7 5.7 0 0 1-2.3 1.2 1.1 1.1 0 0 0-.8.3 17.3 17.3 0 0 1-3.1 1.4 1.3 1.3 0 0 0-.8.3 44.1 44.1 0 0 1-5.4 2.4 1.2 1.2 0 0 0-.9.3 9.3 9.3 0 0 1-3.1 1.3 1 1 0 0 0-.9.4 23 23 0 0 1-4.8 2.2 2.4 2.4 0 0 1-1.5-.1c-.8-.6-1-1.5-1.5-2.3a9.8 9.8 0 0 0-3.3-3.4 2.3 2.3 0 0 1-1.2-1.2l3.8-6.5 11.3-19.5 2.7-4.8c.6-1.1 1.3-1.9 2.7-1.5h1c.5 0 1 .2 1.4-.3Z" class="a"/><path d="M268.9 25.3c0 1-1.2 1-1.4 1.8s-1 1.1-1.3 1.8l-.3.5c-.3.5-.5 1.1-1.3 1.2a5.5 5.5 0 0 1-1.9-1.5c-4.7-4.7-9.4-9.4-14.2-14-1-1-1.3-1.7-.4-2.8a11.1 11.1 0 0 0 .9-1.9l.2-.3c2.1 1.1 3.8 2.8 5.7 4.2l12.9 9.9Z" class="aa"/><path d="m228.9 8.5 3.6-.8 4.2.8a3.1 3.1 0 0 1 2 1.5c1.8 3.4 2.8 3.9 6.6 3 .1-.1.4 0 .4.1s0 .4-.1.5a15.3 15.3 0 0 1-2.2 1.6c-2.4 1.3-4.8 2.5-7.5 2.2a7.5 7.5 0 0 1-6-4c-.7-1.5-1.8-3-1-4.9Z" class="j"/><path d="M217.5 51.2a12 12 0 0 1 5.8 6.7 1.9 1.9 0 0 1 .7 1.7c0 1.3.3 2.6-.2 3.9a4.2 4.2 0 0 0-.4 1 11.6 11.6 0 0 1-6.3 6.2 3.5 3.5 0 0 1-1.1.3l-.7.2c-.3 0-.6.3-.9.4s-.6 0-.6-.4a.7.7 0 0 1 .5-.8c1.9-.2 2.9-1.9 4.5-2.6s1.6-2 2.5-3.2a15.9 15.9 0 0 1-3.7.2c-1.9-.3-3.8-.5-4.1-3-.2-.8-1.2-.9-1.6-1.4s.8-.1 1.1-.5.3-.2.5-.1c2.4.2 4.7-.2 7.1.2.7.2.6-.4.6-.8.3-2-1-3.4-2.1-4.8a5.4 5.4 0 0 0-2.3-1.9c-1-.3-1-.9-.2-1.5Z" class="k"/><path d="M266 28.8a4.9 4.9 0 0 1 1.5-1.7c.8.7 1.6-.6 2.4.1a.9.9 0 0 1-.3.7 9 9 0 0 0-3 4c-.5.5-.4 1.5-1.2 1.8s-1 1.6-1.2 2.5a14.8 14.8 0 0 0-.1 2.1c-.1.5 0 1.1-.8.9l-.3-.5a2.3 2.3 0 0 1 0-2.5 5.2 5.2 0 0 0 .3-2.5c.1-.7.1-1.4.8-1.9a1.7 1.7 0 0 0 .5-1.2l1.2-1.5c0-.1.1-.2.2-.3Z" class="g"/><path d="M248.5 16.7c-1.1 0-2-.8-3.1-.5 1.4-1.6 1.4-1.6 3.1.5ZM264.1 31.8c-.2.7-.2 1.4-.8 1.9a24 24 0 0 1-.3-2.8ZM240.4 18.6c-.3 1-.8.7-1.4.2a3.4 3.4 0 0 1 1.4-.2Z" class="ab"/><path d="m249.2 10.1-.2.3Z" class="t"/><path d="m215.6 198.8-.2-.5a1.6 1.6 0 0 1-.3-.9v-.9a22.9 22.9 0 0 1 .7-3.6 16 16 0 0 0 1-2.3 2.5 2.5 0 0 1 .4-.9l.6-.8a14.8 14.8 0 0 1 6.1-5.5 18.4 18.4 0 0 1 10.1-.9 2.4 2.4 0 0 1 1.2.3l.4.2.7.6c.1 0 .1.1.2.3s-.4.7-1.3 1.3a13.3 13.3 0 0 1 6.6 9.2c.2 1-.2 1.5-1.3 1.4a37.3 37.3 0 0 0-12.9.5l-6.9 1.4c-.5.2-1.3 0-1.4.8a.6.6 0 0 1-.8 0c-.5 0-1 .6-1.4.1s-1.1-.3-1.5.2Z" class="q"/><path d="m274.7 176.2-.3.5c-.7.1-1.3.2-1.6.8a3.7 3.7 0 0 0-1.4.7l-.3.3a61.8 61.8 0 0 0-7.9 4.5c-4.9 2.8-9.7 5.9-14.6 8.8-1.2.8-2.2 1.9-3.8 2-.1-.1-.1-.4-.2-.6l-.2-.4c-.5-1.1.2-1.7 1-2.3 2.8-2.1 5.6-4.2 8.5-6.2l12.9-9.5 12.8-9.3a1.8 1.8 0 0 1 1-.4 20.8 20.8 0 0 0 4.6 4.3c-.1.7-.6 1-1.2 1.3-3.1 1.5-6 3.4-9 5.2Z" class="aa"/><path d="M218.5 198.5h.8a34 34 0 0 1 7.8-.3 13.8 13.8 0 0 1 2.9.8c.9.3.8 1.4 1.2 2.1s3.6 3.1 5.2 2.8 2.1 0 3.2-.3.5-.2.7 0a.7.7 0 0 1-.2.9l-3 2.6c-.2.2-.6.4-.4.8s.4 0 .7-.1.5 0 .5.4.1.9-.7 1-2.5.4-3.8.8-1.1.2-1.5.8a.5.5 0 0 1-.5.3c-3 .1-6 .2-8.3-2.3s-3.5-5.3-4.7-8.2c-.4-.7.1-1.4.1-2.1Z" class="i"/><path d="m280.6 165.1-13.3 9.7c-5.1 3.8-10.2 7.7-15.4 11.4-2.1 1.4-3.9 3-6.1 4.3s-1.6 1.1-1.4 2.3h-.2l-.2-.2a2.8 2.8 0 0 1-.6-1.8c4.8-3.3 9.5-6.9 14.2-10.3s12.1-9 18.3-13.4a19 19 0 0 0 4-3h.4Z" class="t"/><path d="M243.5 190.5a2.6 2.6 0 0 1 .5 1.9c-1.7-.4-1.6 1.2-2.2 2-1-1.2-1.1-2.7-1.7-4s-2.8-3.2-4.5-4.6-.9-.3-.8-.8.5-.5.8-.5.7-.3.7-.8c1.5-.2 2.5.9 3.6 1.6a11 11 0 0 1 3.5 4.5.9.9 0 0 1 .1.7Z" class="o"/><path d="M216.4 202.6c-.4-.1-.4-.4-.3-.7s.4.4.3.7Z" class="w"/><path d="M244.6 193.2a.7.7 0 0 1 .2.6.4.4 0 0 1-.2-.6Z" class="t"/><path d="m244 192.5.2.2Z" class="o"/><path d="M295.6 232.8a23.3 23.3 0 0 1 8.5-1.9c.3.4.8.3 1.2.3s2.2.8 2.5 2.1c.6 3.3 3.3 3.6 5.9 3.9a12 12 0 0 0 1.9 0c.3 0 .7-.1.8.3s0 .7-.2 1a12.1 12.1 0 0 1-4.3 2.9 3.2 3.2 0 0 0-2 1.2c-.7.9-2 .7-2.9 1.2a4 4 0 0 1-4.8-1.1 11.1 11.1 0 0 0-1.6-1.1c-3.1-2.1-4.4-5.2-5-8.8Z" class="m"/><path d="M308.5 219.9c1.4-.5 1.3.5 1.1 1.2-.7 2.7-.7 5.6-2 8.2-.1.1-.1.3-.2.5a4 4 0 0 1-1.9.3 50.7 50.7 0 0 1-4.9-7.2c-.1-.5.3-.7.6-.9a18.4 18.4 0 0 1 6.7-2.3ZM280.3 163.9h-.3c-.8-.2-.8-1-1.1-1.6a7.8 7.8 0 0 1-.4-4.8 16.1 16.1 0 0 1 .8-4.8 7.5 7.5 0 0 0 .7-1.2 13.9 13.9 0 0 1 5.8-5.7c.4-.2.9-.6 1.5-.3s.8-.1.9-.7.4-.4.8-.5a17.5 17.5 0 0 1 5.1-.3 1.7 1.7 0 0 1 1.2.6 4.5 4.5 0 0 0 2.5 3.2 11.4 11.4 0 0 1 4.8 6 3.8 3.8 0 0 1 .3 1c.1 2.1-.3 2.4-2.4 2s-3.9-.1-5.8-.2a3.7 3.7 0 0 1-2.1-.3c-.4-.5-.1-1 0-1.4a23.3 23.3 0 0 0 1.2-7.3c-.1-.5-.4-.6-.8-.6-5.3-.6-9.7 1.6-11.1 6.7a17.1 17.1 0 0 1-.7 1.8 20.6 20.6 0 0 1 3.2-4.9 2.3 2.3 0 0 1 1.9-.9 2.6 2.6 0 0 1 2.4 2.5 8.4 8.4 0 0 0 1.8 3.5c.2.3.6.6.5 1.1s-3.1.4-4.4 1.1h-1.1l-.6.5c-1.9-.1-3.5.8-5.1 1.8s-.1.5-.1.9.8 1.8.6 2.8Z" class="o"/><path d="M284.9 158.4c0-.3.2-.5.6-.5s-.2.5-.6.5Z" class="i"/><path d="M308.5 219.9c-2.8.6-5.6 1.1-7.9 3a20.9 20.9 0 0 0-5.2 6.6 12.5 12.5 0 0 1 2.9-6.9c2.6-3 6-3.5 9.7-3.2a.5.5 0 0 1 .5.5Z" class="p"/><path d="m304.7 84.4 3.5 4.8a1.2 1.2 0 0 1 0 1.7c-.3.4-.8.4-1.3.5-5.7 1.1-11.2 2.9-16.9 4.4s-12.3 3.3-18.5 4.9l-6 1.6a1 1 0 0 1-.9-.2c-2.2-3.8-4.4-7.7-6.5-11.6a1.7 1.7 0 0 1-.3-1 2.9 2.9 0 0 1 .8-1.3 8.7 8.7 0 0 0-.2-10.1 8.1 8.1 0 0 0-1.4-1.2 2.7 2.7 0 0 1-1-1.6c1-2.9 2.4-5.6 3.6-8.4 1.9-4.5 3.9-8.9 5.7-13.5a23.9 23.9 0 0 0 1.3-2.8c.2-.6.5-1.2 0-1.8a7.5 7.5 0 0 1 .1-2.6c.2-.2.4-.2.5-.1s2.9 1.9 4.5 2.7a10 10 0 0 0 3.8.8 4.4 4.4 0 0 1 2 .2h.6c1.3.4 1.7 1.5 2.4 2.4L294 70c2.3 3 4.7 6 6.8 9.2l.3.4c.2.1.1.4.3.5l.5.6.3.3c.1.1.3.2.2.4h.1a.5.5 0 0 1 .2.4l.4.4c.1.3.3.4.5.6l.3.6.3.2c.1.3.4.5.5.8Z" class="ab"/><path d="m284 47.9 7.3 10.1c2.6 3.7 5.4 7.3 8.1 11s4.3 6.1 6.6 9 3.4 5.4 5.7 7.7l-1.5 2.2c-.7 1.1-1.3.6-1.8-.1a26.7 26.7 0 0 0-2.4-3.2c-.1-.3-.4-.4-.4-.7a3.9 3.9 0 0 0-.8-1c-.2-.1-.3-.2-.3-.4l-.4-.4c0-.1-.2-.2-.2-.3-.2-.1-.1-.4-.3-.5l-.5-.6q-.3-.2-.3-.3c-.3-.5-.5-1.1-1-1.4s-.2-.3-.4-.5a27.2 27.2 0 0 1-3.4-4.2c-4.3-5.8-8.7-11.5-13-17.2-1.4-1.8-2.9-3.7-4.3-5.7s-1.2-1.7.7-2.5l.6-.2h.2c.1-.2.4-.1.6-.2Z" class="aa"/><path d="M269.8 37c.1.8.8.6 1.2.6a14.8 14.8 0 0 1 4.7.5 2.8 2.8 0 0 1 1.9 1.9 2.2 2.2 0 0 0 1.5 1.6c1.8.7 3.4 1.7 5.4 1.8s.7.3.4.7c-1.5 1.9-2.9 4-5.6 4.3a2.4 2.4 0 0 0-1.8 1 7.3 7.3 0 0 1-3.6.2c-3-1.1-5.2-3.2-7.3-5.5s-1.5-3.7-1.4-5.7 1.7-.9 2.7-1a1.3 1.3 0 0 0 1.4-.5Z" class="l"/><path d="M278.6 25.8a.6.6 0 0 1 .6.3 15.1 15.1 0 0 1-.7 5.6c-.4 1.3-.4 2.7-1.6 3.7l-1.6.3c-2.5-1.5-4.2-3.9-6.1-5.9a7.6 7.6 0 0 1 3.7-2.7 12.5 12.5 0 0 1 5.7-1.3Z" class="c"/><path d="M282 48.7c-.1.4-.6.4-.9.5s-1.2.8-.5 1.7c4.5 5.8 8.9 11.7 13.3 17.5l7 9.3a2.2 2.2 0 0 1 .5.8c-.4 0-.6.3-.6.7-2.4-2.6-4.3-5.5-6.4-8.2l-13.3-17.4a26.3 26.3 0 0 0-3-3.8c1.4-.2 2.5-1.1 3.9-1.1Z" class="d"/><path d="M276.9 35.4a25.7 25.7 0 0 0 2-8.6 2.1 2.1 0 0 1 .3-.7c2.3.2 3.1 1.9 3.9 3.8a9.4 9.4 0 0 0 2 3.5c.7.6-.2 1.4.4 2a27.6 27.6 0 0 0-8.6 0ZM269.2 29.9c1.7.8 2.7 2.3 3.9 3.7s1.8 1 2.2 2.1c-1.5.7-3.3.7-4.9 1.1l-.6.2h-.5a2.2 2.2 0 0 1-1.1.5 8.3 8.3 0 0 0-2.8.8c-.7.4-1 0-1.1-.6a2.8 2.8 0 0 1 .1-2c1.3-.8 1.7-2.3 2.5-3.5s1-2.1 2.3-2.3Z" class="g"/><path d="M273.7 49.4h3.8v.4a10.2 10.2 0 0 1-6.2-.8c1-.8 1.6 0 2.4.4ZM282.8 48.4a.4.4 0 0 1-.6.2.4.4 0 0 1 .6-.2Z" class="d"/><path d="m215.2 71 .8-.2c.7 0 1 .4 1.4.9 2.7 4.5 5.7 8.8 8.5 13.2s4 6.1 5.8 9.1c.3.5.6.9.2 1.4a26 26 0 0 1-4.7 1.6c-5.5 1.8-10.9 3.7-16.4 5.4l-11.4 3.8a2 2 0 0 1-1.7.1l-.2-.3c-1.1-3.8-3.6-6.5-6.7-8.8l5.9-9.5c3.6-5.9 7.2-11.7 10.7-17.6.7.1 1.2.6 1.9.5l.6.2h.6a.4.4 0 0 1 .5.1c.9.5 1.9.2 2.8.2h.7c.3.2.4-.1.7-.1Z" class="ac"/><path d="M211 71c-.2.1-.4.1-.5-.1s.4-.3.5.1ZM209.9 70.8c-.2.1-.4 0-.6-.2a.4.4 0 0 1 .6.2Z" class="k"/><path d="M213.5 59.8h-.5a15.7 15.7 0 0 1-4.4-5.2c-.2-.4.1-.6.3-.7s3.2-1.8 5.2-1.6.9.7.8 1.2a62.1 62.1 0 0 1-1.4 6.3Z" class="c"/><path d="M214.1 52.4a13.4 13.4 0 0 0-5.5 2.3l-2.2 1.6c-.3.2-.5.3-.7.1s-.1-.5 0-.7c1.2-2.6 5.6-4.3 8.4-3.3Z" class="z"/><path d="M310.7 95.5a6.6 6.6 0 0 0 2.8-.5c.2.8.9.8 1.5.8 2.2.1 4.1.8 5.1 2.9a4.1 4.1 0 0 0 3.4 2.1c.5 0 1.2 0 1.3.4s-.5.8-.8 1.1-2.8 1.5-4.1 2.5-2.3 0-3.3-.4a9.9 9.9 0 0 1-6.5-7.1c-.2-.9.3-1.2.6-1.8Z" class="l"/><path d="M307.7 95.6h-.3c-1.2-1.5-1.1-2.4.4-3V94c-.3.4 0 1-.1 1.6Z" class="v"/><path d="M49.7 143.8a1.7 1.7 0 0 1 .1 1 41.5 41.5 0 0 0-1.1 4.8c-.2 1-.8 1.1-1.4.6a14 14 0 0 1-3.5-4.2c0-.7.6-.8 1-1.1a10.4 10.4 0 0 1 4.9-1.1Z" class="c"/><path d="M49.7 143.8c-1.5.5-3.2.5-4.7 1.4s-.9.4-1.2.8-1.1.8-1.6 1.2-.4.7-.9.3-.1-.7.2-1a6.9 6.9 0 0 1 5.7-2.9h1.3l1.2.2Z" class="z"/><path d="m324.7 160.5-19.1-.2v-1.1c-.1-.1-.1-.2.1-.2 1.5-3.3 5.1-3.7 7.7-5.5s6-3.5 9-5.3c.5-.3 1-.6 1 .3.3 4 .6 8 1.3 12Z" class="ab"/><path d="M305.6 159v.2c-.4 0-.9.1-1.2-.2-1.8-2-3.9-1.4-5.9-.4s-4.1.3-6.1-2.1c0-.3.1-.3.3-.3h6.7a3.1 3.1 0 0 1 1.9.4c.8.5 1.3.2 1.3-.9s-.9-3.3-1.9-4.7a9.9 9.9 0 0 0-3.9-3.4 2.9 2.9 0 0 1-1.6-2.7c1.1-.6 2-.1 2.9.3a7.8 7.8 0 0 1 2 1.1c.5.5 1.1.8 1.5 1.3s1.1 1 1.4 1.7l.7.8a10.3 10.3 0 0 1 2.1 5.2c0 .2-.1.5 0 .7a.9.9 0 0 1-.1.5c.2.8-.3 1.6-.1 2.5Z" class="h"/><path d="m292.6 156.2-.3.3-1.3.3a9.8 9.8 0 0 1-2.8-5.4c-.1-1.2-1.4-.9-1.9-1.5a.8.8 0 0 1 .4-.9 12.7 12.7 0 0 1 6.8-2.1l.7.2c-.2 2.9-.1 5.9-1.5 8.6a.7.7 0 0 0-.1.5Z" class="q"/><path d="M57.6 215.5v-.3l.2-.3a12 12 0 0 0 .9-7c.1-.5.5-.6.9-.8 7.1-3.4 13.9-7.5 20.9-11.2 4.8-2.5 9.5-5.1 14.2-7.7a2.8 2.8 0 0 1 2.5-.4 2.2 2.2 0 0 1 1.2.9c.3 1.4-.4 2.6-.8 3.8-1.3 4.8-2.9 9.5-4.3 14.2s-3.1 9.9-4.6 14.9a2.2 2.2 0 0 1-.8 1.4c-.3.2-.5.4-.8.4-2.6-.1-5.1-1.1-7.6-1.8l-12-3.3-.8-.2-8.3-2.2c-.3-.1-.6-.1-.8-.4Z" class="a"/><path d="m50.5 171.3.2-.5c.1-.2.3-.2.6-.2a1.2 1.2 0 0 1 .6.8c1 3.1 2.4 6 3.4 9 .2.6.5 1.2.2 1.8s-.7.4-1.1.5a3.4 3.4 0 0 0 1 0 2.2 2.2 0 0 1 1.3 1.5c.9 2.8 2 5.6 3 8.4a16 16 0 0 1 1 2.3l-3.1-8.4c-.4-1.3-1.3-2.5-.9-4l.6-.3a22.5 22.5 0 0 1 3.6-.6c.5.1.8-.2 1.2-.4 7.4-1 14.7-2.6 22.1-3.8a29.9 29.9 0 0 1 5.2-1c1-.1 1.4.3 1.4 1.2a2 2 0 0 0 .4 1.3 6.3 6.3 0 0 1 .3 2.7c-.2.6-.8.8-1.3 1.1-5.5 2.7-10.8 5.8-16.2 8.5-3.6 1.9-7.1 3.8-10.8 5.5-.7.3-1.3.5-1.7.1-2.2 2.5-5.1 3.7-8.2 4.8h-1l-.5-.7a1.3 1.3 0 0 1-.4-1c.1-2.3-.5-4.6-.3-7v-1.5a42.2 42.2 0 0 1-.3-6.2 1.4 1.4 0 0 1 .1-1.1l.6-.5h.8c-.4-.4-1-.3-1.3-.7l-.3-9.8c-.1-.8-.1-1.3-.2-1.8Z" class="y"/><path d="m73.9 243.6-8.5-11.4-9-12.3-.6-1-.4-1 1.8-1.9c2.4.5 4.8 1.2 7.1 1.9l7.3 2 8 2.2c.3.2.6.5 1 .4a48.7 48.7 0 0 1 5.2 1.2 2.2 2.2 0 0 1 1.5.8 1.8 1.8 0 0 1 0 1.6c-1.4 4-2.4 8.1-3.7 12.2a2.4 2.4 0 0 1-.6.9c-1.3.9-1.1 2.3-1 3.7a1.1 1.1 0 0 1-.6.9 3.5 3.5 0 0 1-2.8.5c-1.6-.3-3.3.2-4.7-.7Z" class="a"/><path d="M58 206.4c-.6-1.6-1.9-2.6-2.9-3.8a.8.8 0 0 1-.2-1 15.3 15.3 0 0 1 4-2.1l.5-.2c4.1-2.4 8.4-4.6 12.7-6.8s9.6-5.2 14.5-7.7a28.2 28.2 0 0 1 4.9-2.5h.4l3.6 4.7a3.3 3.3 0 0 1-1.9 1.4c-9.1 4.7-17.8 9.8-26.8 14.6l-6.3 3.3a4.6 4.6 0 0 1-1.9.8l-.5-.5c-.1 0-.3 0-.1-.2Z" class="ac"/><path d="M47.4 201a5.4 5.4 0 0 0-2.2.5 2.1 2.1 0 0 1-.3-1.5c0-3.4-.1-6.8 0-10.2a38.5 38.5 0 0 0 .2-4.8 11 11 0 0 1 4.7-1 .9.9 0 0 1 .6.4 4.5 4.5 0 0 1 .4 2c-.1 1.7.4 3.3.4 5a21.8 21.8 0 0 0 .1 5.7c.2 1.2.6 2.5-.4 3.6a.1.1 0 0 0 .1.1 6.7 6.7 0 0 1-2.8.1Z" class="ab"/><path d="M58.6 207.2c3-2 6.3-3.5 9.4-5.2l17.7-9.6 9.1-4.9.6-.5c.8 0 1.7-.2 1.7 1.1a1.9 1.9 0 0 0-1.8.1c-6.8 3.8-13.6 7.6-20.5 11.3-5.4 2.8-10.6 5.9-16.1 8.4Z" class="e"/><path d="M91.5 182.5 79.3 189l-9.8 5.2-10.1 5.4-.3.2c-1.5.3-2.6 1.4-4 1.8s-.6.4-1 .2a.8.8 0 0 1-.8-.2L60 198c.5-.3 1-.6.8-1.3s-.1-.7.3-.9.5.3.6.6.6.3 1.1.1c3.1-1.3 6.1-3 9.1-4.6 6.5-3.3 12.9-6.9 19.4-10.1.4-.1.4.2.4.5Z" class="r"/><path d="M79.8 222.4 60 217a7.3 7.3 0 0 1-2.8-1l.4-.5c3.1.5 6.1 1.6 9.2 2.3h.6l19.7 5.5a.4.4 0 0 1 .5.2 1.4 1.4 0 0 1 0 .9h-.3a48.3 48.3 0 0 0-6.8-1.7c-.3.3-.5-.2-.7-.3Z" class="h"/><path d="M50.8 202.6a3.4 3.4 0 0 1 2.9 1.1 13.9 13.9 0 0 1 2.4 3.4c.7 1.4 0 2.5-1.7 2.4a34.4 34.4 0 0 0-4.6-.3 2 2 0 0 1-.2-1.7c.3-1.5.7-3 1-4.5s.1-.2.2-.4Z" class="g"/><path d="M50.8 202.8c.3 1.7-.7 3.3-.8 4.9a7.7 7.7 0 0 0-.2 1.5H49a3.1 3.1 0 0 1-1.6-1.4 10 10 0 0 0-2.8-3c.2-1 1.1-1.1 1.8-1.5a5.2 5.2 0 0 1 4.4-.5Z" class="c"/><path d="M50.8 202.8a9.2 9.2 0 0 0-6.2 2l-2 1.6c-.7.6-.7.1-.7-.4s.8-1 1.2-1.4 2.6-1.7 4-2.5h2.6c.5 0 .9 0 1.2.5Z" class="z"/><path d="M50.9 200.7c.6-1.9.1-3.7-.1-5.5a9.7 9.7 0 0 1 .1-3.8c.2-.2.4-.2.5-.1v1.1h.1l.3 8.3Z" class="n"/><path d="M48.2 200.9a6.6 6.6 0 0 1 2.8-.1 2.3 2.3 0 0 1-2.8.1Z" class="c"/><path d="m54.1 201.8 1-.2v1ZM55.4 217.9c.5.2.5.6.4 1s-.5-.6-.9-.6.2-.4.5-.4ZM57.8 214.9l-.2.3c-.1-.1 0-.2.2-.3Z" class="w"/><path d="M58 206.4c.1 0 .2.1.1.3s-.2-.2-.1-.3Z" class="e"/><path d="M52.3 201.4Z" class="c"/><path d="M50.7 167.7v-.2c-.2-1.1.2-2.3-.2-3.3l-.2-1.6a5 5 0 0 1 .3-1.3 2.5 2.5 0 0 1 1.4-.6l.6-.3a15.2 15.2 0 0 0 4.4-4.7 3.1 3.1 0 0 1 3.2.1c5.6 2.9 11.2 5.7 16.9 8.4s8.5 4.4 12.9 6.4a4.7 4.7 0 0 1 1.9 1.2 1.1 1.1 0 0 1 .2.8c-.1.2-.1.4-.2.6a12.1 12.1 0 0 1-.8 2.5c0 .1-.2.2-.3.3-2.3.5-4.7.8-7 1.4-3.9.4-7.7 1.5-11.6 1.9l-.8.2H71c-.3.1-.5.4-.9.5-3.9.1-7.6 1.2-11.4 1.8-.3-.1-.6.1-.9.3h-.6a2.8 2.8 0 0 1-1.2-.4c-1.6-4.1-3.3-8.2-4.8-12.4v-1.2Z" class="ac"/><path d="M49.5 142.1c0-6.3.2-12.5.6-18.8 2.3-.6 4.5-1.4 6-3.5a2.2 2.2 0 0 1 1 1.9 1.2 1.2 0 0 0 .4 1.4c4 5 8.3 9.8 12.3 14.7.5.6 1.5 1.1 1.1 2.1a14.5 14.5 0 0 1-3.5 1.2l-11.2 3.5c-.5.2-1.1.6-1.6 0a7.2 7.2 0 0 0-2.4-1.4c-.3.1-.5-.2-.7-.4a2.8 2.8 0 0 0-1.5-.4c-.2.1-.3-.1-.5-.2Z" class="y"/><path d="M57.5 154.7c.5-3.1.3-6.1-1.9-8.7-.5-.8.2-1 .7-1.2 2.7-1 5.5-1.7 8.3-2.6a30.2 30.2 0 0 1 6.5-1.9 2.1 2.1 0 0 1 1.8 1.1c1.1 1.5 2.3 2.8 3.4 4.1s.8 1.4-.4 2a58.2 58.2 0 0 1-6.4 2.7l-10.2 4.2a2.7 2.7 0 0 1-1.8.3Z" class="aa"/><path d="M57.5 154.7c5-1.8 9.8-4 14.7-5.9l3.9-1.7c.4-.1.9-.4.5-.8-1.9-1.9-3.1-4.3-5.3-6-.3 0-.5-.2-.3-.5-3-4.1-6.4-7.8-9.7-11.7l-4.5-5.4c-.3-.4-.8-.8.2-.8s.9.4 1.3.8L72 139l.9 1c1.2 1.8 2.7 3.4 4 5.1a1.5 1.5 0 0 0 2 .5l5.7-2.4a35.8 35.8 0 0 1 5.5-1.9c.6-.1 1.3-.5 1.3.6a11.4 11.4 0 0 1-3.5 1.7l-8 3.3c-.9.4-.7.8-.2 1.4 2.7 3.2 5.3 6.6 8 9.8s4.8 5.5 7.1 8.4c.3.4.7.7.5 1.3a.5.5 0 0 1-.6.4c-1.9-1.3-3.1-3.3-4.6-4.9l-11.7-14.2a1.9 1.9 0 0 0-2.5-.6c-5.3 2.4-10.9 4.4-16.2 6.7-.8.1-1.7.6-2.2-.4Z" class="p"/><path d="M57.5 154.8a2.2 2.2 0 0 0 2.1.1 6.5 6.5 0 0 1 3.3 1.4l13.2 6.5c.5.2 1.1.4 1.3 1s-.1.6-.4.7l-16.9-8.4a4.2 4.2 0 0 0-3.1-.4c0-.4.3-.6.5-.9Z" class="e"/><path d="m71 139.8.3.5a65.7 65.7 0 0 1-6.7 2.2c-2.7 1-5.6 1.8-8.4 2.7-.5.1-.6.4-.6.8s-1-.6-1-1.4a86.4 86.4 0 0 0 8.3-2.4Z" class="z"/><path d="M50.6 161.3c0 .4.2.9-.3 1.3h-.2v-1.1ZM52.6 160.4c-.1.3-.2.6-.6.3s.3-.3.6-.3Z" class="w"/><path d="M51.5 142.8a.8.8 0 0 1 .7.4c-.4.1-.6.1-.7-.4ZM49.5 142.2l.5.2Z" class="g"/><path d="M76.2 252.3a1.4 1.4 0 0 1 .8 1 6.3 6.3 0 0 0 3.1 3.5c.4.2 1 .3 1 .8s-.6.8-.9.9-2 1.6-3 1.7a6.7 6.7 0 0 1-7-4.9c-.2-.8.4-1.2.5-1.9Z" class="m"/><path d="M70.8 250.9a5.2 5.2 0 0 1 5.1-4.9c.7 0 2-.4 2 .4s-1.1.3-1.8.4-3.6 1.7-4.9 3.4Z" class="p"/><path d="M73.9 243.6a44.5 44.5 0 0 1 5 .5 11.7 11.7 0 0 0 2.7-.5 2.8 2.8 0 0 1-.3 2 .5.5 0 0 1-.5.3c-.3-.1-.5-.5-.8-.5a1.6 1.6 0 0 0-1.3-.4l-.9-.3a4.5 4.5 0 0 0-1.6.1l-.8.2h-.6Z" class="a"/><path d="M75.4 245a.6.6 0 0 1 .8-.2c-.2.4-.5.5-.8.2ZM77.8 244.7a.8.8 0 0 1 .9.3c-.4.3-.6 0-.9-.3ZM80 245.4c.3-.2.5 0 .6.3s-.1.2-.3.1Z" class="t"/><path d="M80.3 245.8h.8c-.3.2-.6.3-.8 0Z" class="i"/><path d="M305.6 156.5v-.6c-.1 0-.1-.1-.1-.2h.1a16.3 16.3 0 0 0-2.2-5.5c-.2-.2-.3-.6-.6-.7l-1.3-1.6a1.4 1.4 0 0 1-.2-.7c.1-.5.6-.9.8-1.3l.2-.3a54.4 54.4 0 0 0 4.9-4.7c.2-.1.3-.1.4 0 2.4.1 4.3 1.5 6.4 2.3s6.1 2.5 9.2 3.8c-.1.2-.1.4-.3.5-3.6 1.1-6.5 3.5-9.8 5.3s-4.3 2.4-6.5 3.7Z" class="ab"/><path d="M308.7 139.8a54.5 54.5 0 0 1 4.6-5 11 11 0 0 0 2.8-4.6c.9-2.9 2.3-5.6 2.9-8.5a4.1 4.1 0 0 1 1.6.2c-.1 3.4.6 6.7 1 10s.4 4.6.7 6.9l.6 6c.1.3.2.6-.1.8-4.8-1.7-9.5-3.7-14.1-5.8ZM329.8 149.4a24.2 24.2 0 0 0 4 1.9c-.2 1.7-1.4 3-2 4.6s-1.4 3.1-2.1 4.7a21.6 21.6 0 0 1-4.4-.1c-.3-3.5-.6-7-1.1-10.5a3.7 3.7 0 0 1 .3-2.7 34.4 34.4 0 0 0 5.3 2.1Z" class="a"/><path d="M325.6 161.5a13.7 13.7 0 0 1 3.5.2c-.9 1.7-1.8 3.4-2.6 5.1h-.3Z" class="aa"/><path d="m317.3 186.4 4.9-.9 1.4-.2c1.2.9.9 2.5 1.8 3.6a3 3 0 0 0 2.5 1.4c.5 0 1.6 0 1.4.8s-.1 1.9-1.6 1.7a4.6 4.6 0 0 0-2.3.8 4.4 4.4 0 0 1-3.4.6c-1.8-.6-3.6-1.2-4.4-3.2-.1-.4-.4-.6-.6-.9s-1-2.5.3-3.7Z" class="m"/><path d="M323.6 185a4.1 4.1 0 0 1-2.3-2c-.5-1.2-1.7-1.4-2.9-1.2s.6-1.2 1.1-1.6a12.2 12.2 0 0 1 5.5-2c.8 0 1 .3.8 1.2l-.9 4.3c-.1.4-.1.9-.2 1.3Z" class="q"/><path d="M287.3 145.5c-3.1 1.2-5.2 3.5-7 6.1-.7.3-1-.2-1.4-.5-3.7-3.5-7.6-6.7-11.4-10.1s-5.7-5.3-8.6-7.8-6.9-6.3-10.5-9.3a2.7 2.7 0 0 1-1.3-1.8.9.9 0 0 1 .3-.6l.3-.5a9.6 9.6 0 0 0 2.7-3.3 1.4 1.4 0 0 1 .8-.7c2.1.4 3.8 1.7 5.8 2.1s6.1 2.7 9.2 4 4.3 1.7 6.4 2.8a9.4 9.4 0 0 0 2.3 1l.7.3c2 .5 2.9 2.1 3.8 3.8 2.4 4.4 4.9 8.8 7.4 13.2.2.4.3.9.5 1.3ZM256.9 90.5l7.6 13.8c.3.5.4 1 .7 1.5s-1.6.3-2.4.5c-3.3.6-6.5 1.5-9.8 2.3a4.1 4.1 0 0 1-1.9.1c-.6-.2-.8-.8-1.1-1.3-1.6-2.1-3.5-3.8-6.3-4.1h-.6a2.3 2.3 0 0 0-1.2-.2 16.3 16.3 0 0 0-3.1.3h-.4l-.6-.2c-.6-.4-.9-1-1.5-1.4l-.2-.3a13.4 13.4 0 0 0-2.5-4.3c-.1-.1-.2-.2-.2-.3a1.6 1.6 0 0 1-.3-.9c.1-.8.8-.9 1.4-1.2 2.9-1.1 6-2.1 9-3.1.4-.1 1.2 0 1.1-.9a1 1 0 0 1 .1-.9c.5-.3.8.2 1.1.4a10.9 10.9 0 0 0 3.3 1.5c2.3.3 4.5.4 6.5-.9a1.5 1.5 0 0 1 1.3-.4Z" class="y"/><path d="M265.2 105.8c1.3 1.4 1.9 3.2 2.8 4.8 2.9 5 5.7 10.1 8.6 15.2a4.5 4.5 0 0 1 .2.8c-1.6 0-2.8-1.2-4.2-1.4a17.2 17.2 0 0 1-4.5-1.6c-2.7-1.1-5.4-2.1-8-3.4a2.8 2.8 0 0 0-1.5-.6.6.6 0 0 1-.6-.3.8.8 0 0 0-.8-.2l-.5-.2c-1.6-.9-3.6-1.2-5.1-2.4a2.5 2.5 0 0 1-.4-.7c-.3-.8.4-1.3.4-2s-.5-2.6-.4-4 1.8-1.3 2.9-1.4c3.4-.6 6.8-1.5 10.2-2.2Z" class="a"/><path d="M300 146.6c-1.6-.6-3-1.7-4.9-1.7a8.7 8.7 0 0 0-4.8-.3c-.7.1-1.3.5-2.1.2-2.6-4.8-5.3-9.6-7.9-14.5-.2-.3-.5-.6-.3-1s1 .1 1.5.3l23.8 9.9a3.3 3.3 0 0 1 1 .6.9.9 0 0 1 .3.7c-.4 1.1-1.4 1.7-2.1 2.5a13.7 13.7 0 0 0-2.3 2.5 1.6 1.6 0 0 1-.9.5Z" class="ac"/><path d="M307.8 92.5c-1.3.9-.9 1.9-.4 3-3.4.6-6.8 1.6-10.2 2.4l-18.6 4.3-12.3 3.1a19.6 19.6 0 0 1-1.7-3.2h.8c2.3 0 4.4-.8 6.6-1.4q8.4-2.4 16.8-4.5c5.6-1.6 11.3-3 17-4.5.7-.2 1.5-1 2.2 0Z" class="aa"/><path d="M256.9 90.5a9.3 9.3 0 0 1-7.9 1.4c.2-.7.8-.6 1.3-.5 2.1 0 3.7-1.1 5.4-2a.9.9 0 0 0 .7-.9 1.2 1.2 0 0 0-.9-.9l-2-.6a3.1 3.1 0 0 1-1.9-2c-.2-.9-1.1-1.3-1.5-2.1a.7.7 0 0 1 .2-.6 6 6 0 0 1 1.9-.6 27.5 27.5 0 0 1 4 .2c1.6.3 2.2-.5 1.4-2.1a9.2 9.2 0 0 0-3.3-3.5c-.7-.4-1.3-.8-.6-1.7a1.8 1.8 0 0 1 1-.2l1.1.5c.1.1.2.2.2.3a15.3 15.3 0 0 0 1.8 1.8 8.8 8.8 0 0 1 1.1 11.2 6.9 6.9 0 0 1-1.1 1.3 1.2 1.2 0 0 0-.9 1Z" class="k"/><path d="M259.9 119.8c4.2 2 8.6 3.3 12.7 5.4v.7c-2.3-.5-4.3-1.7-6.4-2.5s-6.3-2.5-9.3-4a.4.4 0 0 1 .1-.7l.5.2.5.2.6.3Z" class="s"/><path d="M265.2 105.8a2.5 2.5 0 0 1-1.9.9l-10.7 2.3a1.5 1.5 0 0 0-1.2.8c-.8-.2-.7-.8-.5-1.4a2.5 2.5 0 0 0 1.9-.1l10.2-2.4a5.4 5.4 0 0 1 2.2-.1Z" class="t"/><path d="M275.6 127.2c-.3.1-.5-.1-.7-.3a.5.5 0 0 1 .7.3Z" class="s"/><path d="M279.5 129c.2 0 .5 0 .5.3s-.4-.1-.5-.3Z" class="ac"/><path d="M320.6 85.6c2.3-.1 3.3 1.7 4.3 3.2a21.2 21.2 0 0 0 1.2 2 1.8 1.8 0 0 1 .1 2.2c-.4.9-1 .6-1.6.6h-5.4v-.3c-.3-.5.1-.9.2-1.4s.5-3.3.8-5 0-.9.4-1.3Z" class="b"/><path d="M308 91.7a1.1 1.1 0 0 0-1.2 0l-15.6 4.1-11.4 3c-3.7 1.1-7.4 1.9-11 3.2a21.4 21.4 0 0 1-2.7.6c-.5.1-.6-.1-.7-.5s1.2-.4 1.8-.6l16-4.3 8.8-2.3 13.1-3.5a15.4 15.4 0 0 1 3.1-.5c0 .3.1.6-.2.8Z" class="v"/><path d="M320.6 85.6a24.4 24.4 0 0 1-1.4 7.7c-1.6.2-2.6-.7-3.3-2.1a35.4 35.4 0 0 1-1.6-3.4c.4-1.1 1.4-1.2 2.3-1.6s2.1-.3 3.1-.8.7-.1.9.2Z" class="c"/><path d="M319.7 85.4c-.2.7-.9.7-1.4.8a7.1 7.1 0 0 0-4 1.6 11.3 11.3 0 0 0-2.7 2.2c-.3.2-.6.7-1 .4s0-.8.3-1.2a8.8 8.8 0 0 1 5.6-3.8Z" class="z"/><path d="M305.6 83.9c.3.1.3.4.4.7s-.5-.3-.4-.7ZM304.7 84.4c-.3-.2-.5-.4-.5-.7s.5.3.5.7ZM303.6 82.9c-.3-.1-.5-.2-.5-.6a.6.6 0 0 1 .5.6ZM303.1 80.7c.3.1.4.3.5.6s-.6-.3-.5-.6ZM301.9 80.7c-.3 0-.4-.3-.5-.6s.6.3.5.6ZM301.4 78.5a.7.7 0 0 1 .4.5c-.3 0-.4-.2-.4-.5Z" class="d"/><path d="M301.4 80.1c-.2 0-.3-.2-.3-.5a.5.5 0 0 1 .3.5ZM303.6 81.3a.5.5 0 0 1 .3.5.5.5 0 0 1-.3-.5ZM302.8 80.4l.3.3ZM302.4 81.4l-.2-.4a.5.5 0 0 1 .2.4ZM302.7 81.9l-.2-.4ZM303.9 81.8l.2.3ZM304.5 82.5l.3.4c-.2-.1-.3-.2-.3-.4ZM304.2 83.7l-.3-.2Z" class="d"/><path d="M193.7 220.7c.1-.4.4-.5.8-.4a.8.8 0 0 1-.8.4Z" class="w"/><path d="M258.6 271.5a5.3 5.3 0 0 1-1.8-2.6c-.5-1.3-1.8-1.1-2.9-.9a1.3 1.3 0 0 1 1-1.4c1.5-.8 2.9-1.7 4.7-1.7a1.5 1.5 0 0 0 .9-.2c.7.1.5.6.4 1-.2 1.9-1.1 3.6-1 5.6Z" class="q"/><path d="m87.5 250.3-2.8.5a1.4 1.4 0 0 1-.3-1.1 1.8 1.8 0 0 0-.5-.7 9.2 9.2 0 0 0-1.9-2.5c-.2-.1-.2-.4-.2-.6a7 7 0 0 1 .6-3.2c1.7-5.3 3.1-10.6 5-15.9.2-.6.1-1.3.5-1.9a.9.9 0 0 1 .6-.3c2.8.5 5.4 1.5 8.1 2.2s6.1 1.8 9.2 2.4a1.1 1.1 0 0 1 .8.2.8.8 0 0 1 0 1.1c-3 5.1-5.5 10.4-8.5 15.4l-.3.3-.5.3a4.1 4.1 0 0 0-4 2.3l-.4.8-4.6.6a.8.8 0 0 0-.8.1Z" class="ac"/><path d="M88.1 224.9c-1.8 6.1-3.6 12.1-5.5 18.1a24.6 24.6 0 0 1-.7 2.9c0 .2-.1.3-.2.2h-.6v-.2c.2-.8.3-1.5.5-2.2a1.1 1.1 0 0 0 .2-.8 5.1 5.1 0 0 1 1.1-3.7c1.3-3.4 2.1-7 3.2-10.5a19.3 19.3 0 0 0 1.2-4.1h.1a.7.7 0 0 1 .7.3Z" class="e"/><path d="M82 246.5a2.9 2.9 0 0 1 1.9 2.5c-.5-.9-1.6-1.4-1.9-2.5ZM83.9 249c.4.1.6.4.5.7s-.6-.3-.5-.7ZM81.7 246.1l.2-.2c0 .2.1.4.1.6s-.3-.2-.3-.4Z" class="w"/><path d="M48.5 115.3a.7.7 0 0 0-.6-.6.9.9 0 0 1-.7-1.4 3 3 0 0 0-.1-2.1c.8-1.5 2.4-1.1 3.7-1.2s.3 0 .4.1a5.4 5.4 0 0 1-.8 4.9h-.3a2.9 2.9 0 0 0-1.6.3Z" class="c"/><path d="m71.8 139.3-13.9-16.4-.9-1c-.1-.8-.9-1.3-.9-2.1a13.8 13.8 0 0 1 1.4-2.7l21.4 9.4 10.7 4.6c.6.3 1.8.7 1.5 1.5s-1.6 1.4-2.6 1.7h-1.4l-7.7 2.8a44 44 0 0 1-5.1 1.8 4.3 4.3 0 0 1-2.5.4Z" class="ac"/><path d="M91.2 141.9c-1.2-.6-2.3 0-3.3.5l-9.3 3.7a1.3 1.3 0 0 1-1.7-.3l-4.2-5.2c-.2-.1-.2-.4-.3-.6a22.5 22.5 0 0 1 7.1-2.2l10.7-3c.6-.2 1.1-.4 1.2.6a2.5 2.5 0 0 1 .4.9c-.1 1.7 1.1 3.2 1 4.9s-.8 1.2-1.6.7Z" class="y"/><path d="M91.4 136.2v-.8c0-1.5.8-2.8 1.2-4.2a.3.3 0 0 0 .3-.3c1.8-3.2 7.5-5.5 10.9-3.3a1.3 1.3 0 0 0 .8 1.4 8.6 8.6 0 0 1 2.8 4c.7 1.6 0 2.4-1.7 2.3a17.5 17.5 0 0 0-5.6.1c-2 .5-4.1.6-6 1.5s-1.9-.2-2.7-.7Z" class="g"/><path d="M79.5 137.8c-2.3.8-4.7 1.6-7.1 2.2l-.6-.7a27.7 27.7 0 0 0 4.9-1.5l2.7-.6a1.3 1.3 0 0 1 .1.6Z" class="z"/><path d="M306.3 140.9v-.8c.4.2 1 .2 1.2.7h-.3a.6.6 0 0 1-.9.1Z" class="y"/><path d="M269.2 29.9a12.7 12.7 0 0 0-2.1 2.5c-.7.2-.8-.1-.7-.6a8.6 8.6 0 0 1 3.5-4.6c.9-.3 1.7-1.1 2.6-1.2s4-.5 6.1-.2c-1.7.5-3.4.7-5 1.3a15.7 15.7 0 0 0-4.4 2.8Z" class="z"/><path d="M50.4 115a20.9 20.9 0 0 0 .8-4.9c1.7 0 3.7 1.7 3.7 3.3a1.6 1.6 0 0 1-1.5 1.6Z" class="b"/><path d="M50.9 110.1a7 7 0 0 0-3.8 1.1 6.6 6.6 0 0 0-1.7 1.2c-.1.2-.3.5-.6.3s-.2-.5.1-.8a5 5 0 0 1 3.9-2.1h2.1a.2.2 0 0 1 0 .3Z" class="z"/><path d="M50.9 110.1v-.3l.3.3Z" class="g"/><path d="M260.5 264.7c-1.6.7-3.5.9-5 1.9s-1.3.7-1.6 1.4-1 1.2-1.7 1.7a.6.6 0 0 1 0-.6 2.8 2.8 0 0 1 .1-.9 8 8 0 0 1 6.5-3.5Z" class="p"/><path d="M160.5 43.1c-2.2 0-3.5-1.2-3.3-2.8s.4-1 1.1-.9 3.2.6 5 .3 1.3.3.8 1.3-2 2.4-3.6 2.1Z" class="l"/><path d="M325 178.2c-1.7.8-3.6 1.1-5.2 2.1a6.7 6.7 0 0 0-1.4 1.5c-.3.6-1 .8-1.1 1.6-.4-1.2.1-2.5 1.6-3.6a8.7 8.7 0 0 1 4.2-1.7Z" class="p"/><path d="M244.1 238.7c.5-.6-.4-1.6.7-2 1.8 4 3.6 7.9 5.5 11.9s3.5 7.4 5.3 11.1a23.2 23.2 0 0 1 1.6 3.6l-1.4.6c-.3 0-.5-.2-.7-.5l-10.8-24.2c-.1-.1-.1-.3-.2-.5Z" class="w"/><path d="M252.2 269.1v.6a1.6 1.6 0 0 1-.7 1.6c-.2-1-.1-1.7.7-2.2ZM165.4 78.9l-.5.4a1.4 1.4 0 0 1 .6-1.3 2.8 2.8 0 0 0-.1.9Z" class="q"/><path d="M51.4 191.3h-.5c-.2-2.4-.5-4.8-.8-7.2-.1 0-.1-.1 0-.1h.8c.6 2.3.2 4.9.5 7.3Z" class="r"/><path d="M51 182.6c.3 0 .6-.1.8.1s1.4-.1 1.2.7-1 .4-1.5 0a1 1 0 0 1-.5-.4ZM50.2 184v.2l-.3-.2Z" class="w"/><path d="M93.3 248.8a2.8 2.8 0 0 1 2.6-2.5h1.5l.2-.2c1.9-3.2 3.7-6.5 5.5-9.7l3.3-5.9c.1-.3.3-.5.2-.9s.2-.4.4-.3.6.4.6.9c-1.8 3.1-3.5 6.3-5.3 9.5l-3.3 6a2.2 2.2 0 0 0-.3 1.8c-1.3-1.2-2.1.3-3.2.6s-1.4.7-2.2.7Z" class="s"/><path d="M14.4 241.6v-1c.1-.9.6-1.9 1.6-1.9a2.4 2.4 0 0 1 2.4 1.4c.4 1-.4 1.4-1.1 1.5Z" class="u"/><path d="M87.5 250.3c.1-.6.4-.6.8-.1a1.2 1.2 0 0 1-.8.1Z" class="w"/><path d="M51.2 169.4c.7.4.7 1.1 1 1.7 1.4 3.5 2.7 7.1 4 10.7a1.9 1.9 0 0 1 .5.9 71.9 71.9 0 0 0 2.7 7.8c.5 1.6 1.1 3.2 1.5 4.8a77.6 77.6 0 0 1-4.6-11.2 1.8 1.8 0 0 0-1-1.3c-.1-.2.1-.3.2-.5-.7-2.7-1.9-5.2-2.8-7.9s-.9-2.4-1.4-3.7-.3-.4-.3-.7l.2-.3Z" class="p"/><path d="M50.5 164.2c.8 1 .4 2.1.2 3.3a6.2 6.2 0 0 1-.2-3.3ZM51.1 170a6.4 6.4 0 0 0 .2.7h-.6c-.1-.3-.1-.6-.2-.9a.5.5 0 0 1 .6.2Z" class="w"/><path d="M51.1 170h-.6c-.1-.2-.1-.4.1-.4l.6.2a.4.4 0 0 0-.1.2Z" class="r"/><path d="M50.7 167.7c.3.1.6.1.4.5s-.4-.2-.4-.5Z" class="w"/><path d="M215.4 197.4v.9l-5.7-.6-.6-.2c-6.8-.8-13.7-1.4-20.5-2.4s-11.4-1.5-17.1-2c-3.9-.3-7.7-1.3-11.5-1.6l-6.2-.5c.3-1.1 1.3-1.1 2.1-1.4s4.7.8 7.1 1.1l1.9.3c-2.6-2.3-5.1-4.3-7.6-6.3a1.7 1.7 0 0 1-.5-1.5c.5-.5.9-.1 1.2.2l3.4 2.7a5.5 5.5 0 0 0 2.8 1.7l.6.3a5.3 5.3 0 0 0 4.5 3.3c2.9.2 5.8.7 8.7 1.1h.9c2.4 0 4.8.6 7.2.7.4.1.7.4 1.2.4a5 5 0 0 1 1.7.2h1.1a79.5 79.5 0 0 1 9.8 1.2 4.4 4.4 0 0 0 1.6.2c3.2.3 6.4.5 9.6 1.1.4.1.7.3 1.1.2l2.4.3a2 2 0 0 1 .8.6Z" class="x"/><path d="M155.8 189.7c-.5.6-1.4.7-2 1.3h-.4a.5.5 0 0 0-.5.3h-.1a1.8 1.8 0 0 1-1.3.3 6.1 6.1 0 0 1-5.4-2.9 2.2 2.2 0 0 1-.5-1.9 2.8 2.8 0 0 1 2.3-1.6c1.3-.1 2.5-.5 3.9-.5a9.7 9.7 0 0 0 2.4-.1 5.3 5.3 0 0 1 3 .5c.4.3.4.8.5 1.2s-.4 2.8-1.9 3.4Z" class="j"/><path d="M151.4 191.4h1.4l-.3 2.2c.1.2-.1.4-.1.6-.7 5.4-1.4 10.8-2.2 16.3s-1.2 8.7-1.9 13.1a11.3 11.3 0 0 1-.3 1.8h-.9c-.6-.6-.4-1.2-.3-1.9 1-8 2.1-16 3.3-23.9.2-2 .4-4 .7-6a4 4 0 0 1 .6-2.2Z" class="p"/><path d="M152.4 194.2c-.1-.2-.1-.5.1-.6s.1.4-.1.6Z" class="x"/><path d="M209.1 197.5c.2-.1.4 0 .6.2s-.5.2-.6-.2Z" class="w"/><path d="M155.1 227.6c-.3 0-.6-.1-.6-.5a.6.6 0 0 1 .6.5ZM157.3 228.9c-.4.1-.6-.1-.6-.5a1 1 0 0 1 .6.5Z" class="g"/><path d="M152.9 191.4c-.1-.4.1-.5.5-.3Z" class="x"/><path d="M156.6 228.4a.4.4 0 0 1-.5-.2ZM156.1 228.2l-.3-.3a.3.3 0 0 1 .3.3ZM154.1 227l-.5-.2Z" class="g"/><path d="M107.6 230.1c-.4-.1-.1-1.3-1-.6h-.7a.5.5 0 0 1-.1-.8 1.4 1.4 0 0 1 1.5-.2c.5.1.8.7 1.4.5 3.6.6 6.9 1.9 10.4 2.8l9.3 2.6c1.3.3 2.7.4 3.6 1.5a2.9 2.9 0 0 0-.2.9Z" class="o"/><path d="M151.4 191.4a28.8 28.8 0 0 1-.6 5.9c-1.2 9.2-2.5 18.3-3.7 27.4v.7a38.7 38.7 0 0 0-6.9 1.7 90.6 90.6 0 0 1-6.4-7.5c-3.5-4.2-7-8.5-10.7-12.6a10.7 10.7 0 0 1-1.3-1.9c0-1.8 1.2-3 2-4.3 2.6-4.9 5.5-9.5 8.3-14.3.3-.5.5-1.1 1.2-1.2 3 .4 6 .9 9 1.1l2.7.2a.9.9 0 0 1 .6.4c1.1 2.6 2.9 4.3 5.8 4.4ZM132 235.9c-7.5-2.1-14.9-4.1-22.3-6.3a3.8 3.8 0 0 0-1.5-.1 1.8 1.8 0 0 1 .5-1.9c2.4-4.3 4.6-8.6 7.1-12.8s3-5.4 4.5-8.1a2.4 2.4 0 0 1 .6-.8c1.1-.3 1.7.6 2.1 1.3 2.1 2.8 4.3 5.4 6.5 8l9.3 11.2c.4.6.8 1.2 0 1.7a14.7 14.7 0 0 0-6 6.6 2.5 2.5 0 0 1-.8 1.2Z" class="ab"/><path d="M146.8 240.2c-.9-1-2.2-1.7-2.8-3s-.8-1.3-1.1-2-1.2-2.7-2.8-3.3c-.1-.4.1-.6.4-.8a18.1 18.1 0 0 1 7.7-2.6.8.8 0 0 1 .8.2c.9-.1 1 .4 1.1 1.2s-.7 3.9-.9 5.9a11.7 11.7 0 0 1-1.6 4.4Z" class="c"/><path d="M138.8 228.1a.8.8 0 0 0 0-1.3c-4.1-4.9-8.4-9.9-12.4-15-1.2-1.5-2.9-2.8-3.7-4.8a2.1 2.1 0 0 0-1.7-1 1.3 1.3 0 0 1-.5-.6c-2.5-3.2-5.1-6.1-7.6-9.2s-3.5-4.1-5.2-6.2a1.6 1.6 0 0 1-.4-1.5.8.8 0 0 1 .9-.3c.8.3 1.2 1.1 1.7 1.7 3.5 4.4 7.2 8.6 10.8 12.9l.4.7c.2.6.7 1 .9 1.6 2 2.9 4.6 5.4 6.8 8.1 3.5 4.3 7.1 8.4 10.6 12.6l.8 1.3c-.5.3-.7 1.1-1.4 1Z" class="d"/><path d="M149 228.7c-3.2.4-6.3 1.1-8.9 3.2a9.6 9.6 0 0 0-2.9 2.4c-.2-.5-.9-.6-.9-1.2 2.9-4.2 7-5.5 11.9-4.9.4 0 .7 0 .8.5Z" class="z"/><path d="M167.6 117.7a30.1 30.1 0 0 0 2.2 2.8l.3.4v.2c.4.7-.2 1.1-.7 1.5l-6 4.5c-4 2.6-7.8 5.7-11.7 8.4a1.5 1.5 0 0 1-1.4.4c-.7-1.1.4-1.6 1-2.1l13.1-13.2a6.4 6.4 0 0 0 1.8-2.5 1.4 1.4 0 0 1 .8-.9Z" class="w"/><path d="M100.1 135.1c1.9-.6 3.8-.2 5.7-.3s1 .6 1.3 0a2.1 2.1 0 0 0 0-1.9c-1-1.4-1.6-3.1-3.3-3.9s-1-1 0-1.4a8.7 8.7 0 0 1 4.8 11.2 8.4 8.4 0 0 1-1.6 2.7c.1.3-.1.6-.3.9s-1.4 1.2-2.2 1.6a2 2 0 0 1-2 .2c-.5-.9-.1-1.4.7-1.8a10.1 10.1 0 0 0 2.3-1.2c.4-.3.8-.7.7-1.2s-.7-.5-1.1-.6a13.1 13.1 0 0 1-3.3-1.2 3 3 0 0 1-1.7-3.1Z" class="k"/><path d="M125.7 157.5c.7.3 1.1-.2 1.6-.6l13.4-13.2.8-.7c.3.2.3.5.4.7a2.9 2.9 0 0 1-1.3 1.9l-11.7 11.5-1.5 1.6a1.5 1.5 0 0 1-.6.5c-3.7 3.7-7.6 7.3-11.4 11a4.3 4.3 0 0 1-1.9 1.3.9.9 0 0 1-.8-1c3.7-3.8 7.7-7.3 11.4-11.1l.9-.7a1 1 0 0 0 .2-.7c0-.2 0-.3.1-.4s.2-.2.4-.1ZM166.3 118.1c.6.5.1.9-.3 1.2-2.6 3.1-5.6 5.7-8.3 8.6l-6.8 6.9c-.3.3-.9.5-.6 1.1v.2l-.2.2h-.3l-1 .4c-.4.1-.7.7-1.1.1 2.6-2.8 5.2-5.5 7.9-8.2Z" class="p"/><path d="m125.7 157.5-.4.4c-.5.3-.8-.1-1.2-.4-3.7-3-7.4-6.1-10.9-9.3l-5.2-4.5c-.6-.4-1.3-.8-1.3-1.6a.5.5 0 0 1 .3-.6l14.2 12.1a41.9 41.9 0 0 1 4.5 3.9Z" class="t"/><path d="M147.7 136.9c.5.1.8-.6 1.3-.4s.2.3.1.5a13.6 13.6 0 0 1-2.4 2.4 6.4 6.4 0 0 0-1.9 2.1c-.9 1.1-1.7 2.2-3.2 2.5a3.1 3.1 0 0 0-.1-1l5.5-5.5c.2-.2.7-.2.6-.6Z" class="h"/><path d="M147.6 136.9c.2.6-.2.6-.6.6s.4-.4.6-.6Z" class="p"/><path d="M166.9 115.6c.5.1.5.4.4.7a1 1 0 0 1-.4-.7ZM167.6 117.7c-.4.1-.5-.1-.5-.5h.3a.4.4 0 0 1 .2.5Z" class="g"/><path d="m92.9 130.9-.3.3Z" class="e"/><path d="M164.4 188c-1.4.4-2.2-.8-3.1-1.5l-4.3-3.4c-1-.8-1.8-1.9-2.7-2.7s0-1.8.1-2.7a1.9 1.9 0 0 1 .4-.9 2.2 2.2 0 0 0 .5-.8c.4-.8.4-1.7.8-2.5s.5-.4.5-.7a1.9 1.9 0 0 1 .2-.7 2.6 2.6 0 0 0 .5-1.2c1.7-4.2 3.5-8.4 5.2-12.7s4.6-10.7 6.8-16.2c1.5-3.6 3.1-7.3 4.7-10.9a2.1 2.1 0 0 0 .6-1.7 1.3 1.3 0 0 1 .4-1 9.9 9.9 0 0 0 1.1-1.7c.2-.5.5-1 1.2-1l3.5.7a2.3 2.3 0 0 0 2 0l3.6-.5c.3 0 .5-.2.8-.3h.5c.8 0 1.2.6 1.5 1.2q6.3 10.5 12.9 20.7a17.9 17.9 0 0 1 2.2 3.8c-.4 1.5-1.6 2.2-2.6 3.1-2.9 2.5-5.7 5.1-8.5 7.7s-8.2 7.4-12.3 11.1-7 6-10.2 9.3a1.1 1.1 0 0 1-.8.2h-.4c-1.6-.7-3.2.2-3.1 1.9a2.4 2.4 0 0 1-1.1 2.5 1.7 1.7 0 0 0-.9.9ZM197.8 114.7v-.5a1.1 1.1 0 0 0 .2-.8.4.4 0 0 1 .1-.3c.1-.2.1-.4.3-.5a.6.6 0 0 1 .6-.3c1.7-.1 3.3-.6 5.1-.3a1.5 1.5 0 0 0 1.3-.2 8.1 8.1 0 0 1 3.1-.1c.6.3 1.1 0 1.6-.2 2.5-.2 5.1-.2 7.6-.3a1.7 1.7 0 0 0 1.4-.1 89.7 89.7 0 0 1 10.4-.3 1.7 1.7 0 0 1 1.5.5 1.9 1.9 0 0 1 .3 1.3c-.5 2.4.5 4.4 1.4 6.4a5.6 5.6 0 0 0 .5.8l.2.3a2.6 2.6 0 0 0 1.6 1.1.9.9 0 0 1 .6.7c-.1 1.3-1.2 2-2 2.9-4.5 3.8-8.7 8-13.1 12L209 147.5a10.6 10.6 0 0 1-1.5 1.5c-.6.4-1 1-1.7 1.4s-.8.7-1.4.4c-2.8-4.5-5.7-8.9-8.4-13.4l-6.6-10.7a2.2 2.2 0 0 1-.5-1.7 17 17 0 0 0 8.7-9.7c.2-.2.3-.3.2-.6Z" class="a"/><path d="m172.9 123.5 2.7 1.6c.4 1.1-.5 1.9-.6 2.8-1.8 4.7-3.9 9.2-5.7 13.8s-3.5 8.3-5.2 12.5l-6 14.4c-1.3 3-2.4 6-3.7 9-.5.8-1 1.7-2.1 1.8h-.4a102.2 102.2 0 0 0-7.9-6.6c-.7-.6-1.7-1-1.8-2.2s2.6-4.5 4-6.7l8.1-12.5c3.9-6.1 8-12 11.7-18.1 1.9-3.1 4.1-6 5.8-9.3.3-.4.6-.8 1.1-.5Z" class="a"/><path d="M198.4 111.7c-.2-1.6-.3-3.1-.5-4.6s3.1-1.4 4.6-1.9c5.6-1.7 11-3.6 16.5-5.4l12.3-3.9a1.8 1.8 0 0 1 1-.2l.6.2c.4.3.3.7.7 1a19.8 19.8 0 0 1 2.7 4.7c.5.5 1.3.9 1 1.9s-1.9 1.4-2.8 2.2a12.6 12.6 0 0 0-2.4 3.6c-.2.6-.4 1.2-1.1 1.4a32.7 32.7 0 0 1-4.4.1c-5.6-.2-11.2.4-16.7.6-3.4.1-6.8.3-10.1.6-.5.1-1 .2-1.4-.3Z" class="y"/><path d="M194.7 116.6a8.7 8.7 0 0 1-3.3 3.8 25.9 25.9 0 0 1-5.9 3.2 2.7 2.7 0 0 0-1.1.5c-1.4 1.4-3 1.1-4.9 1s-3.5-1.6-5.2-2.3a5.8 5.8 0 0 1-2.7-3.8 4 4 0 0 0-.9-1.7 5.4 5.4 0 0 1-.8-3.9c0-.9 1.7-1.7 3-1.3s5.1.8 7.7 1.3a3 3 0 0 1 2.1 1.3c1.5 2.6 4 3 6.6 3.4s3.7-.5 5.4-1.5Z" class="l"/><path d="m198.4 111.7 10.5-.6c2.5-.1 5-.2 7.5-.5 5-.4 9.9-.1 14.9-.3.4.5.5.9-.2 1.1a4.7 4.7 0 0 0-1.7-.3c-3.5-.1-7.1.3-10.7.4h-.5l-8.3.3c-.3.3-.7.2-1 .2h-3.6a1.5 1.5 0 0 1-.9.2l-5.7.3-.3.2-.2.3a1.7 1.7 0 0 1 .2-1.3Z" class="u"/><path d="M232.5 96a10.1 10.1 0 0 0-3.5 1l-11.1 3.6-12.2 4-7.8 2.5a2.4 2.4 0 0 0-.2-.8c2.9-.7 5.6-1.8 8.4-2.7l11.4-3.7 10.6-3.6a26.6 26.6 0 0 1 3.8-1c.6-.1.8.2.6.7ZM188.9 125c.8 2.1 2.2 3.8 3.3 5.7 2.2 3.8 4.6 7.4 6.9 11.1l4.8 7.7a4.5 4.5 0 0 1 .6 1.2.5.5 0 0 1-.3.6l-5-7.8-5.5-8.6c-1.6-2.6-3.1-5.2-4.6-7.8a10.7 10.7 0 0 0-1.4-1.6Z" class="v"/><path d="M172.9 123.5c-.5-.1-.6.4-.8.6a1.2 1.2 0 0 1-1 .2c-.4-1.3-.5-1.3-1.5-.5s-3.2 2.4-4.8 3.6-.7.6-1.2.3-.2-.6-.3-.9l6-4.4c.5-.3 1-.6.9-1.3Z" class="d"/><path d="M174.8 127.9c-.2-1 .6-1.8.8-2.8.4.6 1.2.2 1.7.6s-.8 1.1-1.2 1.8-.4.9-1 1-.3-.3-.3-.6Z" class="w"/><path d="M182.8 126.4a1.2 1.2 0 0 1-2 0Z" class="aa"/><path d="M198.1 113.4c.5.4.4.6-.2.8s-.2-.6.2-.8Z" class="y"/><path d="M187.2 125.6c-.2.4-.4.4-.8.3a.6.6 0 0 1 .8-.3Z" class="v"/><path d="M197.8 114.7c.5.4.2.5-.2.6a.7.7 0 0 1 .2-.6Z" class="y"/><path d="m170.1 120.9-.3-.4Z" class="d"/><path d="M251.5 46.1c1.1.1 2-.7 2.9-1.1s.7-.3.9-.5a4.5 4.5 0 0 0 2.2-.8 1.6 1.6 0 0 1 .8-.6c1 .1 1.8-.6 2.7-.8l.6-.6h.5c.4-.2.7-.3.9.2s-.1.5-.3.6l-.7.5c-2.8 1.3-5.6 2.7-8.5 3.9l-1 .5a15.7 15.7 0 0 0-2.3.9 3.3 3.3 0 0 0-1.2.5 15.3 15.3 0 0 1-2.7 1.1l-.7.3a56.2 56.2 0 0 1-5.6 2.5l-.7.3-12.8 5.6a2.8 2.8 0 0 1-1.3.4c-.7-.3-.8-.6-.1-1.1l4.6-2.2c.2-.2.5-.2.8-.3l3.3-1.3a.9.9 0 0 1 .6-.3l5.8-2.5.5-.3 3.3-1.3c.2-.2.3-.3.5-.3l2.5-1.1c.4-.5 1-.5 1.4-.8a7.5 7.5 0 0 0 2.5-.9Z" class="n"/><path d="M273.7 49.4c-.8 0-1.5-.7-2.4-.4s-3.4-1.3-4.5-2.8a7.4 7.4 0 0 1-2.8-3.3 4.9 4.9 0 0 1-.5-2 3.7 3.7 0 0 0-.1-1.1v-.6c.8-.2.5-.8.4-1.2a14.5 14.5 0 0 1 .6-4.1c.2-.7.6-.7 1.1-.4a.6.6 0 0 1 .2.7c-.1.3-.4.5-.4.8a.9.9 0 0 1-.3.7c-.6 1.4-.4 2.4.5 2.7s.5 2.9.7 4.3a1.2 1.2 0 0 0 .5 1c2 1.5 3.4 3.9 6 4.8.3.1.9.3 1 .9Z" class="k"/><path d="M263.7 40.8c-.2.8.6 1.3.6 2a2 2 0 0 1-2.5 0l.6-.5c.2-.1.6-.1.4-.4s-.5-.1-.7-.2a1.2 1.2 0 0 1 1.2-1.1c.2-.1.4-.1.4.2ZM225.1 57.9c-.2.4-.5.8.2.8s-.4 1.3-1.7.9l-.3-1.7ZM263 36.2v2.5a1.6 1.6 0 0 1 0-2.5ZM248.4 47.5a1.8 1.8 0 0 1-1.4.8c.1-.9.8-.8 1.4-.8ZM258.3 43.1c-.1.5-.5.5-.8.6s0-1.2.8-.6ZM230.5 55.4a.8.8 0 0 1-.8.3c.1-.5.4-.7.8-.3ZM255.3 44.5c-.1.5-.5.5-.9.5s.5-.5.9-.5Z" class="ab"/><path d="m263.7 40.8-.4-.2v-.8c.6.2.5.6.4 1Z" class="g"/><path d="M261.6 41.7a.5.5 0 0 1-.6.6.6.6 0 0 1 .6-.6ZM244.5 49.4a.5.5 0 0 1-.5.3c.1-.4.1-.7.5-.3ZM240.7 51c-.1.3-.3.3-.5.3s.1-.7.5-.3ZM234.4 53.8a.6.6 0 0 1-.6.3c.1-.4.2-.7.6-.3ZM251.5 46.1c-.1.4-.3.6-.6.5s.2-.5.6-.5Z" class="ab"/><path d="m266 28.8-.2.3c-.1-.2 0-.3.2-.3Z" class="d"/><path d="M223.6 59.6c.7-.1 1.5.1 1.7-.9l11.5-4.9a9.1 9.1 0 0 1 2.5-1.1.7.7 0 0 0 .6-.3l5.7-2.5c.3.1.4 0 .6-.2l2.7-1.1a1.4 1.4 0 0 0 1.1-.5 4.5 4.5 0 0 1 2.5-.9l.8-.5 8.5-3.9h2.5a27 27 0 0 0 2.5 3.4 6.2 6.2 0 0 1 0 2.7c.3 1.1-.5 1.8-.8 2.6a1.3 1.3 0 0 0-.4 1c-1.3 3.3-2.7 6.7-4.3 9.8a1.4 1.4 0 0 0-.5 1 73.4 73.4 0 0 1-4.9 11.1c-.2.3-.6.3-.9.3h-1.1a.7.7 0 0 1-.6-.1.8.8 0 0 0-.8-.1h-1.6a1.2 1.2 0 0 0-1 .2l-3.4 1.1a1.3 1.3 0 0 0-.7.6 2.4 2.4 0 0 1-1.3 1.1c-1.7-.3-3-1.6-4.4-2.5-5.1-3.3-10.1-6.8-15.3-10a5.7 5.7 0 0 1-1.5-1.2c.4-1.4.1-2.8.3-4.2Z" class="a"/><path d="M244.8 89.8v1.1c-.6.6-1.5.6-2.2.9-2.8.9-5.5 1.9-8.3 2.7s-2.1.2-2.9-1.1c-3-5-6.3-9.9-9.5-14.9l-4.7-7c-.2-.3-.4-.6-.2-1a12.9 12.9 0 0 0 6.1-6.1c1.7.4 3 1.7 4.4 2.6l15.3 10.1c.4.3.9.5 1.1 1a5.5 5.5 0 0 1-.6 2.2c-.9 2.1-1.2 4.2 0 6.3s1.3 2 1.5 3.2Z" class="ab"/><path d="m217 70.5 3.3 5c2.2 3.5 4.5 7 6.8 10.5s3.4 5.1 4.9 7.7a1.4 1.4 0 0 0 1.9.6l8.3-2.8 2.6-.6h.5c.3.4-.2.3-.4.4l-7.8 2.7-3.2 1.2a.8.8 0 0 0-.6.8.2.2 0 0 1-.3 0h-.5c-.1-.3-.2-.6-.6-.7-.7-2.1-2.1-3.7-3.2-5.5-2.4-3.9-4.9-7.6-7.4-11.4a67.7 67.7 0 0 1-4.4-6.9c-.2-.4-.7-.3-.9-.7s.7-.2 1-.3Z" class="u"/><path d="M243.7 77.9c-2.7-1.4-5.1-3.3-7.7-5l-12.9-8.5a6.4 6.4 0 0 0 .2-.7 61.2 61.2 0 0 1 6.9 4.3l14.2 9.4c0 .4-.1.7-.7.5Z" class="t"/><path d="M215.2 71c-.2.3-.4.4-.7.2a.4.4 0 0 1 .7-.2Z" class="u"/><path d="M265.3 34.3v-.8c.6-.5.3-1.4 1-1.7a.7.7 0 0 0 .7.6c-.3 1.2-1.3 2.1-1.6 3.3s-.4.1-.6 0v-.8Z" class="s"/><path d="m189 194.2-1.9-.2-.9-.4c-2.6.2-5-.6-7.6-.7a.6.6 0 0 0-.6-.1l-9.8-1.2a5 5 0 0 1-3.8-3.6c1.1-1.2 2.2-2.4 4-2.5s1.2-.8 1.5-1.5a3.5 3.5 0 0 0 .8-1.3 39.7 39.7 0 0 1 3-2.8c1.7-1.6 3.5-3 5.2-4.7a4.1 4.1 0 0 1 1.9-1.2 4.3 4.3 0 0 0 1.6-.5c1.3-.1 2.6-.4 3.9-.4h1.6l1-.2a4 4 0 0 1 2.4-.3 1.1 1.1 0 0 0 1.2-.2h1.1c.5.2.8-.2 1.3-.3l8.4-1.2a1.7 1.7 0 0 0 1.2-.2c3.1-.6 6.3-.7 9.4-1.4a2 2 0 0 1 1.3.1c1.4 1.5 2.2 3.6 3.5 5.3s3 5.2 4.9 7.6a2.9 2.9 0 0 1 .1 1.6.5.5 0 0 1-.3.5 13.9 13.9 0 0 0-5.5 5 1.8 1.8 0 0 0-.5.7l-.3.6a7.2 7.2 0 0 0-1 2.4 22 22 0 0 1-.7 3.7 2.7 2.7 0 0 1-.8.7l-2.5-.3a1.1 1.1 0 0 0-.8-.1l-9.9-1.2a2.2 2.2 0 0 0-1.4-.2l-10.1-1.2a1 1 0 0 0-.9-.3Z" class="a"/><path d="M278.8 157.6v.4c-.9 2.2.6 4 1.1 5.9s-.3.9-.7 1.2c-9 6.2-17.8 12.9-26.7 19.3l-7.7 5.6a1.3 1.3 0 0 1-1.4.5 12.7 12.7 0 0 0-7.2-6.8h-.2a1.5 1.5 0 0 0-.7-.3h-.1c-.6-1.7.2-3.3.2-4.9s1-5.6.8-8.4c-.1-.7.4-1.3.4-2s.2-1.4.8-1.9 4-1.3 6.2-.8a.9.9 0 0 1 .2 1c-1 3.5-1.1 7.2-1.9 10.8-.2 1.2-.5 2.5-.6 3.7 1.1-5.1 1.5-10.4 2.7-15.5a2 2 0 0 1 1.9-.7l21.5-3.1h3.4c.3 0 .5-.2.8-.3a.8.8 0 0 1 .7-.1l.6-.2h.8a2.3 2.3 0 0 0 2.2-.9c.1-.2.3-.5.5-.5s1.5-.4 1.8-1.4.4-.8.6-.6Z" class="ab"/><path d="M237.4 166.1c-.2.6.4 1.4-.6 1.7-.8 2.5-.8 5.2-1.2 7.9l-.6 5.5c-.1.6-.1 1.2-.7 1.6s-2.5-.3-3.8-.3a12.2 12.2 0 0 0-5.3 1 2.6 2.6 0 0 1-1.5.2c-.5-.5-.2-1.1-.3-1.7-2.4-3.8-4.7-7.7-7-11.5-.3-.5-.7-1.1 0-1.6 4.7-.8 9.3-1.6 13.9-2.1a53.5 53.5 0 0 1 5.6-.7c.4.2.9.5 1.4 0Z" class="aa"/><path d="M219 190.8c2.4-4.3 6-6.5 11-6.3a3.2 3.2 0 0 1 2.1.6c-1.6.4-3.1.7-4.6 1.2a13.3 13.3 0 0 0-6.3 4.1 2.7 2.7 0 0 1-.8.7c-.6.3-1 .4-1.4-.3ZM234.3 182.8c.6-4.4 1.1-8.9 1.7-13.3.1-.6-.2-1.5.8-1.7-.1 1.4-.1 2.9-.2 4.3-.5 3.7-1 7.4-1.3 11.1Z" class="t"/><path d="M219 190.8a2.2 2.2 0 0 0 1.4.3c-.6 1.6-1.9 2.9-2.5 4.5a7.4 7.4 0 0 1 1.1-4.8Z" class="p"/><path d="M216.1 192.9c.1-.9 0-1.8 1-2.4a6.4 6.4 0 0 1-1 2.4ZM214.6 197.3c.1-.5.3-.7.8-.7v.8Z" class="aa"/><path d="M235.4 183.3a.6.6 0 0 1 .7.3.5.5 0 0 1-.7-.3Z" class="t"/><path d="M217.4 189.9a.5.5 0 0 1 .5-.7c0 .3-.2.5-.5.7Z" class="aa"/><path d="M273.5 160.6h-.2c-2.5 0-4.8.7-7.3.7a1.4 1.4 0 0 0-1.1.3 2.3 2.3 0 0 1-1.4.1c-.5-.1-.8.2-1.2.3-5.4.4-10.7 1.6-16 2.1a2 2 0 0 1-1.5-.1c-.6-1.4-.2-2.8.1-4.2s.7-5.4 1.2-8.1 1.2-7.3 1.8-10.9 1.2-7.1 1.5-10.7a7.3 7.3 0 0 1 1.1-2.9c1-.6 1.5.3 2 .8l6.2 5.5 17.4 15.4a44 44 0 0 1 3.8 3.7 17.2 17.2 0 0 0-1.1 5c-.5.1-.4.5-.5.8s0 1.7-1.2.9-.7.3-1 .5a11.2 11.2 0 0 1-2.6.8Z" class="ac"/><path d="m279.9 152.6-5.1-4.5-20.2-17.8a28.3 28.3 0 0 0-3.7-3.2 2.7 2.7 0 0 1-1.3-.7c-1-.9-1.8-1.8-2.8-2.6s-.7-.8-.5-1.3a.7.7 0 0 1 .9-.6c.2 1.3 1.4 1.8 2.3 2.6 3 2.8 6.2 5.4 9.3 8.2s5.5 5 8.3 7.5l9.6 8.4c1.2 1 2.1 2.4 3.6 3a10.4 10.4 0 0 1-.4 1Z" class="x"/><path d="M294.2 147.1c-2.5-.1-4.8 1-7 2a1.4 1.4 0 0 0-.9.8c-2.4.8-3.1 3-4.4 4.9l-1 1.7c.5-2.9 1.2-5.7 3.6-7.8s5.7-2.3 8.8-2.1a1.3 1.3 0 0 1 .9.5Z" class="p"/><path d="m261 62.3 4.4-10.1a.7.7 0 0 1 .3-.6l1.1-2.7c.9-.3.5.4.4.6-.3 1.9-1.3 3.5-2 5.2-2.4 5.8-4.9 11.5-7.5 17.2a10.4 10.4 0 0 1-1.7 3.3h-.2a.6.6 0 0 1 0-.8c1.2-2.7 2.3-5.4 3.5-8a20.8 20.8 0 0 0 1.2-3.2 7.3 7.3 0 0 1 .5-.9Z" class="u"/><path d="M283.2 72.8c.9.2 1.4.7 1.4 1.5a1.3 1.3 0 0 1-1.3 1.4c-.8 0-1.6-.4-1.6-1.3s.8-1.3 1.5-1.6Z" class="v"/><path d="M268.2 37.6a.9.9 0 0 1 1.1-.5c-.2.6-.4 1.1-1.1.5Z" class="k"/><path d="M300 146.6a1.3 1.3 0 0 1 1.2-.5 1.1 1.1 0 0 1 .2.8v.9c-.4-.4-1.1-.6-1.4-1.2ZM302.7 149.4c.6 0 .6.3.6.7a1.1 1.1 0 0 1-.6-.7Z" class="y"/><path d="M305.5 155.6v.3h-.2Z" class="w"/><path d="M108.2 188.3c-.4 0-.6.1-.7.5a14.9 14.9 0 0 0-2.1.2h-1.8a1.2 1.2 0 0 1-.8-.2c-.4-.7 0-1.1.5-1.5a11.3 11.3 0 0 1 2.1-1.2 13.6 13.6 0 0 0 3.9-2.2c-3 .6-4.3.1-5.9-2.5a5.4 5.4 0 0 0-5.1-2.3H95c-1.4 0-1.8.5-1.4 1.8a8 8 0 0 0 4.1 5.2c.9.5 1.6 1.1 1.1 2.3s-.4.1-.6-.1l-1.1-.5c-.3-.8-1.2-.7-1.7-1.1a16.9 16.9 0 0 1-3.6-4.4l-.2-.3c-.1-.2-.1-.4-.3-.5s-.3-1.8-.4-2.7a8.3 8.3 0 0 1 0-3.5c1.4-.8 1.7-.6 1.6.9s0 1.6 1.5 1.3l5.6-1.4a9.5 9.5 0 0 1 2.9-.2 1.1 1.1 0 0 1 .7.6c.6 1.3 1.7 1.6 3.1 1.4a5.5 5.5 0 0 1 1.8.1 4.8 4.8 0 0 0 5.2-1.7 1.2 1.2 0 0 1 1.3-.7l.4.2c.6 1.9-.2 3.4-.8 5a3.5 3.5 0 0 0-.5.8v.3a6.4 6.4 0 0 1-.2.7 4.4 4.4 0 0 1-.8 1.1l-.3.2-.3.2a6.9 6.9 0 0 0-2.2 2.3 2.7 2.7 0 0 1-.8.7c-.3.1-.4.3-.5.6s-.2.7-.4.6Z" class="f"/><path d="M98.2 188.6h.5c.5-.3.9-.3 1.2.2-2.6 7.6-4.8 15.5-7.3 23.2-1.3 4-2.3 8-3.7 12a.7.7 0 0 1-.4.7l-.4.2a.7.7 0 0 1-.7-.4 3.4 3.4 0 0 1 .1-1c0-.2 0-.5.3-.6 1.2-3.1 2-6.3 3-9.4 2.5-7.9 4.9-15.7 7.3-23.6a1.2 1.2 0 0 0 .1-1.3Z" class="s"/><path d="M87.8 222.9a.6.6 0 0 1-.3.6h-.4a.6.6 0 0 1 .7-.6ZM67.4 217.9c-.2.1-.5.1-.6-.1a.5.5 0 0 1 .6.1Z" class="w"/><path d="M57.2 182h.5a1.5 1.5 0 0 1 .7-.3l9.4-1.8h2.6a1.8 1.8 0 0 1 .7-.5h.1c.3-.1.5-.3.8-.3l11.8-2.1a.4.4 0 0 1 .3.6c-3.4.6-6.7 1.8-10.2 1.6-.8 0-1.2.7-1.9.8l-7.4 1.2a11.7 11.7 0 0 1-2.6.4l-.9.2-3.8.7c-.2-.2-.2-.3-.1-.5Z" class="e"/><path d="m84.1 177.6-.3-.6 7.1-1.4a10.3 10.3 0 0 1 0 3.5l-.3-.6c-.2-.6.3-1.5-.3-1.9s-1.3.2-2 .3-2.7.7-4.2.7Z" class="s"/><path d="m55.5 182.3-.2.5a.8.8 0 0 1-.8.3c-.4 0-.9 0-.9-.5s.5-.3.8-.3Z" class="w"/><path d="M57.2 182v.5l-.6.2c-.5-.2-.5-.5-.5-.9ZM61.1 181.8c.2-.4.6-.3.9-.2a.6.6 0 0 1-.9.2Z" class="z"/><path d="M51.5 192.4h-.1Z" class="r"/><path d="M82.9 239.1a22.9 22.9 0 0 1-1.2 3.7 3 3 0 0 1 1.2-3.7Z" class="a"/><path d="M79.8 222.4c.3 0 .6 0 .7.4s-.6.1-.7-.4ZM59.1 199.8l.3-.2ZM91.6 182.3c.1 0 .2.1.2.3h-.3Z" class="w"/><path d="M99.5 176.8a53.8 53.8 0 0 1-6.9 1.8c-.3.1-.5-.1-.5-.4a6.5 6.5 0 0 1 0-1.4c.4-1.2 0-1.5-1.2-1.1a26.8 26.8 0 0 0 .7-2.7.5.5 0 0 0 .2-.4l.2-.7.3-.3a2.2 2.2 0 0 1 1.4.1c.4.3.2.8.3 1.2s.6-.6 1.1-.6a26.7 26.7 0 0 1 4.4 4.5Z" class="b"/><path d="M76.5 169.6a2.8 2.8 0 0 1 2.5-2.8 3 3 0 0 1 2.4 2.6 2.6 2.6 0 0 1-2.6 2.7 2.4 2.4 0 0 1-2.3-2.5Z" class="t"/><path d="M92.2 171.9H92c-5.1-2.3-10-4.9-15-7.4l.3-.6a.4.4 0 0 1 .5-.1c5 2.1 9.8 4.6 14.6 7.2.3.4.1.6-.2.9Z" class="s"/><path d="M71.1 179.3c-.1.4-.2.6-.7.5s.3-.5.7-.5ZM72 179.1c-.2.4-.3.7-.8.3a.6.6 0 0 1 .8-.3Z" class="y"/><path d="M58.4 181.7c-.2.3-.4.3-.7.3s.3-.5.7-.3Z" class="z"/><path d="m91.8 172.6-.2.4c0-.2 0-.3.2-.4Z" class="s"/><path d="M66.3 148.3c0-.8.1-1.7 1.1-1.6s1.7.5 1.6 1.6a1.4 1.4 0 0 1-1.5 1.6c-1 0-1.3-.7-1.2-1.6Z" class="n"/><path d="M91.2 141.9a1.6 1.6 0 0 0 1.5-.8c.6-.3.9.1 1.3.4a9.2 9.2 0 0 0 3.5 2.4c.3.2.6.4.9.3h.8c.6.5 1.8 0 2 1.2s.4 2.2.3 3.3a1.8 1.8 0 0 0 .3 1.2c.1 2.1.1 4.2 0 6.4a1.7 1.7 0 0 0 .2 1.2c.2 2 0 4.1.4 6.1a2.6 2.6 0 0 1-.4 1.5.8.8 0 0 1-.8.6 1 1 0 0 0-.9.2h-.7a1.4 1.4 0 0 0-1.5.5l-1.7 1c-.4.3-.8.6-1.2.1a58.3 58.3 0 0 0-4.3-5.3l-12.1-14.4c-.2-.2-.9-.6 0-.9l12.2-5Z" class="ab"/><path d="M92.4 171.2c-2.7-.9-5.1-2.5-7.7-3.7s-4.9-2.4-7.4-3.6l-9.9-5a71.6 71.6 0 0 1-7.8-4l15.9-6.7c1.9-.8 1.9-.8 3.3.8l15.3 18.3.6.7c.2 1.2-1.1 1.8-1.5 2.7a.8.8 0 0 1-.4.4Z" class="y"/><path d="M92.9 170.7c.5-1 1.5-1.6 1.8-2.7a.5.5 0 0 0 .5-.3c1.2 0 1.8-1.2 3-1.4a2.9 2.9 0 0 1 1.3-.5h.9l.5-.2a.6.6 0 0 0 .8-.2 1.5 1.5 0 0 1 1.1-.4h1.7l1 .5a1.1 1.1 0 0 1 .7.3v.4c-.4.9.2 1.2.8 1.5a10 10 0 0 1 4.6 4.9c1.1 2.5-.1 4.2-2.8 4a25.8 25.8 0 0 0-6.2-.1l-3.1.3a36.6 36.6 0 0 1-4.4-4.4c.1-1.1 1-1.5 1.7-2.1h.6c1.4 1.1 2.9 2.1 3.7 3.7l.5.6c.9.9 1.3.8 1.6-.4s1.4-4.1 1-6.3-2.5-.4-3.7-.3a8.1 8.1 0 0 0-4 1.8 12.4 12.4 0 0 0-1.9 2.1c-.2.2-.3.4-.7.3h-1.7a6.4 6.4 0 0 1 .2-.7l.2-.2a.3.3 0 0 0 .3-.2Z" class="g"/><path d="M306.3 140.9h.9a18.3 18.3 0 0 1-5 5c-.1-.6.4-1 .7-1.4Z" class="n"/><path d="M301.4 146.9a.6.6 0 0 1-.2-.8 1.2 1.2 0 0 1 1-.3c0 .5-.4.8-.8 1.1Z" class="n"/><path d="M247.2 121.9a1.1 1.1 0 0 0-.8.7c-1 .9-2.4.9-3.6 1.3l-1.2.2a2.7 2.7 0 0 1-.9 0 2.5 2.5 0 0 0-1.2-.2 6.2 6.2 0 0 1-2.3-.7c-.4-.6-1.3-.7-1.7-1.3s-.4-.6-.8-.5-1-.9-1.4-1.4a1.8 1.8 0 0 1-.5-.7 9.3 9.3 0 0 1-1.7-6.4 2.8 2.8 0 0 0 2.9.4c2.3-.6 4.7-.7 7-1.5a1.1 1.1 0 0 1 .8.1c1.3 1.2 2.8.8 4.3.8a9.1 9.1 0 0 1 5.6 1.2c.3.7-.3 1.3-.3 2v.7a1.4 1.4 0 0 1-.2.6c-1 1.5-1.8 3.1-3.4 4.1l-.3.3Z" class="h"/><path d="M282.9 144.8c-6.9-4.8-13.5-10.1-20.3-15l.4-.5 20.2 15Z" class="w"/><path d="M251.2 117.2v-.8a.3.3 0 0 1 .4 0c1.7.9 3.7 1.3 5.4 2.3v.7c-2.1-.4-3.9-1.6-5.8-2.2Z" class="e"/><path d="M260.8 128.1h.3c.4.3 1 .4 1.2 1s-.2.3-.3.2-.9-.6-1.2-1.2ZM260.3 127.8a2.1 2.1 0 0 1-1.5-1.1c.9 0 1.4.3 1.5 1.1Z" class="w"/><path d="m247.5 121.6.3-.3a.3.3 0 0 1-.3.3Z" class="x"/><path d="M241.8 112c-2.7.9-5.6 1.1-8.3 1.8-1 .2-2.2.8-2.4-.9a7.5 7.5 0 0 1 0-1.5c.3-.3.2-.7.2-1.1a11.2 11.2 0 0 1 5.8-6.8c.2-.2.3-.5.6-.4h.8a8.8 8.8 0 0 1 3.6-.3c.4.2.8 0 1.2.2s.3 0 .4.1a20.4 20.4 0 0 1 4.3 5.8c.4.7 1 1.2 1.4 1.9s.3 1.5-.6 1.6a35.3 35.3 0 0 1-6.5 0 .9.9 0 0 1-.5-.4Z" class="q"/><path d="M244.8 89.8c-.6-1-1.5-1.7-1.7-2.9a8.4 8.4 0 0 1-.5-3.1c0-.5.4-1 1-.5a1.6 1.6 0 0 0 1.5.2l3.6-.7c.6-.1 1.1-.3 1.6.1a3.8 3.8 0 0 1 1.8 2.3c.3 1.3 1.6 1.5 2.6 1.8a6.1 6.1 0 0 0 1.3.3c1.1.5 1.2 1.7.2 2.2s-3.8 2.4-6.2 2.2c-.4 0-.8-.1-1 .2a6.8 6.8 0 0 1-4.2-2.1Z" class="l"/><path d="M241.8 112h6.5c.4 0 .9.2 1.1-.3s-.2-.8-.4-1.1c-1.9-2.2-2.9-5-5.2-7-.1-.1 0-.4-.1-.6 2.9.2 4.7 1.9 6.4 4 .3.4.5 1 .8 1.4s.1 1 .5 1.4a8.2 8.2 0 0 1 .3 4.1c-1 .2-1.9-.4-2.8-.6s-3.4 0-5-.2-1.8.1-2.1-1.1Z" class="o"/><path d="M250.8 106.5c.7-1 1.5-.6 2.2-.9 2.4-1.1 5.1-1.3 7.5-2.2a6.3 6.3 0 0 1 1.9-.3c.3-.1.6-.2.7.2s-.3.4-.6.5l-6.8 1.7ZM236.3 101.6c-.9-1.6-2.2-2.9-2.7-4.7a7.1 7.1 0 0 1 2.7 4.7ZM237.7 103.1a.7.7 0 0 1-.6.4c.2-.9-.8-1.2-.8-1.9a1.6 1.6 0 0 1 1.4 1.5ZM233 96.1h.3a.8.8 0 0 1 .3.8c-.6 0-.6-.4-.6-.8Z" class="v"/><path d="M243.3 102.9c-.4 0-.9.2-1.2-.2s.9-.2 1.2.2Z" class="o"/><path d="M238.5 103Z" class="v"/><path d="M259.9 119.8a1.6 1.6 0 0 1-1.3-.4.9.9 0 0 1 1.3.4Z" class="w"/><path d="M251.6 116.4h-.4c0-.2 0-.4.2-.5s.1.3.2.5Z" class="t"/><path d="M258 119.1c-.2 0-.5.1-.5-.2s.4-.1.5.2ZM305.1 93.9c-2.1 1.5-4.6.9-6.9 1.4 2.2-.9 4.4-1.9 6.9-1.4Z" class="w"/><path d="m250.3 82.9-5.4 1.1c-1.2.2-1.2.3-1.8-.7v3.6c-1.2-1.9-1-3.8-.5-5.8s.8-2.1 1.1-3.2l.7-.5 1.3-1.3c.2-.3.3-.5.7-.5a15.5 15.5 0 0 1 3.6-1.3.7.7 0 0 1 .6-.1h2.2a.4.4 0 0 1 .5.1l.6.3c-.4.7-.2 1 .5 1.4s4.2 3.7 3.9 5.4-.3 1-1.1 1a27.4 27.4 0 0 0-5-.3c-.5-.6-.2-1.2-.2-1.9s.7-2.5.4-3.8-1.3-.6-2-.5a6.9 6.9 0 0 0-5.7 4.2c.4-.5.7-1.4 1.7-1.5s2.9 2.2 3.9 3.8Z" class="g"/><path d="m250.3 82.4-1.1-1.1a7 7 0 0 0-2.8-2.6.6.6 0 0 1 .2-.7 9 9 0 0 1 5.1-2.2l.8.2c.8.2.5.7.4 1.2a38.5 38.5 0 0 0-.7 4.9 5.8 5.8 0 0 1-1.9.3Z" class="c"/><path d="M255.8 74.4v.8l-.8-.5c.2-.4.5-.3.8-.3Z" class="ab"/><path d="M88.5 224.7v-.9c1.2-.4 2.4.1 3.5.4l10.9 3c1 .3 2.3.3 2.9 1.5v.8c-2.6-.3-5.1-1.4-7.6-2s-6.4-1.8-9.7-2.8Z" class="h"/><path d="M97.6 246c0 .2-.1.3-.2.2Z" class="w"/><path d="M97.6 144.2a7.5 7.5 0 0 1-3.7-2.3c-.3-.4-.6-.9-1.2-.8a20.9 20.9 0 0 1-1.3-4.9c3.1.9 5.8-1.1 8.7-1.1.7 3.1 3.2 3.6 5.8 3.9 1.1.1.9.9.6 1.5s-1.7 1.6-2.8 2.1-1.3.7-1.1 1.6a1.1 1.1 0 0 1-.8.5 8.8 8.8 0 0 1-2.8-.2h-.8Z" class="l"/><path d="M101.2 128.8c.4.1.5.5.5.9a10.6 10.6 0 0 1-.8 4.3c-.4.8-.9.6-1.4.1s-1.5-2.7-2.7-3.7c.6-1.2 2.9-2 4.4-1.6Z" class="c"/><path d="M101.2 128.8c-1.6.3-3.2.5-4.4 1.6s-1.8 1.8-3.2 2.2.7-1.5 1.2-2.1a6.4 6.4 0 0 1 5.8-2.2c.4 0 .5.1.6.5Z" class="z"/><path d="M155.8 189.7c1-.9 1.2-2.1 1.6-3.3a1.7 1.7 0 0 0-.1-1.2.6.6 0 0 1 .1-.7c2.3 1.3 4.1 3.3 6.2 4.9s1.5.9 2.1 2l-7.3-1h-1.7c-.5-.1-.9-.1-.9-.7Z" class="w"/><path d="M157.4 184.5v.8h-.3a10.4 10.4 0 0 0-4.3 0 1.8 1.8 0 0 1-1.2-.3c-.6-1.3.3-2.6.2-3.9a7.4 7.4 0 0 1 .4-1.4l.3-.3h.6a3.5 3.5 0 0 1 1.3.8 8.4 8.4 0 0 1 2.5 2.8 3.7 3.7 0 0 0 .5 1.5Z" class="h"/><path d="M170.2 184a2.2 2.2 0 0 1-2.5 1.9c-.8-.1-1.2.4-1.7.9s-.9 1-1.6 1.2c-.4-.6.2-.8.5-1a2.8 2.8 0 0 0 1.4-2.8c-.3-1.8 1.5-2.7 3.3-1.9.1.2.3 0 .4.1l.6-.3a.4.4 0 0 1 .2.6 13.9 13.9 0 0 1-.6 1.3Z" class="q"/><path d="M200 195.5c.5-.4 1-.6 1.4.2a2.4 2.4 0 0 1-1.4-.2ZM189 194.2c.4-.5.7-.5.9.1a1 1 0 0 1-.9-.1ZM211.3 196.9c.3-.4.6-.5.8.1a.8.8 0 0 1-.8-.1ZM186.2 193.6c.4 0 .8-.2.9.4a.7.7 0 0 1-.9-.4ZM178 192.8c.4-.5.5-.3.6.1Z" class="aa"/><path d="M152.3 180.9a27 27 0 0 1-.6 4.1l-2.1.4c-1.5.2-2.9.4-4 1.6h-.5c-.3-.6.3-1 .3-1.5s.2-.2.2-.3a5.6 5.6 0 0 0 1.4-2 2.9 2.9 0 0 1 2.1-1.8 6.7 6.7 0 0 0 1.5-.6 1.5 1.5 0 0 1 1.7.1Z" class="o"/><path d="M157.2 185.3h.3a.7.7 0 0 1-.1 1.1c-.3-.3-.1-.7-.2-1.1Z" class="x"/><path d="M105.9 228.7a41.4 41.4 0 0 0-6-1.8c-3.1-1-6.3-1.8-9.4-2.6l-1.9-.5c1.1-3.6 2.1-7.2 3.2-10.8l6.9-22.5c.2-.6.3-1.4 1.1-1.6a1.1 1.1 0 0 1 .8-.2 5 5 0 0 0 3.2.3h1l.6-.2c.7 0 1.4-.5 2.1.1a40.6 40.6 0 0 0 4.2 5.3l8.5 10.4a.9.9 0 0 1 .4.8c-1.7 3.4-3.6 6.5-5.4 9.8s-4.7 8.5-7 12.7c-.2.4-.3.9-.8 1.1Z" class="ab"/><path d="M107.4 228.9a21.2 21.2 0 0 1 1.8-3.7l10-17.7c.4-.8.5-1.7 1.4-2.2a.7.7 0 0 1 .4.7l-6.7 11.9-5.8 10.5a4.5 4.5 0 0 0-.3 1.1c-.3-.2-.7-.1-.8-.6ZM122 205.1c-.4-.4-1.1-.6-1.1-1.3a71.9 71.9 0 0 1 3.7-6.7c2.2-4 4.7-7.8 6.8-11.8l.5-.9a55 55 0 0 0 3.6-5.7l4.6-7.4a1.6 1.6 0 0 1 .7-.7.9.9 0 0 1 1 .9c-.2 1.5-1.3 2.5-2 3.7-1.7 2.7-3.3 5.4-5.1 8.1l-.6 1.4a1.6 1.6 0 0 1-1 .8l-6.4 10.7-3.9 6.8a3 3 0 0 0-.8 2.1Z" class="s"/><path d="m133.1 185.5.6-.7a2.4 2.4 0 0 1 2-.4 66.6 66.6 0 0 0 9.9 1.1c.4.7-.5.9-.5 1.5a90.3 90.3 0 0 1-10.3-1.2Z" class="t"/><path d="M141.5 189.9c1.2.1 1.8.6 1.7 1.8s-.8 2.1-1.9 2a2 2 0 0 1-1.8-1.9 1.9 1.9 0 0 1 2-1.9Z" class="p"/><path d="M131.8 185.3a41.3 41.3 0 0 1-3.3 5.8l-6.9 12c-.2.3-.3.7-.7.7l-12.7-15.5c-.2-.2 0-.4.1-.6l.6-.4.8-.5a19.7 19.7 0 0 1 2.5-2.5c0-.2.2-.2.3-.3a3.6 3.6 0 0 0 .8-1.2l.4-.2 13.4 1.9c1.6.3 3.2.1 4.7.8Z" class="y"/><path d="M163.3 126.8c.3.3.2.6.3.9v.2c-.1.1-.1.3-.2.4s-3.2 2.4-4.8 3.6-5.7 3.9-8.4 6.1a.8.8 0 0 1-.8.2c-.7-.6.2-1 .2-1.5a.8.8 0 0 1 .5-.5l.2-.3a32.9 32.9 0 0 0 5.3-3.6Z" class="s"/><path d="m102 144.5.6-.3c1.7-.1 2.7-1.4 4.1-2.1l17.9 15.3.7.5.3.4c-.2 0-.1.2-.1.4l-11.9 11.5a1.8 1.8 0 0 1-.8.5c-1.1-.6-1.6-1.8-2.7-2.4a15.7 15.7 0 0 0-3.3-1.9c-.3-.2-.4-.5-.7-.6l-.8-.2c-.3 0-.4-.3-.7-.2a5.5 5.5 0 0 1-1.8-.1c-.4-.5-.3-1.2-.5-1.8-.3-2.4-.3-4.8-.4-7.2.2-.4-.1-.8-.1-1.3.1-3.1-.4-6.1-.4-9.2a1.6 1.6 0 0 1 .6-1.3Z" class="ac"/><path d="m149.2 138 9.9-6.9c1.4-1.1 3-1.8 4.2-3.2l.3-.2c2.2-1.4 4.2-3 6.3-4.6.4-.3.9-.9 1.4-.4s-.1.9-.3 1.4-.5 1-1.1 1.3a2.1 2.1 0 0 0-1.2.5c-2.1 2.5-4.5 4.6-6.8 6.9s-4.4 4-6.6 6.1l-13.9 12.9-9.6 8.7a1.8 1.8 0 0 1-1.8.6 8.5 8.5 0 0 1-2.9-2.4 45.1 45.1 0 0 1 5.2-5.5l8.6-8.4.7-.8 3-2.5a26.6 26.6 0 0 1 4.6-3.5Z" class="aa"/><path d="M113.5 171.4c4.2-3.6 8-7.6 11.9-11.4a4.1 4.1 0 0 1 1.3-1 10.9 10.9 0 0 1 2.9 2.3.8.8 0 0 1 .2 1c-3.9 3.3-7.6 7-11.6 10.3l-1.9 1.8c-.5.4-1 1-1.8.7s-1.5-2.3-1-3.7Z" class="aa"/><path d="M113.5 171.4a27.2 27.2 0 0 0 1.1 3.8c.4.4.3.7 0 1.1a1 1 0 0 0-1 .4c-1.5 2.1-3 2.7-5.5 2.1a4 4 0 0 0-1.9-.1c-1.8.4-2.9-.6-3.6-2.2 1.6-1 3.4-.4 5.1-.4l1.2.2c2.6 0 3.4-1.3 2.3-3.7a9.4 9.4 0 0 0-4.7-4.7c-1.4-.7-1.5-1.1-.3-1.8s.3-.2.5-.1a12.4 12.4 0 0 1 6.1 4.7Z" class="k"/><path d="M129.8 162.3c-.2-1-1.1-1.3-1.7-1.9l-1.4-1.4.4-.3 2.9 2.3a2.3 2.3 0 0 1 1.6 1.1c.3.3.7.5.7 1s-.1.4-.3.4-1.3-.5-1.9-.8-.3-.2-.3-.4ZM125.5 158.7c0-.2.1-.3.1-.4s-.1.2-.1.4Z" class="t"/><path d="m150.1 136.2-.4.5c-.1.3-.3.5-.7.2v-.4c.4-.2.7-.5 1.1-.3Z" class="w"/><path d="M150.3 135.9c.1.2 0 .3-.2.3s0-.4.2-.3Z" class="w"/><path d="m149 136.9.7-.2c.5.7-.7.7-.5 1.3a31 31 0 0 1-4.6 3.5c-.1-.7.4-1 .9-1.4Z" class="d"/><path d="M170.6 182.8v-.7c1.1-1.6 2.7-2.6 4-3.8l16.2-14.5 12.1-11.1a4.4 4.4 0 0 0 1.3-1.4l.3-.6c1.3-.1 1.8-1.5 2.9-2l.5.4c.2.8-.6 1.1-1 1.6s-1 .9-1.4 1.5l-.5.4c-2.1 1.6-4 3.5-6 5.3l-16.3 14.9a11 11 0 0 1-1.8 1.4c-1.9 1-3.2 2.6-4.7 3.9l-5.3 4.8Z" class="x"/><path d="M174.8 127.9c.3.1.3.4.3.6l-.3 1.1a3.9 3.9 0 0 1-.5 1.4l-7.1 17.1c-2.4 5.7-4.9 11.5-7.3 17.3l-2.4 5.6c-.2.4-.2.8-.4 1.1l-.2.8-.4.6-1 2.7-.4.6c-.2.3-.4.5-.4.8s-.3.2-.5 0a2 2 0 0 1 .2-1.1c2.7-6.4 5.3-12.7 8-19l10.4-25.1Z" class="r"/><path d="M154.2 177.6h.5c.1.9-.8 1.7-.2 2.7s-.8-.6-1.4-.5l-.3-.2h-.2c-.3-.1-.6-.1-.3-.5s1.1-1.2 1.9-1.5ZM174.3 131a2.4 2.4 0 0 1 .5-1.4 1 1 0 0 1-.5 1.4Z" class="w"/><path d="M157.1 172.1a1.2 1.2 0 0 1 .4-1.1c-.1.4.2 1-.4 1.1ZM155.1 176.8c-.1-.3.1-.5.4-.6s0 .6-.4.6ZM156.5 173.5c-.1-.4.1-.5.4-.6s-.1.6-.4.6ZM170 182.4c-.2.2-.3.2-.4-.1Z" class="aa"/><path d="M207.9 149.2c-.2-.2-.4-.3-.5-.5l16-14.9 10.1-9.2a.4.4 0 0 1 .5.2c-.2 1.5-1.4 2.2-2.4 3.1l-12 11.1-9.7 9.1a4.9 4.9 0 0 1-2 1.1Z" class="t"/><path d="m233.9 125-.4-.4c.6-1 1.9-1.4 2-2.7s1.4.2 1.7 1-1.9 1.9-3.3 2.1Z" class="x"/><path d="M233.3 120a2.2 2.2 0 0 1 1.4 1.4 1.6 1.6 0 0 1-1.4-1.4ZM208.9 112c.2-.4.7-.2 1-.2s-.6.6-1 .2ZM204.4 112.3a.8.8 0 0 1 .9-.2c-.2.6-.5.6-.9.2ZM218.2 111.5h.5c0 .2 0 .4-.2.4s-.3-.2-.3-.4ZM232.8 119.3a.7.7 0 0 1 .5.7.5.5 0 0 1-.5-.7ZM198.4 112.8l.3-.2Z" class="y"/><path d="m169.9 125.2 1.1-1.1h1.1c-2.4 4.3-5.3 8.3-7.9 12.5s-5.4 8.4-8.1 12.5c-3.6 5.7-7.3 11.3-11 16.9l-2.8 4.5c-.6.3-.8.1-1-.4s1.4-2.7 2.2-3.9c5.4-8.6 11-17.1 16.5-25.7l8.1-12.6.7-1.4a2.8 2.8 0 0 1 1.1-1.3Z" class="s"/><path d="M141.5 170c.1.4.4.5.8.5s1 1.2 1.6 1.7l7.4 6c.3.2.7.4.7.9s-.2.6-.6.6c-2.6-2.2-5.5-4.3-8.1-6.6-.6-.5-1.3-.8-1.7-1.6s-.4-.6-.7-.7-2.1-1.2-3.1-1.9l-5.3-4.4c-.4-.3-.9-.5-.6-1.1l.4-.4a1.1 1.1 0 0 1 1.2.4c2.7 2.2 5.4 4.3 8 6.6Z" class="x"/><path d="M151.2 179.5c.3.1.7.1.8-.4h.3l.3.5a6.1 6.1 0 0 1-.3 1.3c-2.2.3-4.3.7-5.3 3-.2.6-.3 1.6-1.4 1.4a3.3 3.3 0 0 1 .4-2.9 6.8 6.8 0 0 1 4-3 1.1 1.1 0 0 1 1.2.1Z" class="p"/><path d="M250 48.1c-.1.6-.3 1.1-1.1.5a1.3 1.3 0 0 1 1.1-.5ZM253.3 46.7c0 .6-.4.5-.8.5s.4-.5.8-.5ZM246.2 49.7c-.1.4-.2.7-.6.2a.7.7 0 0 1 .6-.2ZM239.9 52.4c-.1.4-.2.7-.6.3a.9.9 0 0 1 .6-.3Z" class="ab"/><path d="M265.3 34.3c.1.4-.1.5-.4.6a.5.5 0 0 1 .4-.6Z" class="g"/><path d="M261 62.3a1.1 1.1 0 0 1-.5.9c0-.4-.1-.8.5-.9ZM246.4 75.6a1.8 1.8 0 0 1-.7.5c0-.5.3-.6.7-.5ZM253.3 74.3h-.5c.2-.5.4-.5.5 0ZM250.6 74.2a.5.5 0 0 1-.6.1c.2-.5.4-.5.6-.1ZM265.7 51.6a.9.9 0 0 1-.3.6c-.4-.4-.1-.5.3-.6Z" class="ab"/><path d="m236.3 166.4-11.7 1.5-8.3 1.3c-.3.2-.5.5-.9.2-3.1 0-6.2.9-9.3 1.2l-1.9.2a.5.5 0 0 1-.6.1l-9 1.3a1 1 0 0 1-.9.1l-1.3.2a1.3 1.3 0 0 1-.8.2l-2.8.2h-.8l-.9.2h-.5l-4.4.5c-.3-.5 0-.7.5-.8l1.2-.5 14.1-2.2c5.5-.8 11-1.3 16.5-2.3h.7c5.1-.9 10.2-1.6 15.3-2.2 1.4-.1 2.8-.6 4.2-.7a2.8 2.8 0 0 1 1.8.1c.4.6.1 1-.2 1.4Z" class="s"/><path d="m215.4 169.4.9-.2c.5 1.9 1.9 3.4 2.8 5.1s3.3 4.9 4.3 7.7a1.2 1.2 0 0 1-1-.8c-2-3.7-4.6-7.1-6.6-10.8a1.8 1.8 0 0 1-.4-1Z" class="v"/><path d="M183.9 172.8c-.2.5-.5.4-.9.5s-.8 0-.8.5a1.1 1.1 0 0 1-1.3.4c.1-.8 1-1 1.4-1.5s1.1-.5 1.6.1Z" class="e"/><path d="M170.6 182.8h.3a1 1 0 0 1-.7 1.1 1.6 1.6 0 0 1 .4-1.1ZM193.7 172.3c.3-.2.6-.1.9-.1s-.5.6-.9.1ZM191.6 172.7c.2-.3.5-.2.8-.2s-.5.6-.8.2Z" class="aa"/><path d="M188 173c.2-.4.4-.4.8-.1a.5.5 0 0 1-.8.1ZM186.6 173.3c.1-.2.2-.4.5-.1s-.3.2-.5.1Z" class="e"/><path d="M203.6 170.9h.6c-.2.4-.3.5-.6 0Z" class="aa"/><path d="m244.8 164 10.8-1.5 6.9-.9.7-.2h1.5l1-.2 6.8-.9c.3 0 .7-.1.8.4h-.1l-.6.2h-.7l-.7.3a4.6 4.6 0 0 1-2 .2h-.5c-3.4.6-6.9 1.1-10.4 1.5l-14.1 2.2c-.1.3-.3.2-.5.1a45.2 45.2 0 0 0-6.3.8.9.9 0 0 1-.1-1.1 8.2 8.2 0 0 1 3.1-.7l3.3-.6a.9.9 0 0 1 1.1.4Z" class="s"/><path d="M243.7 165.3h.5c-.3 2-.7 4.1-.9 6.1s-1.4 6.6-1.5 9.9c0 .4 0 1-.5.9s-.3-.6-.3-.9c.9-5.4 1.5-10.8 2.7-16Z" class="v"/><path d="M273.5 160.6c.3-.5 1.3-.8 2.6-.8-.6 1.2-1.6 1-2.6.8ZM268.7 161.5c.1-.3.3-.4.5-.1a.4.4 0 0 1-.5.1ZM272.6 160.9c.1-.3.3-.3.6-.2s-.4.4-.6.2ZM271.2 161.2c.1-.3.4-.3.7-.3s-.4.5-.7.3Z" class="e"/><path d="M237.5 165c0 .4-.1.7-.1 1.1s-.2.9-.8.9-.3-.4-.3-.6l.3-1.1c-.9-1.5-.3-3-.1-4.4s.6-4 .9-6a1.9 1.9 0 0 0 .2-1.3 40.7 40.7 0 0 1 .6-6.1c.5-3.3.7-6.6 1.2-9.9s1.1-8.1 1.5-12.1a3.5 3.5 0 0 1 .6-1.7l1.1-.2c.8.9-.1 1.8-.1 2.7-.2 6-1.4 11.9-2.1 17.8a2.3 2.3 0 0 0-.2 1.2 28.5 28.5 0 0 1-.4 4 1.5 1.5 0 0 0-.2.9 27 27 0 0 1-.6 4.1c-.1.5-.5.9-.3 1.5a1.4 1.4 0 0 1 0 .9c-.2.4-.4.7-.3 1.1a21.6 21.6 0 0 1-.9 7.2Z" class="t"/><path d="M244.8 164h-1c-.5-.4-.3-1-.2-1.5 1.2-7 2.3-13.9 3.4-20.9.7-4.8 1.6-9.7 2.4-14.5.1-.4.1-.7.4-.9s.9.4 1.1.9-1.2 3.5-1.4 5.4c-.4 3.4-1 6.7-1.5 10.1s-.7 4.4-1 6.6-.9 6.3-1.5 9.5-.4 3.5-.7 5.3Z" class="v"/><path d="M265.7 161.1c-.2.5-.6.3-1 .2s.6-.4 1-.2ZM263.2 161.4c-.1.3-.4.3-.7.2s.4-.4.7-.2Z" class="e"/><path d="M249.8 126.2c-.2 3.3-1.1 6.4-1.5 9.7s-1.4 8.2-1.9 12.3c-.2 2.3-.8 4.5-1.1 6.7s-1 6.1-1.5 9.1a23 23 0 0 1-6.3 1 15.8 15.8 0 0 1 .3-3.8 21.7 21.7 0 0 0 .2-3.6c.2-.2.2-.5.3-.9v-1.1l.3-1c.2-1.6.3-3.1.5-4.7a.7.7 0 0 1 .1-.5l.5-4.5a.7.7 0 0 0 .1-.5c.6-4.7 1.2-9.3 1.9-13.9a15.2 15.2 0 0 0 .2-4.2c-.3-1.2.8-1.8.6-2.7l3.8-1c.4 1.1 1.5 1.4 2.1 2.2ZM131.9 163.4c2 2 4.4 3.6 6.5 5.5l2.5 1.9c-2.7 4.4-5.4 8.7-8 13.1a3.2 3.2 0 0 1-.9.8c-3.4-.1-6.7-.9-10-1.3l-6.7-.7c-.5-.1-1.1 0-1.5-.5s-.2-.5 0-.7a11.8 11.8 0 0 0 1-5.2 1.5 1.5 0 0 1 .6-1.1c5-3.9 9.5-8.4 14.3-12.6l.3-.2c.8 0 1.1.9 1.9 1Z" class="ab"/><path d="M100.5 189h-.7c-.3-.4-.7-.2-1.1-.3a1.5 1.5 0 0 0-1.1-1.8 8.8 8.8 0 0 1-4.6-6.6c-.1-.6.3-.7.8-.9s2.5 0 3.7-.3 2.6-.7 3.5.7h.1c1.7-.6 2 .9 2.6 1.8 1.6 2.4 3 2.9 5.7 2l1-.2a10.8 10.8 0 0 1-4.5 3.1c-.9.3-1.6.9-2.5 1.3s-.6.6-.6 1.1a2.6 2.6 0 0 1-2.3.1Z" class="l"/><path d="m113.7 182.1 6.6.8 10.7 1.4c.3 0 .7.3 1 .4l-.2.6c-4.1-.2-8.2-1-12.2-1.5a40.9 40.9 0 0 1-6.1-1 .5.5 0 0 1 0-.5v-.2Z" class="p"/><path d="M130 162.4c-.8 1.6-2.4 2.4-3.6 3.6l-8.7 7.8c-.9.9-2.2 1.4-2.9 2.5h-.2v-1.1c2.7-2.1 5.1-4.4 7.6-6.6l6.6-5.8c.3-.3.6-.6 1-.5Z" class="r"/><path d="M112.2 184.3a6.7 6.7 0 0 1-2.5 2.5 3.9 3.9 0 0 1 2.5-2.5Z" class="k"/><path d="M100.5 189h3.3a3.2 3.2 0 0 1-3.3 0Z" class="s"/><path d="M113.7 182.1h-.1c-.4-.4-.2-.6.2-.6Z" class="k"/><path d="M105.4 188.7c-.2.3-.3.4-.6.2s.3-.3.6-.2Z" class="s"/><path d="M108.9 187.3a.5.5 0 0 1-.6.4c.1-.3.3-.5.6-.4Z" class="d"/><path d="M113.5 182.3v.5h-.2c0-.2 0-.4.2-.5ZM112.5 184l-.3.3Z" class="k"/><path d="M93.9 171.9a9.2 9.2 0 0 1 2.3-2.5c.4.2.8.5.6 1.1l-1.7 1.9-.3.2c-.5.3-.5 1.3-1.1 1s.1-1.1.2-1.7Z" class="z"/><path d="M88.5 151.1a2.4 2.4 0 0 1-2.5 2.7 2.8 2.8 0 0 1-2.6-2.5 3 3 0 0 1 2.7-2.8 2.4 2.4 0 0 1 2.4 2.6Z" class="h"/><path d="M101.7 145.5c.2 3.3.3 6.6.4 9.9.1.2.2.3.2.5l.3 7.7c-.1.3-.3.5-.6.3-.4-2.2-.2-4.4-.4-6.6a.9.9 0 0 1-.1-.5c-.1-2.4-.1-4.8-.1-7.2a.8.8 0 0 1-.2-.5l-.3-3.5c.3-.3.6-.3.8-.1Z" class="n"/><path d="M101.7 145.5h-.8c0-.7-.5-.6-.9-.6s-.9.1-1-.5h3ZM102 163.9l.6-.3c.5.5.1 1.1.2 1.7h-1.1ZM99.5 165.8a2.4 2.4 0 0 1-1.3.5c.3-.6.7-.8 1.3-.5ZM101.2 149.1c.2.1.2.3.2.5s-.6-.2-.2-.5ZM101.5 156.8c.2.1.2.3.1.5s-.5-.2-.1-.5ZM97.6 144.2a.7.7 0 0 1 .6.2c-.4.4-.5.2-.6-.2ZM100.9 165.5c-.1.3-.3.3-.5.2s.2-.5.5-.2Z" class="w"/><path d="m92.9 170.7-.3.3Z" class="s"/><path d="M104.7 167.7c.2 2.6-.6 5-1.3 7.4-.3.8-.8.9-1.4.4h-.1c-1.4-1.8-3.1-3.3-4.6-5.1 0-1 .9-1 1.5-1.3l1.7-.7c1.4-.5 2.7-1.2 4.2-.7Z" class="c"/><path d="M100.4 168.5c-1 .7-2.3.8-3.1 1.8l-.5.2c-.2-.4-.6-.6-.6-1.1a6.3 6.3 0 0 1 4.2-1.9c.5.3 1 .7 0 1Z" class="u"/><path d="M100.4 168.5c.6-.3-.1-.7 0-1a5.4 5.4 0 0 1 4.3.2c-1.5-.1-2.9.8-4.3.8Z" class="z"/><path d="M104.6 165.4c.3-.1.6-.1.7.2a.4.4 0 0 1-.7-.2ZM106.7 166h-.5v-.3c.3-.3.4 0 .5.3Z" class="w"/><path d="M237.8 154.6c-.2 3.6-1.1 7.1-1.2 10.7l-16.4 2.3-5 .6a16.3 16.3 0 0 1-2.3-3.5c-2.5-4.2-5.3-8.3-7.6-12.6.1-1 1.2-1.2 1.7-1.9s.7-.6.9-1l10.8-9.9 11.4-10.6a33.2 33.2 0 0 0 3.8-3.7 5.4 5.4 0 0 0 1.6-1.4 2.6 2.6 0 0 1 1.7-.7 9.5 9.5 0 0 0 2.4.7c.3.3.7.2 1.1.2h.8c0 2.1-.4 4.2-.6 6.3-.5 5-1.2 10.1-1.8 15.1-.4 3-.8 5.9-1.1 8.8a1.4 1.4 0 0 1-.2.6Z" class="ac"/><path d="M240.6 122.4a6.9 6.9 0 0 1-6.1-3.5 11.2 11.2 0 0 1-1.6-3.3c-.2-.7-.1-.9.6-1.2a9.7 9.7 0 0 1 7.3.1 1.8 1.8 0 0 1 1.2 1.2c1.1 2.7 1.4 2.9 4.2 2.9h1.1c.5.1.5.3.2.7s-5.5 3.1-6.9 3.1Z" class="j"/><path d="M240.7 123.8c-.5.4-.9.5-1.1-.2s.8-.2 1.1.2Z" class="ab"/><path d="M242.3 104.5a12.4 12.4 0 0 0-9.1 6.6c-.3-4.1 3.6-7 9.1-6.6Z" class="t"/><path d="M252.5 76a9.5 9.5 0 0 0-6.1 2.7c-1 .5-1.4 1.7-2.2 2.6.8-4.1 3.8-5.7 7.1-5.8.5 0 1 0 1.2.5Z" class="z"/><path d="M152.8 179.6c.2 0 .3.1.3.2Z" class="p"/><path d="M151.2 179.5c-3.2.6-5.7 2.7-5.6 5.8v.2c-.9.8-2 .4-3 .3l-8.9-1a43.8 43.8 0 0 1 4-7c1.2-2.1 2.6-4.2 3.9-6.3 1.8.8 3 2.5 4.6 3.6l4.1 3.2c.4.3 1 .6.9 1.2Z" class="y"/><path d="m163.6 127.7-.3.2Z" class="d"/><path d="M102.3 155.9c-.2-.1-.2-.3-.2-.5s.6.2.2.5Z" class="w"/><path d="M131.4 162.3 130 161a1.9 1.9 0 0 0 1.4-.5L145 148l13.9-12.9a24.3 24.3 0 0 1 2.9-2.6c.3-.1.4.1.5.4a.7.7 0 0 1-.1.6l-.5.3-.2.2-.3.4a57.8 57.8 0 0 1-5 4.9l-9.8 9.1-10.4 9.4a27.9 27.9 0 0 0-4.6 4.5Z" class="r"/><path d="M162.2 133.2a1.6 1.6 0 0 0-.4-.7c2.3-2.4 4.8-4.6 7-7.1a.8.8 0 0 1 1.1-.2c-.1.6-.7.8-.8 1.4s-3.4 3.6-5.2 5.4-.9 1.1-1.7 1.2Z" class="x"/><path d="M162.2 133.2c2.1-2.1 4.3-4.1 6.3-6.4l.6-.2a46.3 46.3 0 0 1-4.3 7.1c-5 8-10.2 15.9-15.3 23.8l-8 12.5c-1.7-.7-2.9-2.1-4.3-3.2s-3.1-2.7-4.9-3.8l-.9-.7c-.2-.9.5-1.3 1-1.7l18.9-17.2 9.3-8.7c.2-.1.3-.4.5-.6a.5.5 0 0 1 .2-.4l.6-.3Z" class="y"/><path d="M183.9 172.8h-1.6l6.7-6.1 9.1-8.3 5.8-5.4c.3-.2.6-.6 1.1-.5a50.5 50.5 0 0 1 4.7 7.3c1.5 2.4 2.9 5 4.6 7.4.2.3.7.7.3 1.2-2 .8-4.1.7-6.1 1l-18.1 2.6Z" class="ab"/><path d="M214.6 168.3c-2-3.3-4.2-6.4-6-9.8s-2.7-3.9-3.6-6.1l.3-.3c.5 0 .6.5.8.8 2.9 4.7 5.7 9.4 8.6 14 .2.4.3.9.5 1.3Z" class="v"/><path d="M238.7 154.6c.1.4.1.8-.3 1s-.1-.7.3-1ZM238.3 156.7c.2.5.1.7-.3.9s-.2-.7.3-.9ZM237.8 154.6l.2-.6c.3.4.1.5-.2.6ZM239.9 144.4c.2.2.2.4-.1.5s-.1-.4.1-.5ZM239.3 149.4a4.3 4.3 0 0 0-.1.5c-.2-.2-.1-.4.1-.5ZM161.9 133.4a.6.6 0 0 1-.6.3.7.7 0 0 1 .6-.3ZM161.3 133.7c0 .1-.1.2-.2.4s.2-.3.2-.4Z" class="x"/></svg>