<svg xmlns="http://www.w3.org/2000/svg" id="Layer_1" data-name="Layer 1" viewBox="0 0 271 261.9"><defs><style>.cls-1{fill:#202945}.cls-2{fill:#fcf2d8}.cls-3{fill:#eba339}.cls-4{fill:#64c5e6}.cls-5{fill:#b5753b}</style></defs><path d="M203.7 127.3a3.1 3.1 0 0 1-.4 3.2h-.2c-1 2-1.8 4.1-3.3 5.7a14.7 14.7 0 0 1-10.9 4.8c-10.1.2-20.3.3-30.5 0-5.8-.2-10.8-2.7-13.1-8.6a4.9 4.9 0 0 0-1.1-1.4 3.4 3.4 0 0 1-.9-3.7 3.2 3.2 0 0 1 3.2-2 2.5 2.5 0 0 0 2.5-1.6l14-25.8c2.1-3.8 4.1-7.6 6.2-11.3.9-1.6.4-2.5-1.4-2.7h-29.3c-1.9 0-1.9 0-2.3 1.8a11.2 11.2 0 0 1-1.8 4.2 3.1 3.1 0 0 0-.6 2.1v38.7a3.4 3.4 0 0 0 .7 2.2 9 9 0 0 1 1.8 5.7c0 .3-.1.7.2.9a6.5 6.5 0 0 1 1.9 3.2c.1.5.6.5 1 .6 2.7.4 5.1 1.3 6.8 3.6s1.5.8 2.3 1.2a15.5 15.5 0 0 1 7 4.8 9.1 9.1 0 0 1 1.3 2.6 1.3 1.3 0 0 0 1.5 1.1H191a28.5 28.5 0 0 1 6.5.5c1.4-.1 2.2.9 2.9 1.9 2.5 3.4 4.2 7 3.6 11.5.5.8.1 1.4-.2 2.1-1.6 3.9-4.6 6.5-8 8.6-6.2 3.8-13.1 6.1-20.1 7.8a159.3 159.3 0 0 1-20.5 3.4c-4 .4-7.9.6-11.9.8-8.2.5-16.4.4-24.6.2a164.4 164.4 0 0 1-37.6-5c-6.7-1.8-13.3-4-19.1-8a19.3 19.3 0 0 1-6.6-7c-.4-.8-.9-1.6-.4-2.5-1.1-5.3 1.1-9.5 4.6-13.2a3.3 3.3 0 0 1 1.5-.5c3.8-.9 7.7-.5 11.6-.5h26.6c1.9 0 1.9 0 2.6-1.7 1.3-3.3 4-5.3 7.2-6.6a8.5 8.5 0 0 0 4-2.5c1.2-1.6 3.2-2.1 5.2-2.5s1.4-.4 1.5-1.3a1.6 1.6 0 0 1 .5-1.1c1.3-1.2 1.4-2.7 1.6-4.3a8.8 8.8 0 0 1 1.7-4.1 3.8 3.8 0 0 0 .8-2.3V92.2a3.2 3.2 0 0 0-.8-2.3 7.1 7.1 0 0 1-1.7-4.6c0-1-.5-1.4-1.5-1.4H90.9a2.5 2.5 0 0 0-1.2.2c-1.3.5-1.5 1-.8 2.2 3.8 6.9 7.4 13.9 11.2 20.8s5.9 10.7 8.7 16.2c.6 1.3 1.3 2.1 2.9 1.9a2.9 2.9 0 0 1 3.2 2 3.2 3.2 0 0 1-.8 3.8 6.6 6.6 0 0 0-1.4 2 12.7 12.7 0 0 1-12.2 7.8c-10.7.2-21.4.1-32.2 0a13.3 13.3 0 0 1-12.2-8.6 14.8 14.8 0 0 0-1.3-2.1l-.2-.2c-.1 0-.2-.1-.1-.2a3 3 0 0 1-.1-2.1c.6-1.7 1.1-2.2 2.8-2.2a2.8 2.8 0 0 0 2.9-1.9c3.1-5.9 6.3-11.7 9.5-17.5l10.1-18.8a2.2 2.2 0 0 1 .5-.8c.7-1 .5-1.7-.4-2.6a7.3 7.3 0 0 1 9.1-11.5l.7.6a4.5 4.5 0 0 0 3.1 1.2c3.5 0 7 .1 10.4 0 5.2-.3 10.5.1 15.7.1 2.5 0 3.8-1.5 5.2-3.1a2.3 2.3 0 0 0-.5-2.9 8.7 8.7 0 0 1-2.5-3.7 7.5 7.5 0 0 1 1.8-7.7 8.6 8.6 0 0 0 2.1-2.9 4.3 4.3 0 0 1 7.8 0 7.9 7.9 0 0 0 1.9 2.5c3.6 3 3.2 8.4.2 11.4l-1.1 1.2a1.7 1.7 0 0 0-.1 1.2c.2 1.2 3 3.7 4.2 3.8h28.4a3.8 3.8 0 0 0 2.3-1.1 7.4 7.4 0 0 1 10.1 10.7l-.2.2a1.9 1.9 0 0 0-.5 2.7h.1c3.2 5.7 6.3 11.5 9.3 17.3s5.8 10.5 8.4 15.8c.8 1.6 1.7 3 2.6 4.6a1.5 1.5 0 0 0 1.8.8c2.1.1 2.8.5 3.6 2.3Z" class="cls-1"/><path d="M203.7 127.3a4 4 0 0 0-4.1-1.3c-.8.2-1.2-.2-1.6-.9-3.1-5.8-6.2-11.5-9.2-17.3S181 93.2 177 86c-.5-.9-.4-1.2.4-1.8a6.8 6.8 0 0 0-7.7-11.3l-1.2 1a3.8 3.8 0 0 1-1.7.8h-29.2a1.8 1.8 0 0 1-1.8-.9l-1.3-1.3c-1.8-1.5-1.9-3.2-.2-4.8a7.3 7.3 0 0 0 .6-10.3 6.9 6.9 0 0 0-1.3-1.1 3 3 0 0 1-.9-1.3 3.9 3.9 0 0 0-3.9-3 4 4 0 0 0-3.7 3 2 2 0 0 1-.8 1.2c-4.1 3.1-4.2 8.4-.2 11.7a3 3 0 0 1 0 4.1 3.6 3.6 0 0 0-1.1 1c-.8 1.7-2.2 1.6-3.7 1.6h-28a2 2 0 0 1-1.4-.6 7.1 7.1 0 0 0-7.5-2 6.4 6.4 0 0 0-4.6 5.4 6.5 6.5 0 0 0 3.4 6.9c.6.4.5.5.2 1l-21.3 39.3a2 2 0 0 1-2.2 1.3 3.2 3.2 0 0 0-3.5 1.7 78.1 78.1 0 0 1 3.2-25 74.2 74.2 0 0 1 10.9-22 77.1 77.1 0 0 1 19-18.8 73 73 0 0 1 24.8-10.7 78.2 78.2 0 0 1 21.6-1.5 71.8 71.8 0 0 1 21.9 4.9 75.8 75.8 0 0 1 46.8 59.6c.9 4.2.8 8.7 1.1 13.2Z" class="cls-2"/><path d="M55 171c1.7 5.3 5.7 8.4 10.4 10.9 7.4 4 15.4 6.1 23.5 7.8a181.7 181.7 0 0 0 32.9 3.3 265.7 265.7 0 0 0 30.9-.8c12-1.1 23.8-3 35.1-7.5 1.9-.8 3.7-1.6 5.6-2.6 4.9-2.6 9.1-5.9 10.8-11.5a23.1 23.1 0 0 1 9.2 6.2c3.8 4.3 2.5 8.8-1.4 12.2s-9.9 6.4-15.5 8.6a137.3 137.3 0 0 1-28.3 7.5c-6.4 1-12.8 1.9-19.3 2.3s-16.1.8-24.2.8a188.3 188.3 0 0 1-24.9-1.8 171.4 171.4 0 0 1-33.2-7.4c-6.2-2.1-12.3-4.5-17.5-8.7a19.9 19.9 0 0 1-4.2-4.5 6.3 6.3 0 0 1 0-7.4A23.4 23.4 0 0 1 55 171Z" class="cls-3"/><path d="M54.9 130.3c1.5.7 1.7 2.2 2.4 3.5a12.7 12.7 0 0 0 7.8 6 26.1 26.1 0 0 0 5.6.8h28.4c3.3 0 6.4-.6 9-2.7a19.2 19.2 0 0 0 3.8-4.3c.8-1.1 1.1-2.4 2.2-3.4a2.7 2.7 0 0 0 .4-2.6 2.9 2.9 0 0 0-2.2-1.6c-2.5.4-3.4-1.1-4.4-2.9L88.2 86.4c-.3-.5-.7-1.4-.6-1.5a10.9 10.9 0 0 1 2.3-1.4h31.4c.8 0 1.2.1 1.2 1.1a8.1 8.1 0 0 0 1.9 5.4 4.8 4.8 0 0 1 .7 2v39.4a2.5 2.5 0 0 1-.6 1.6 8.8 8.8 0 0 0-2 6.4 1.1 1.1 0 0 1-.5.9 3.4 3.4 0 0 0-1.7 3c0 .8-.4.7-.9.9l-5.1 1.8a1.6 1.6 0 0 0-1 .8c-.7 1.5-2 1.7-3.3 2.2-3.4 1.2-6.4 3.1-7.5 6.8-.6 1.9-1.5 1.9-3 1.9H61.1c1.1-.1 1.5-.4.8-1.6a69.9 69.9 0 0 1-6.5-23.2c-.2-1.1-.3-1.9-.5-2.6ZM197.5 157.3h-39.7c-.9 0-1.3-.1-1.5-1.2-.9-3.8-3.9-5.7-7.2-7.2l-1.8-.6a4.6 4.6 0 0 1-1.8-1.3c-1.7-2.1-4-2.8-6.5-3.1-.8-.1-1.1-.3-1.3-1.2a8.7 8.7 0 0 0-1.6-2.6c-.2-.3-.6-.6-.5-.8.6-2.6-.5-4.6-1.9-6.6a2.2 2.2 0 0 1-.4-1.3V91.6a3.5 3.5 0 0 1 .6-1.8 9.1 9.1 0 0 0 1.8-5.3c0-.9.3-1 1.1-1h30.9c1 0 2 .8 2.9 1.3s0 .5-.1.8l-20.1 36.9-.7 1.2c-.6 1.6-1.5 2.7-3.6 2.3a2.2 2.2 0 0 0-2.4 1.9 2.7 2.7 0 0 0 1 3.1 4.2 4.2 0 0 1 1.1 1.5 12.9 12.9 0 0 0 6.7 6.7c3.6 1.7 7.3 1.4 11 1.4h25.1a14.2 14.2 0 0 0 10.6-4.4 11 11 0 0 0 2.3-3.7 3.2 3.2 0 0 1 1.6-1.8 47.3 47.3 0 0 1-2.4 14c-1.2 3.7-2.7 7.2-4.2 10.8-.5 1.5-.5 1.5 1 1.8ZM62.6 44.5c-.3.3-.8 1.2-1.5 1.4-4.1 1.2-7.3 3.7-10.3 6.6-1.1 1.1-2 1.2-2.9.3s-.7-1.9.3-2.9a26.7 26.7 0 0 1 11.6-7.6c1.6-.4 2.8.3 2.8 2.2ZM211.4 52.4l-1.8-1a21.8 21.8 0 0 0-8.2-5.1c-1.4-.5-2-1.5-1.7-2.4s1.5-1.5 3.1-1a23.9 23.9 0 0 1 9.5 6.1 2.3 2.3 0 0 1 .5 2.1c-.1.4-.9.8-1.4 1.3ZM48.8 64.3l.6-1.6a21.9 21.9 0 0 1 8.3-7.7 2 2 0 0 1 2.8.4l.2.3a2 2 0 0 1-1.2 2.6 18.5 18.5 0 0 0-7.1 6.5 2.6 2.6 0 0 1-2.1 1.1c-.6-.2-1-1.1-1.5-1.6ZM209.6 62.7c-.3.4-.6 1.2-1.1 1.3a3.1 3.1 0 0 1-2.1-.5c-1.2-1-2.1-2.4-3.2-3.4s-2.4-1.8-3.7-2.6-1.6-1.8-.7-2.6a2.5 2.5 0 0 1 2-.7 18.3 18.3 0 0 1 8.5 7.3 10.4 10.4 0 0 1 .3 1.2ZM54.5 127.7ZM54.6 129.8c.1 0 .1.1.1.2ZM203.2 130.5Z" class="cls-2"/><path d="M198.9 160.4c4.4 5 4.4 11.2.2 15.4a31.6 31.6 0 0 1-9.3 6c-8.2 3.7-16.9 5.6-25.7 7.1-15.3 2.5-30.7 2.7-46.1 2.1a157.6 157.6 0 0 1-37.4-5.2c-5.8-1.6-11.4-3.5-16.5-6.8a30 30 0 0 1-4.8-4c-3.4-3.7-3.7-7.9-1.2-12.2.4-.8 1-1.5 1.5-2.3 2.2 7 7.8 10 13.7 12.7a81.8 81.8 0 0 0 8.7 3.2 119.1 119.1 0 0 0 22.2 4.2 248 248 0 0 0 39.5.8c11.6-.7 23.1-1.9 34.2-5.5 6.2-2 12.3-4.4 17.2-9a15.9 15.9 0 0 0 3.8-6.5Z" class="cls-4"/><path d="M128.9 174.7h19.6a26.8 26.8 0 0 0 10.1-1.7 10.4 10.4 0 0 0 3.5-2.4c2.1-2.3 1.3-5.3-1.8-6.1a8.3 8.3 0 0 1-4-2.4 1.7 1.7 0 0 1-.4-1.3c.2-.6.4-1.2 1.4-1.2h38.8c.7 0 .9 0 .8.9a11 11 0 0 1-4.1 6.2 41.5 41.5 0 0 1-14.4 7.2 128.6 128.6 0 0 1-26 5.1 284.8 284.8 0 0 1-33.3.8c-12.8-.3-25.4-1.7-37.7-5.5a46.4 46.4 0 0 1-14.4-6.9 12.5 12.5 0 0 1-5-6.5c-.3-1.1-.1-1.4 1-1.4h38.2c1.2-.1 1.3.7 1.6 1.4s-.2.9-.4 1.2a8.3 8.3 0 0 1-4 2.4c-3.5 1-4.2 4.3-1.5 6.7a12.6 12.6 0 0 0 8.2 3.2l23.9.7Z" class="cls-4"/><path d="M122.4 163.8c-4.7-.5-9.5-.8-14.2-1.5-2-.3-3.9-1.1-4.4-3.5a5.7 5.7 0 0 1 2.3-5.7 21.9 21.9 0 0 1 4.1-2.6 3.2 3.2 0 0 1 3.3.3 14.7 14.7 0 0 0 6.2 1.7c7 .1 14 0 21-.1a7.8 7.8 0 0 0 5-1.9 1.9 1.9 0 0 1 1.5-.2l2.7 1.2c.8.5.5 1.2 0 1.6-4.1 4.3-8.4 8.2-14.6 8.9a22.6 22.6 0 0 0-6.3 1.7h-.1c-.2.1-.4.2-.6 0h-3.6a4.5 4.5 0 0 1-2.3.1Z" class="cls-3"/><path d="m151.3 125.9 21.3-39v1c0 12.1 0 24.2.1 36.3 0 1.5-.4 1.8-1.8 1.8-6.5-.2-12.9-.1-19.6-.1ZM62.3 125.9l21-38.8v37.4c0 1.2-.3 1.4-1.4 1.4ZM85.7 86.9l21 39H86.5c-1.2 0-.8-.8-.8-1.3V86.9ZM175.1 87.4l20.7 38.5h-19.9c-.3 0-.8-.6-.8-.9-.1-2.7 0-5.4 0-8.1V87.4Z" class="cls-2"/><path d="M124.7 165.8h9.6c4.6-.2 9.2-.4 13.7-.8a19 19 0 0 0 5.7-1.8 1.5 1.5 0 0 1 1.7.2c1.3 1 2.7 1.7 4 2.6s1.8 1.1 1.9 1.7a2.8 2.8 0 0 1-1.3 2.3 30.4 30.4 0 0 1-6.6 2.3 38 38 0 0 1-7.5.6h-32.5c-3 0-6-.2-9-.5a14.7 14.7 0 0 1-2.8-.8 1.1 1.1 0 0 1 .7-.6 6.3 6.3 0 0 1 1.9-.3c6.6.1 13.2-.5 19.7-.3l4.8-.3a2.5 2.5 0 0 0 1.6-.8 16.1 16.1 0 0 0 2.4-2.8h-6.4c-.6.1-1.4.3-1.6-.7ZM181.2 138.6h-14.1c.8-1 1.8.1 2.6-.3a24.3 24.3 0 0 1-10.6-2.2c-.7-.3-1.8-.5-1.8-1.5s1-1.2 1.7-1.7l1.6-.9a3.5 3.5 0 0 1 2.2-.8h31.9c.5.8 0 1.3-.5 1.7a20.9 20.9 0 0 1-13 5.3c-.2.2.1.3 0 .4ZM96.3 138.7h-18c.5-.9 1.3-.1 2.1-.3a23.8 23.8 0 0 1-9.1-1.8l-1.4-.6c-1.3-.7-1.4-1.5-.1-2.2s3.1-2 5-2.3h30.7c.4.8-.2 1.2-.6 1.7a19.6 19.6 0 0 1-10.3 5l-2.3.3c.8 0 1.7-.3 2.8-.3s1-.3 1.2.5Z" class="cls-5"/><path d="m124.7 165.8 4.8.2a34 34 0 0 1 4.5.3 41.6 41.6 0 0 1-4.2 4.2c-.8.6-2.3.4-3.5.5h-2.9l-19.3.3-2.6.3a35.4 35.4 0 0 1-4.1-2.6 1.6 1.6 0 0 1-.1-2.2l.8-.5a13.1 13.1 0 0 0 5.8-3.4.8.8 0 0 1 .8-.1c3.7 2 7.8 2.3 11.8 2.6s5.5.3 8.2.4Z" class="cls-3"/><path d="m129.7 87 3-1h.6c0 .2.1.5 0 .7l-1.3 2.2a4.8 4.8 0 0 0-.7 2c0 13.5 0 27-.1 40.4 0 2 1.4 2.9 1.9 4.4l.6 1.7c.3 2-.1 2.6-2.2 2.6h-5.4c-1.6-.1-2.1-.8-1.8-2.4s1.2-.6 1.8-.2 1 .1 1.3-.4a5.4 5.4 0 0 0 .8-2.8c0-2.7-.2-5.4-.2-8-.1-10-.1-20 0-29.9 0-2.4.2-4.9.2-7.3a1.8 1.8 0 0 1 1.5-2ZM129.1 163.8a5.7 5.7 0 0 1 1.8-1.2c2-.6 4.1-1 6.2-1.5a17 17 0 0 0 8-4.1l4.3-4.1c.3-.3.3-.9.5-1.4 3.1 1.3 5.7 5.2 4.4 7.8a4.7 4.7 0 0 1-2.1 2.3 23.3 23.3 0 0 1-6.4 1.7c-5.5.4-11.1.4-16.7.5Z" class="cls-5"/><path d="M82.4 82.4c-2.7-1.7-3.3-4.4-1.6-6.7a4.7 4.7 0 0 1 6.6-.9.8.8 0 0 1 .4.4 4.4 4.4 0 0 0 3.4 1.3h31.9c.1.4 0 1 .7.5.2 0 .3-.1.2-.3h.1c.2 0 .3 0 .2-.2.2 0 .3-.1.3-.2.2 0 .2-.1.3-.2l1.2-.8c.8.5.6 1.3.5 2.1s-1.1 2.3-.5 3.6a3.3 3.3 0 0 0 1.2 1.4 2.7 2.7 0 0 1 1 1.1c.1.8.1 1.5-.9 1.5s-3-2.1-4.2-3.5H90.7c-.8.2-1.7-.1-2.5.2l-.5.3c-.5.2-.8 0-.9-.5v-.4l.3-.6.5-.4a1.6 1.6 0 0 1 .9-.3 41 41 0 0 1 7 .2 18.8 18.8 0 0 0 5.8 0c4.4.1 8.8 0 13.2 0a8.1 8.1 0 0 0 3.1 0h3.6c.5 0 1 .6 1.5.2l.2-.4a.8.8 0 0 0 0-.7l-.2-.2h-1.2a12.7 12.7 0 0 0-2.8-.2H91.9a17.2 17.2 0 0 0-3.2.2 1.7 1.7 0 0 1-1.8-1c-.9-1.7-2.1-2.3-3.5-1.6a3.1 3.1 0 0 0-1.6 3.8l.2.4.2.3.2.3.2.3v.3a1.2 1.2 0 0 1-.2.7ZM129.7 87a7.1 7.1 0 0 0-.8 1.8c-.1 12.6-.2 25.2-.2 37.8 0 2.5.3 5 .2 7.5a10.4 10.4 0 0 1-1.1 3.8c-.3.7-.9 1.5-1.7.2s-1.1-.3-1.6-.4a5.6 5.6 0 0 1 1.5-3.7 3.2 3.2 0 0 0 .8-2.1V91.6a4.3 4.3 0 0 0-1-2.9 18.2 18.2 0 0 1-1.5-2.7ZM74.8 131.3l-5.7 3.4c2 1.5 6.6 2.8 12.2 3.7l-3.1.2h-7.9a14.5 14.5 0 0 1-8.3-2.3 8.7 8.7 0 0 1-3.7-4.9ZM84.6 127.9h25.9c.7 0 2-.7 2.1.6s-1.3.9-2.1.9h-53c-.3-.1-.5-.5-.8-.8s.5-.6.8-.7h27.1ZM173.8 127.9h26.3c.6 0 1.5-.4 1.5.7s-.9.9-1.5.9H147l-1.3-.9c.4-.2.9-.6 1.3-.6l26.8-.2ZM128.3 145.9h5.5c.7.7.1 1.2-.3 1.7a8.2 8.2 0 0 1-6.3 3.2h-7l-5.6-1.3c-.9-.2-.8-.8-.2-1.4a7.9 7.9 0 0 1 5.6-2.3h8.3ZM124.9 65.9a5.1 5.1 0 0 1-.3-7.2l1.3-1a3.1 3.1 0 0 0 1.1-1.6c.3-1.4 1-2.2 2.1-2.1s1.6 1 1.7 2.2.6 1 1 1.5a7.3 7.3 0 0 1 .3 7c-.7 1.5-3.2 2.3-5.2 2l-1.3-.3-.3-.2Z" class="cls-3"/><path d="M126.3 76.9 126 75a6.7 6.7 0 0 1 7.4.4 4.3 4.3 0 0 0 2.9 1h8.7c.8.7.6 1.2-.3 1.4l-1.7.4h-6.7c-.4 0-.8.2-.8.6s.4.6.8.6h8.4a4.1 4.1 0 0 1 1.9.2 4.6 4.6 0 0 0 3.2.9h7.9c.5 0 1.1-.2 1.4.5h-22.7a2.7 2.7 0 0 0-2.5 1.2 5.7 5.7 0 0 1-6.5 2.1l.6-1.7c.3-.6.9-.5 1.5-.6a2.8 2.8 0 0 0 2.4-3.1 2.9 2.9 0 0 0-3-2.6c-.9.3-1.7 1.1-2.6.6ZM120.2 150.8c2.5-.1 5-.1 7.5-.4s4.4-2 6.1-3.8c.1-.1 0-.4.1-.7a14.7 14.7 0 0 1 8.3.9 11 11 0 0 1 2.3 2 8.9 8.9 0 0 1-2.5 1.4 24.6 24.6 0 0 1-5.3.6h-16.5Z" class="cls-5"/><path d="m181.2 138.6-1.2-.3c5-.7 9.6-2.2 13.5-5.5l1.1-1.5h4.7c.8 0 .9.2.5 1-2.6 4.4-6.6 6.2-11.4 6.4a57.7 57.7 0 0 1-7.2-.1ZM96.3 138.7l-5.5-.3a24.7 24.7 0 0 0 10.8-3.6 31.7 31.7 0 0 0 3.9-3.4h4.3c1.2-.1 1.1.4.7 1.2-2.2 3.9-5.7 5.7-10 6.2h-4.2ZM143 77.8l1.4-.3c.8-.1.9-.4.6-1h22.7a2.6 2.6 0 0 0 2.3-1 4 4 0 0 1 4.6-1.3c-.2.4.6.6.2 1a.9.9 0 0 1-.6.3 3.4 3.4 0 0 0-3.3 2 1.1 1.1 0 0 1-.9.6c-4.7.1-9.4 0-14.2 0a15.8 15.8 0 0 0-3.8.4c-2.6.3-5.2-.3-7.8-.3a1 1 0 0 1-1.2-.4ZM162.7 131.4h-15.1a7.9 7.9 0 0 0 4.2 5.2 12.6 12.6 0 0 0 6.8 2h8.3l4.1-.3a35 35 0 0 1-13.8-3.7l3.6-2.3" class="cls-3"/><path d="M129.2 144.1h-5.8a1.6 1.6 0 0 1-1.1-.8 2.8 2.8 0 0 1 .8-1.5c.3-.3 1-.2 1.5-.2h9.3c.4 0 1.1 0 1.3.2a2 2 0 0 1 .6 1.5c0 .2-.6.6-1 .6ZM125.5 66.3l2.5-.2c3.1-.2 4.3-1.5 4.1-4.6-.1-1.3-.3-2.5-.4-3.8 2 .5 3.4 3.2 2.9 5.7a4.9 4.9 0 0 1-4.8 4.2c-1.5-.1-3.1-.1-4.3-1.3Z" class="cls-5"/><path d="m159.2 81.3-6.1-.2h-4.7a1.8 1.8 0 0 1-1.8-.8 1.7 1.7 0 0 1 1.6-.6h20.2c.8 0 1.6 0 1.9 1s-.8.4-1.3.5Z" class="cls-3"/><path d="m169.2 81.2 1.2-.4c.4-1 1-.4 1.4-.2a3.2 3.2 0 0 0 4.3-1.3 2.4 2.4 0 0 0-.6-3c-.3-.3-.9-.5-.7-1.2l-1.1-.8h.8c1.8 0 2.7 1.2 3.3 2.5a4.6 4.6 0 0 1-7.1 5.4l-.2-.2ZM129.1 69.5h.1c1.9-.2 2.7.6 2.1 2.5 0 .2-.4.4-.7.4l-2.3-.2q-.9-.2-.6-.9c.3-.8.1-1.8 1.4-1.8ZM87.1 80.8l.7.9a4 4 0 0 1-5.3.7l-.2-1.3a1 1 0 0 1 .9-.2 4.7 4.7 0 0 0 3.1-.2.8.8 0 0 1 .8.1Z" class="cls-5"/><path d="M129.1 69.5c-1 .7-.8 1.7-.8 2.7l-1.8.4c0-.4.1-.7.1-1 .2-2.4.2-2.4 2.5-2.1Z" class="cls-3"/><path d="M128.3 145.9ZM88.2 81.4l2.5-.2ZM122.4 163.8ZM98.5 138.7ZM123.8 76.9l-.5.4-.2-.9ZM124 76.6l-.2.3ZM124.3 76.3l-.2.2ZM124.6 76.1l-.3.2ZM124.9 75.8l-.3.2ZM124.9 65.9l.3.2Z" class="cls-5"/><path d="M87.1 80.8a4.4 4.4 0 0 1-4.9.3.3.3 0 0 1-.3-.3c-.2 0-.3-.1-.2-.3-1.4-2.9.2-5.6 3.1-5.5a2.8 2.8 0 0 1 2.7 2.2 2 2 0 0 0 .8.8h35.2l.2.4a6.1 6.1 0 0 0-.1 1.4l-.2.5c-.6.3-1.1-.1-1.7 0h-3.9a8.1 8.1 0 0 0-3.1 0h-13.4a29.1 29.1 0 0 0-5.9 0h-7.8l-.2.3-.3.2ZM126.3 76.9c1.5-.8 3-1.2 4.5-.3a3.4 3.4 0 0 1 1.5 4 3.4 3.4 0 0 1-3.3 2.5h-1.1a3.8 3.8 0 0 1-1.6-6.2Z" class="cls-1"/><path d="M122.2 77.9H88.3l1.1-.2h31.9ZM123.4 79.7c0-.5.1-.9.1-1.4a6.1 6.1 0 0 1-.1 1.4ZM87.6 80.2ZM81.9 80.8l.3.3ZM87.1 80.8l.3-.3ZM81.6 80.5l.2.3Z" class="cls-5"/><path d="m174.8 75 1.4 1.1a3 3 0 0 1-.3 4.4 3.3 3.3 0 0 1-4.4.5c-.3-.2-.7-.1-1.1-.2a4.3 4.3 0 0 0-1.6-.5H136c-.7 0-1.4 0-1.3-1s.3-1.2 1.2-1.2h32.9a3.8 3.8 0 0 0 1.5-.1c.8-2.7 1.3-3.1 4.5-3Z" class="cls-1"/><path d="m170.3 77.8-.9.3H152l.8-.2Z" class="cls-5"/><path d="M84.1 79.9c-.4-.5-1-1-1-1.6a1.1 1.1 0 0 1 .9-1.4h.5a2 2 0 0 1 1.3 1.5c.1.4-.7 1-1.1 1.5Z" class="cls-3"/><path d="M130.9 79.6a2 2 0 0 1-1.9 2 2.3 2.3 0 0 1-2.1-2.1 2 2 0 0 1 2-2 2 2 0 0 1 2 2.1Z" class="cls-5"/><path d="M173.9 76.7c.3.5 1 1.1.9 1.5s-.8 1-1.2 1.5-1.3-.9-1.4-1.4.6-1.1 1-1.6Z" class="cls-3"/></svg>