<svg xmlns="http://www.w3.org/2000/svg" viewBox="0 0 349.3 349.3"><defs><style>.a{fill:#edeee7}.b{fill:#3d3f32}.c{fill:#fff}.d{fill:#ddc082}</style></defs><circle cx="174.6" cy="174.6" r="174.6" class="a"/><path d="M61.3 176.5v-102c0-10.8 8.9-22 19.4-26.4a29.7 29.7 0 0 1 12.8-2.3c55.2 0 110.5.1 165.7-.2 10.8 0 25.1 10 27.7 22.8s.8 22.9 1 34.3c.3 21.4.1 42.9.1 64.3l.3 112c0 2-.7 2.8-2.8 2.8h-68.2a3.6 3.6 0 0 0-2 .6 62.9 62.9 0 0 1-80.9.3 5.9 5.9 0 0 0-4-.9h-66c-2.6 0-3.2-1-3.2-3.3q.1-51 0-102Z" class="b"/><path d="M279.6 96.6c0-1.8-.4-2.3-2.3-2.3H70.4c-1.7 0-1.9.6-1.9 2.1v176c0 .8-.5 1.9 1.2 1.8H125l1.5-.2-.9-1.3c-9.6-13-13.8-27.5-12.1-43.7 1-9.2 4-17.8 7.9-26.1.1-.2 5.3-6.1 5-6.9s-3.5 0-5.3-.6h-.4c-2.1-.6-3.2-1.8-3.1-4.1a3.3 3.3 0 0 1 3.2-3.5h12.7a2.6 2.6 0 0 0 1.9-.5 52 52 0 0 1 29.3-13.3c-.1-.1.2-.2 0 0 2.4.2 5.1-.4 5.9 3s-1.2 4.1-3.5 4.8h-.3l-6.5 1.3a49.2 49.2 0 0 0-26.5 15.9 42.7 42.7 0 0 0-7.7 12.6c-8.8 21.7-6.6 42 8.6 60.1 9.8 11.8 23.2 16.7 38.3 16.9s26.8-3.9 37.3-13.6a46.8 46.8 0 0 0 13.9-19.8 53.3 53.3 0 0 0 .1-42.2c-8-19.2-23.3-28.8-43.4-31.4-3.1-.4-4-1.9-3.9-4.6s2.3-3.1 4.5-3a56.7 56.7 0 0 1 40.7 20.7c11.5 13.6 15.2 29.8 13.7 47.3a53 53 0 0 1-12.2 30c-.5.7-1.1 1.3-1.7 2l2.8.2h52.6c1.9 0 2.2-.6 2.2-2.3Z" class="c"/><path d="M62.3 311.4c-5.7 0-6.9.4-6.9 2.7s-3.1.9-4.6-.4c-8.2-7-8.2-7 .6-13.9 3.9-3.2 4 .4 4 1.8 0 3.4 3.3 2.6 4.5 2.6h240.2c2.8.1 3.8 1.6 3.7 3.7s-1.5 3.4-4.2 3.4Z" class="b"/><path d="M70.8 87.3c-1 0-1.7 0-1.7-1.3.2-7.5-1-15.2 3.4-22a22.1 22.1 0 0 1 10.1-8.8 27 27 0 0 1 11.2-1.9h162.6c15.1 0 23.6 8.7 23.7 23.8 0 2.7 0 5.4.1 8.1s-.3 2.1-2 2.1Z" class="d"/><path d="m176.6 225.2 18.5-17.8c1.4-1.4 2.6-3.3 5.1-2.3s1.8 3.2 1.9 5.1c0 9.6.1 19.3.2 29a4.7 4.7 0 0 1-1.6 2.9c-3.9 3.3-25.9 22.8-28.4 23.7s-6.9 2.3-10.6 1.3c-15.2-3.9-21.6-12.2-21.3-27.9.5-6.3 4.8-12.5 12-12.3 3.8.2 7.3 3.8 7.3 3.8s2.3 4.1 3.2 5.2 1.9.1 2.7-.6 10.7-10 11-10.1ZM159.9 122.4h36.6c2.6 0 4.2.8 4.2 3.5s-1.6 3.9-4.2 3.9h-74.4c-2.6 0-3.9-1.3-4-3.8s1.7-3.6 4-3.6c12.7 0 25.2-.1 37.8 0ZM118.2 157.6c.7-1.9 2.2-2.5 4-2.5h78.2c2.4 0 3.5 1.3 3.6 3.5s-1.2 3.7-3.5 3.7h-80.6c-2.4-1-2-2.9-1.7-4.7ZM83.8 123.4V114c0-2.7 1.6-3.8 4-3.9H105c2.7 0 4.1 1.7 4.1 4.3.1 6.1.1 12.3 0 18.4 0 2.6-1.5 3.9-4.2 3.9H88.2c-3 0-4.6-1.2-4.5-4.4s0-5.9 0-8.8ZM83.8 200.6v-8.8c0-2.6 1.4-3.8 3.7-3.8 5.8-.2 11.6-.1 17.4 0a3.7 3.7 0 0 1 4 3.3v.2c.7 6.2.3 12.4.1 18.6 0 2.3-1.5 3.8-4.1 3.7H87.7c-2.7 0-4-1.4-4-4.1v-9ZM106 226.3a5.3 5.3 0 0 1 3.1 5.2c0 4.5 0 8.9-.1 13.4-.2 6.4-.4 6.7-6.7 7.1H87.7c-2.7 0-4-1.3-4-4.2.1-5.5 0-11.2 0-16.7 0-3.2 1.5-4.9 4.7-4.9ZM83.8 162.9c0-3-.1-6.1 0-9.2s1.4-3.5 3.8-3.5h17.2a3.7 3.7 0 0 1 4 3.3v.4c.6 6.2.2 12.4 0 18.6 0 2.1-1.5 3.2-3.5 3.2q-9 .2-18 0c-2.5 0-3.6-1.6-3.6-4v-8.8Z" class="b"/><path d="M194.4 229c.2 5.2-.8 9.5-5.8 13.2s-9.2 8.4-13.9 12.4-12.6 5.7-18.7 2.3-8.8-9.9-7.9-17.1a6.4 6.4 0 0 1 2-3.9c1.2-1.1 2.5-1.4 3.8.1s3.3 5.7 5.4 8 6.2 2.1 9.3-.8l24.2-22.9 1.2-1a8.5 8.5 0 0 1 .4 1.7Z" class="d"/><path d="M101.4 123.8c0 5.5 0 5.5-5.4 5.4s-4.5 0-4.8-6.6c-.2-3.7.5-5.2 4.6-4.8 5.6.5 5.6.1 5.6 6Z" class="c"/><path d="M91.3 201c0-5.2 0-4.9 5.2-5.3s5.4.8 5.1 5.1-.2 5.6-5.8 5.6-4.4-.1-4.5-5.4ZM101.4 239c0 5.5 0 5.1-5.4 5.6s-5-1.2-4.8-5c.3-6.1.1-5.7 6-6.3s4.3 2.8 4.2 5.7Z" class="a"/><path d="M91.3 163.7c0-6 0-5.7 5.1-6s5.5.7 5.1 5-.1 5.1-5.7 5.8-4.9-2.2-4.5-4.8Z" class="c"/></svg>