<svg xmlns="http://www.w3.org/2000/svg" viewBox="0 0 288.9 288"><defs><style>.a{fill:#2c3535}.b{fill:#45a9ad}.c{fill:#f6d88d}</style></defs><path d="M138.4 204.9H88.6a100 100 0 0 1-18.9-1.8c-.7-.2-1.6-.3-1.6-1s.8-1.2 1.5-1.3l7.8-1.2c1.1-.1 1.4-.5 1.4-1.6-.1-37.2 0-74.5-.1-111.7 0-7 2.5-9.5 9.4-9.5h29.8c1.2 0 1.5-.3 1.5-1.5a22.4 22.4 0 0 1 .2-5.8c.7-3.7 3.6-5.7 8-5.7h21.8c5.5.1 8.3 3.2 8.1 9.4-.1 3.1.7 3.7 3.6 3.6 10.7-.2 21.4 0 32.1 0 4.8 0 7.9 2.8 8 7.6.1 26.3.2 52.6.1 78.9 0 3 1.6 4.6 3.1 6.5 6.9 8.4 13.8 16.7 20.6 25.2a9.8 9.8 0 0 1 1.2 11.2c-1.8 3.7-5.2 4.3-8.9 3.9s-6.5-3.6-8.9-6.6l-6.2-7.5c-.2-.3-.5-.4-.7-.6a2.8 2.8 0 0 0-.1.9c0 6.1-2.6 8.7-8.7 8.7h-54.3Z" class="a"/><path d="M201.4 188.8c-2.8-3.5-5.6-6.9-8.3-10.4-11.9-14.9-23.8-29.8-35.5-44.8-4.3-5.6-3.4-4 1.5-7.3 3.3-2.1 4.7-1.2 6.9 1.6 13.9 17.4 28 34.6 42.1 51.9a6.1 6.1 0 0 0 .7 1c.1.7-.3 1-.7 1.4-1.8 2.2-4 3.9-5.7 6.1a1 1 0 0 1-1 .5Z" class="b"/><path d="M201.4 188.8c2.4-2.7 4.9-5.3 7.4-8 4.3 5.3 8.8 10.4 13 15.7s1.9 8.5-2 9.5a5.2 5.2 0 0 1-5.6-1.7c-4.4-5.1-8.6-10.3-12.8-15.5Z" class="c"/><path d="m154.5 117.7 5.3 3.3.7.4-1.1.7c-1.9.8-4.8 3.3-5.4 2.4s-1.8-5.4-2.6-8.1c-.3-1.1 2.1.8 3.1 1.3ZM149.2 67.6h-22.5c-1.9.1-3.6.7-3.9 3v22.6c.5 1.4 1.4 2.6 3 2.6 8.1.1 16.2.2 24.2.1 1.7-.1 3.5-.7 3.5-3 0-7 .1-14 .1-21 0-2.9-1.7-4.3-4.4-4.3Z" class="b"/><path d="M196.7 189.2c-12.4-15.8-24.9-31.5-37.2-47.3-3.7-4.7-8.2-8.9-9.3-15.2-.7-4.1-2.1-8-3-12-.4-1.6-2.4-3.3-.5-4.8s3.1.8 4.5 1.7c6.8 4.3 13.7 8.3 18.7 15.1 8.4 11.4 17.7 22.1 26.6 33.1a2.7 2.7 0 0 0 .8.7c0-.2.1-.5.1-.8V85.3c0-3.1-1.6-4.8-4.7-4.8h-34.5c-.9 0-1 .4-1 1.1.1 3.3.1 6.7.1 10s-3 7.8-7.8 7.9c-7 .1-14 .2-21 .1s-8.1-1.4-9.6-7.6c-.2-.4 0-.4 0 0 0-3.5 0-7 .1-10.5 0-.6-.1-1-.9-.8H87c-3.5 0-5 1.6-5 5.2v109.5c-.2 1.9.1 3.6 1.9 4.7s3.2.7 4.8.6h100.9c2.5-.2 5.3.9 7.3-1.8.9-1.1.7-8.5-.2-9.7Z" style="fill:#e6f1f7"/><path d="M100.6 118.5h-3.4c-5.2-.3-7.1-2.2-7.2-7.4v-10c.1-3.5 2-5.9 5.4-6.1a81.3 81.3 0 0 1 12.1.1c3.6.3 4.5 2.2 4.2 5.7s-.1 7.4-.1 11.1-1.8 6.3-6 6.5h-5ZM90 136.4v-6.2a5.3 5.3 0 0 1 5.2-5.4h4.3c1.3 0 2.9.5 2.9-1.8s1-1 1.9-1 1.9.4 2.1 1.5.5.9 1.1 1.1a5.5 5.5 0 0 1 4.1 5.6c.1 3.9.1 7.8 0 11.8s-2.3 6.2-6.2 6.2h-9.2a5.9 5.9 0 0 1-6.2-6v-5.8ZM90 166.3v-6a5.6 5.6 0 0 1 5.1-5.4c3.8-.1 7.5-.2 11.2 0s5 2 5.2 4.8a121.6 121.6 0 0 1 .1 13.5c-.2 2.9-2.7 4.8-5.9 4.9h-10a5.6 5.6 0 0 1-5.6-5.6c-.1-2.1 0-4.2 0-6.2ZM131.2 161.2H142c1.2 0 2.1.5 2.1 1.7a1.9 1.9 0 0 1-2.1 2.1h-21.2c-1.4 0-2.5-.4-2.5-2s1.2-1.8 2.5-1.8ZM131.3 129.9h10.6c1.3 0 2.1.6 2.1 1.9s-.8 1.8-2 1.8h-21.2c-1.3 0-2.4-.4-2.4-1.9s1.1-1.8 2.5-1.8Z" class="a"/><path d="M93.7 106.3c.1-8.5-.6-7.7 7.7-7.7h4.7a1.9 1.9 0 0 1 1.9 1.3 1.8 1.8 0 0 1-.5 1.9l-4.6 5.4c-.7.8-1 .6-1.6 0s-2.3-4.1-4.5-2.2 1.1 2.9 1.8 4.4.5.6.7.9c2.4 2.9 3.2 2.9 5.5 0l2.9-3.6c.1 1.5.1 3 .2 4.5s-1 3.8-3.7 3.6h-7.4c-1.9 0-3.1-.8-3.1-2.9ZM107.8 136.3v5.7a2.3 2.3 0 0 1-2.4 2.5h-9.2a2.5 2.5 0 0 1-2.5-2.7c-.1-3.7 0-7.3 0-10.9a2.3 2.3 0 0 1 2.5-2.6h9.1a2.2 2.2 0 0 1 2.5 2.5c.1 1.9 0 3.7 0 5.5Z" class="c"/><path d="M93.6 166.4c.1-9-1-7.9 7.9-7.9 6.3-.1 6.3-.1 6.3 6.2v7.2c.1 1.8-.9 2.6-2.6 2.7h-9c-1.7 0-2.5-1-2.6-2.7Z" class="b"/></svg>