<?xml version="1.0" encoding="utf-8"?>
<!-- Generator: Adobe Illustrator 24.0.2, SVG Export Plug-In . SVG Version: 6.00 Build 0)  -->
<svg version="1.1" id="Layer_1" xmlns="http://www.w3.org/2000/svg" xmlns:xlink="http://www.w3.org/1999/xlink" x="0px" y="0px"
	 viewBox="0 0 650 175" style="enable-background:new 0 0 650 175;" xml:space="preserve">
<style type="text/css">
	.st0{fill:#111111;}
	.st1{enable-background:new    ;}
	.st2{fill:none;stroke:#000000;stroke-width:11.6071;stroke-linejoin:round;stroke-miterlimit:4.6429;}
	.st3{fill:#FFFFFF;}
</style>
<g>
	<path class="st0" d="M184.9,28.2h407c7.4,0,13.3,5.7,13.3,12.7v96.5c0,7-6,12.7-13.3,12.7h-407c-7.4,0-13.3-5.7-13.3-12.7V41
		C171.5,33.9,177.5,28.2,184.9,28.2z"/>
</g>
<g class="st1">
	<path class="st2" d="M437,40.3h44.5c9.7,0,16.9,2.5,21.8,7.4c4.8,5,7.2,12,7.2,21.1c0,9.4-2.6,16.7-7.9,22
		c-5.3,5.3-13.3,7.9-24.1,7.9h-14.6v34.5H437V40.3z M463.9,80h6.6c5.2,0,8.8-1,10.9-2.9c2.1-1.9,3.1-4.4,3.1-7.4
		c0-2.9-0.9-5.4-2.7-7.4c-1.8-2-5.2-3-10.2-3h-7.6V80z"/>
	<path class="st2" d="M522.4,40.3H594v19.9h-44.9v14.8h41.6v19h-41.6v18.3h46.2v21.1h-73V40.3z"/>
</g>
<g class="st1">
	<path class="st3" d="M436.9,41.3h44c9.6,0,16.8,2.5,21.5,7.4c4.8,5,7.2,12,7.2,21.1c0,9.4-2.6,16.7-7.8,22
		c-5.2,5.3-13.1,7.9-23.8,7.9h-14.5v34.5h-26.6V41.3z M463.5,81h6.5c5.1,0,8.7-1,10.7-2.9c2.1-1.9,3.1-4.4,3.1-7.4
		c0-2.9-0.9-5.4-2.7-7.4c-1.8-2-5.2-3-10.1-3h-7.5V81z"/>
	<path class="st3" d="M521.3,41.3h70.9v19.9h-44.4v14.8H589v19h-41.2v18.3h45.7v21.1h-72.2V41.3z"/>
</g>
<g>
	<g>
		<path d="M391.4,76c-6.7,0-12.2-5.5-12.2-12.2V29c0-6.7,5.5-12.2,12.2-12.2s12.2,5.5,12.2,12.2v34.8C403.5,70.6,398.1,76,391.4,76z
			"/>
	</g>
	<g>
		<path d="M391.4,159.5c-6.7,0-12.2-5.5-12.2-12.2v-34.8c0-6.7,5.5-12.2,12.2-12.2s12.2,5.5,12.2,12.2v34.8
			C403.5,154.1,398.1,159.5,391.4,159.5z"/>
	</g>
	<g>
		<path d="M364,97.4H131.9c-6.7,0-12.2-5.5-12.2-12.2c0-6.7,5.5-12.2,12.2-12.2H364c6.7,0,12.2,5.5,12.2,12.2
			C376.2,91.9,370.7,97.4,364,97.4z"/>
	</g>
	<g>
		<path d="M439.5,97.4h-34.8c-6.7,0-12.2-5.5-12.2-12.2c0-6.7,5.5-12.2,12.2-12.2h34.8c6.7,0,12.2,5.5,12.2,12.2
			C451.7,91.9,446.3,97.4,439.5,97.4z"/>
	</g>
	<g>
		<path class="st3" d="M391.4,66.7c-1.6,0-2.9-1.3-2.9-2.9V29c0-1.6,1.3-2.9,2.9-2.9s2.9,1.3,2.9,2.9v34.8
			C394.3,65.4,393,66.7,391.4,66.7z"/>
	</g>
	<g>
		<path class="st3" d="M391.4,150.2c-1.6,0-2.9-1.3-2.9-2.9v-34.8c0-1.6,1.3-2.9,2.9-2.9s2.9,1.3,2.9,2.9v34.8
			C394.3,148.9,393,150.2,391.4,150.2z"/>
	</g>
	<g>
		<path class="st3" d="M364,88.1H131.9c-1.6,0-2.9-1.3-2.9-2.9s1.3-2.9,2.9-2.9H364c1.6,0,2.9,1.3,2.9,2.9S365.6,88.1,364,88.1z"/>
	</g>
	<g>
		<path class="st3" d="M439.5,88.1h-34.8c-1.6,0-2.9-1.3-2.9-2.9s1.3-2.9,2.9-2.9h34.8c1.6,0,2.9,1.3,2.9,2.9S441.1,88.1,439.5,88.1
			z"/>
	</g>
</g>
<g class="st1">
	<path d="M102.8,95.3l25.2,7.6c-1.7,7.1-4.4,13-8,17.7c-3.6,4.7-8.2,8.3-13.6,10.7s-12.3,3.6-20.6,3.6c-10.1,0-18.4-1.5-24.8-4.4
		c-6.4-2.9-11.9-8.1-16.6-15.5c-4.7-7.4-7-16.9-7-28.4c0-15.4,4.1-27.2,12.3-35.5c8.2-8.3,19.8-12.4,34.8-12.4
		c11.7,0,20.9,2.4,27.6,7.1c6.7,4.7,11.7,12,14.9,21.8l-25.4,5.6c-0.9-2.8-1.8-4.9-2.8-6.2c-1.6-2.2-3.6-3.9-5.9-5.1
		c-2.3-1.2-4.9-1.8-7.8-1.8c-6.5,0-11.5,2.6-15,7.9c-2.6,3.9-3.9,10-3.9,18.3c0,10.3,1.6,17.4,4.7,21.2c3.1,3.8,7.5,5.7,13.2,5.7
		c5.5,0,9.7-1.5,12.5-4.6C99.5,105.6,101.5,101.1,102.8,95.3z"/>
</g>
<g>
	<circle class="st0" cx="391.4" cy="85.2" r="27.3"/>
</g>
<g>
	<path class="st3" d="M391.4,117.7c-18,0-32.6-14.6-32.6-32.6s14.6-32.6,32.6-32.6s32.6,14.6,32.6,32.6S409.3,117.7,391.4,117.7z
		 M391.4,63.1c-12.2,0-22.1,9.9-22.1,22.1c0,12.2,9.9,22.1,22.1,22.1c12.2,0,22.1-9.9,22.1-22.1C413.5,73,403.6,63.1,391.4,63.1z"/>
</g>
<g class="st1">
	<path class="st2" d="M179.5,102.6l25.4-1.7c0.6,4.4,1.7,7.8,3.4,10.2c2.8,3.8,6.7,5.6,11.8,5.6c3.8,0,6.8-1,8.8-2.9
		s3.1-4.2,3.1-6.7c0-2.4-1-4.6-3-6.5c-2-1.9-6.5-3.7-13.7-5.4c-11.7-2.8-20.1-6.6-25.1-11.3c-5-4.7-7.6-10.7-7.6-18
		c0-4.8,1.3-9.3,3.9-13.6c2.6-4.3,6.5-7.6,11.6-10c5.2-2.4,12.3-3.6,21.3-3.6c11.1,0,19.5,2.2,25.3,6.6c5.8,4.4,9.3,11.5,10.4,21.1
		L229.9,68c-0.7-4.2-2.1-7.2-4.2-9.1c-2.1-1.9-5.1-2.9-8.9-2.9c-3.1,0-5.5,0.7-7,2.1c-1.6,1.4-2.4,3.1-2.4,5.2c0,1.5,0.6,2.8,1.9,4
		c1.3,1.2,4.3,2.4,9,3.4c11.7,2.7,20.1,5.4,25.1,8.2c5.1,2.8,8.7,6.2,11,10.3c2.3,4.1,3.5,8.7,3.5,13.8c0,6-1.5,11.5-4.6,16.5
		c-3.1,5-7.4,8.9-12.9,11.5c-5.5,2.6-12.5,3.9-20.8,3.9c-14.7,0-24.9-3-30.6-9.1C183.4,119.7,180.2,112,179.5,102.6z"/>
	<path class="st2" d="M327,95.3l23.4,7.6c-1.6,7.1-4.1,13-7.4,17.7c-3.4,4.7-7.6,8.3-12.6,10.7c-5,2.4-11.4,3.6-19.2,3.6
		c-9.4,0-17.1-1.5-23.1-4.4c-6-2.9-11.1-8.1-15.4-15.5c-4.3-7.4-6.5-16.9-6.5-28.4c0-15.4,3.8-27.2,11.4-35.5
		c7.6-8.3,18.4-12.4,32.3-12.4c10.9,0,19.5,2.4,25.7,7.1c6.2,4.7,10.9,12,13.9,21.8L326,73.3c-0.8-2.8-1.7-4.9-2.6-6.2
		c-1.5-2.2-3.3-3.9-5.5-5.1c-2.2-1.2-4.6-1.8-7.3-1.8c-6.1,0-10.7,2.6-13.9,7.9c-2.4,3.9-3.7,10-3.7,18.3c0,10.3,1.5,17.4,4.4,21.2
		c2.9,3.8,7,5.7,12.3,5.7c5.1,0,9-1.5,11.6-4.6C323.9,105.6,325.8,101.1,327,95.3z"/>
</g>
<g class="st1">
	<path class="st3" d="M179.4,103.6l25.2-1.7c0.5,4.4,1.7,7.8,3.3,10.2c2.7,3.8,6.6,5.6,11.7,5.6c3.8,0,6.7-1,8.7-2.9
		s3.1-4.2,3.1-6.7c0-2.4-1-4.6-2.9-6.5c-1.9-1.9-6.5-3.7-13.5-5.4c-11.6-2.8-19.9-6.6-24.8-11.3c-5-4.7-7.5-10.7-7.5-18
		c0-4.8,1.3-9.3,3.8-13.6c2.5-4.3,6.4-7.6,11.5-10c5.1-2.4,12.1-3.6,21.1-3.6c10.9,0,19.3,2.2,25,6.6c5.7,4.4,9.2,11.5,10.2,21.1
		L229.3,69c-0.7-4.2-2.1-7.2-4.2-9.1s-5.1-2.9-8.8-2.9c-3.1,0-5.4,0.7-6.9,2.1c-1.6,1.4-2.3,3.1-2.3,5.2c0,1.5,0.6,2.8,1.9,4
		c1.2,1.2,4.2,2.4,8.9,3.4c11.6,2.7,19.8,5.4,24.8,8.2c5,2.8,8.6,6.2,10.9,10.3c2.3,4.1,3.4,8.7,3.4,13.8c0,6-1.5,11.5-4.6,16.5
		c-3,5-7.3,8.9-12.7,11.5c-5.5,2.6-12.3,3.9-20.6,3.9c-14.6,0-24.6-3-30.3-9.1C183.3,120.7,180.2,113,179.4,103.6z"/>
	<path class="st3" d="M325.4,96.3l23.2,7.6c-1.6,7.1-4,13-7.4,17.7c-3.3,4.7-7.5,8.3-12.5,10.7s-11.3,3.6-19,3.6
		c-9.3,0-16.9-1.5-22.8-4.4c-5.9-2.9-11-8.1-15.3-15.5c-4.3-7.4-6.4-16.9-6.4-28.4c0-15.4,3.8-27.2,11.3-35.5
		c7.5-8.3,18.2-12.4,32-12.4c10.8,0,19.3,2.4,25.4,7.1c6.2,4.7,10.8,12,13.8,21.8l-23.4,5.6c-0.8-2.8-1.7-4.9-2.6-6.2
		c-1.5-2.2-3.3-3.9-5.4-5.1c-2.1-1.2-4.5-1.8-7.2-1.8c-6,0-10.6,2.6-13.8,7.9c-2.4,3.9-3.6,10-3.6,18.3c0,10.3,1.4,17.4,4.3,21.2
		c2.9,3.8,6.9,5.7,12.1,5.7c5.1,0,8.9-1.5,11.5-4.6C322.3,106.6,324.2,102.1,325.4,96.3z"/>
</g>
<g>
	<circle class="st3" cx="391.4" cy="85.2" r="7"/>
</g>
</svg>
